<svg width="11" height="14" viewBox="0 0 11 14" fill="none" xmlns="http://www.w3.org/2000/svg">
<path d="M5.03096 0.589809C4.18643 0.73295 3.50222 1.07935 2.8953 1.66909C2.73784 1.82368 2.53458 2.04985 2.44584 2.17581C1.54405 3.424 1.4553 5.00142 2.19391 6.51585C2.41721 6.96817 2.5947 7.21151 3.29323 8.01883L3.87438 8.69159L2.86381 8.70591L1.85323 8.72022L1.78452 8.79179C1.73013 8.84618 1.55264 9.36435 1.02588 10.9876C0.645122 12.1556 0.335938 13.1376 0.335938 13.1719C0.335938 13.2692 0.416096 13.3952 0.507707 13.4439C0.58214 13.4811 1.1862 13.4868 5.68082 13.4868C10.2499 13.4868 10.7795 13.4811 10.8368 13.441C10.9141 13.3866 10.9856 13.2549 10.9856 13.1662C10.9856 13.1318 10.6764 12.1499 10.2986 10.9818C9.68877 9.10956 9.60003 8.85477 9.52273 8.78607L9.43971 8.70591H8.68679C7.96249 8.70591 7.931 8.70877 7.86802 8.76603C7.74778 8.88054 7.71915 9.04658 7.79645 9.19545C7.87088 9.34145 7.97394 9.36435 8.54937 9.36435H9.06468L9.42539 10.4723C9.62579 11.0849 9.87772 11.855 9.98651 12.1871C10.0953 12.5192 10.184 12.7997 10.184 12.8112C10.184 12.8198 8.14857 12.8284 5.65792 12.8284H1.13466L1.1547 12.7625C1.18906 12.6509 1.64711 11.2424 1.95629 10.2862L2.25689 9.36435H3.35621H4.45554L4.85633 9.82813L5.25713 10.2948L4.9279 10.3091C4.59868 10.3234 4.59581 10.3234 4.51279 10.4179C4.45554 10.4837 4.42977 10.541 4.42977 10.6125C4.42977 10.7328 4.49562 10.8673 4.57005 10.9103C4.64735 10.9504 6.67422 10.9504 6.75152 10.9103C6.82595 10.8673 6.8918 10.7328 6.8918 10.6125C6.8918 10.541 6.86603 10.4837 6.80877 10.4179C6.72575 10.3234 6.72289 10.3234 6.39367 10.3091L6.06444 10.2948L7.3384 8.82042C8.03979 8.01024 8.68965 7.23728 8.78412 7.10559C9.37959 6.25819 9.70309 5.10161 9.61148 4.15402C9.5943 3.96794 9.55708 3.71601 9.52559 3.59291C9.15056 2.02695 7.87661 0.844601 6.2906 0.589809C5.96424 0.538279 5.33156 0.538279 5.03096 0.589809ZM6.2219 1.24826C7.04925 1.39426 7.81362 1.86663 8.33752 2.56516C8.53219 2.82281 8.76981 3.3238 8.85569 3.65303C8.9473 4.00229 8.97879 4.5949 8.92726 4.95847C8.83279 5.58543 8.53219 6.3269 8.16575 6.81072C7.97394 7.06837 5.68941 9.70789 5.66078 9.70789C5.63216 9.70789 3.37912 7.10273 3.16154 6.81931C2.68918 6.19521 2.36854 5.25048 2.36854 4.47179C2.36854 3.56714 2.70922 2.77987 3.37625 2.13287C3.85434 1.66909 4.43836 1.3685 5.08822 1.24826C5.38023 1.19673 5.91558 1.19673 6.2219 1.24826Z" fill="#FBFDFF"/>
<path d="M5.23751 2.93767C4.77946 3.06649 4.41588 3.36709 4.21262 3.79365C4.08379 4.05703 4.04944 4.25743 4.06661 4.58379C4.10097 5.27946 4.56761 5.85775 5.23178 6.02951C5.46653 6.0925 5.87592 6.08963 6.10208 6.02951C6.6546 5.88351 7.11552 5.39683 7.23862 4.83572C7.29015 4.59238 7.25866 4.15437 7.17277 3.92248C7.02104 3.51023 6.66033 3.14952 6.24808 2.99206C5.99615 2.89473 5.48371 2.86896 5.23751 2.93767ZM5.97612 3.60184C6.32538 3.72208 6.57158 4.04844 6.60021 4.41775C6.63456 4.88725 6.33969 5.27946 5.86447 5.40256C5.45794 5.50562 5.03997 5.31095 4.82812 4.9216C4.73651 4.7527 4.73079 4.72407 4.73079 4.48359C4.73079 4.26029 4.74224 4.2059 4.80808 4.0828C5.04284 3.6362 5.5152 3.44152 5.97612 3.60184Z" fill="#FBFDFF"/>
</svg>
