<svg width="12" height="11" viewBox="0 0 12 11" fill="none" xmlns="http://www.w3.org/2000/svg">
<path d="M7.25144 0.0373898C6.98466 0.0950136 6.73496 0.216663 6.50446 0.398072L6.38281 0.494111L6.50873 0.681922C6.57703 0.784364 6.65386 0.908148 6.67947 0.959369L6.72642 1.05114L6.8438 0.94443C7.45205 0.404474 8.27586 0.611493 8.67496 1.40542C8.81795 1.69354 8.89478 2.0841 8.87344 2.4213C8.79874 3.54817 7.92158 4.24605 7.10204 3.82988C7.04442 3.80214 6.99533 3.7808 6.99106 3.78506C6.98679 3.78933 6.96545 3.85549 6.94198 3.93446C6.91637 4.01129 6.86941 4.14361 6.83313 4.22685L6.7691 4.37838L6.87368 4.43173C7.04015 4.51497 7.37095 4.5918 7.5737 4.5918C8.57892 4.5918 9.38778 3.72958 9.50303 2.53442C9.55639 1.96672 9.40699 1.33926 9.10393 0.878269C8.97801 0.68619 8.7027 0.406609 8.5277 0.291361C8.14781 0.0416584 7.66974 -0.052247 7.25144 0.0373898Z" fill="#FBFDFF"/>
<path d="M3.98972 0.112303C3.75069 0.137914 3.58635 0.187 3.34519 0.304382C2.47016 0.72909 1.93234 1.74071 1.97502 2.87397C1.99423 3.36271 2.0732 3.67644 2.28875 4.11182C2.43388 4.40207 2.54272 4.55573 2.76041 4.77982C3.18939 5.21734 3.70587 5.42649 4.28851 5.39661C5.40683 5.34326 6.30107 4.33164 6.40564 3.00203C6.53583 1.34374 5.38336 -0.0349574 3.98972 0.112303ZM4.53608 0.829398C4.9181 0.940377 5.28092 1.26691 5.49007 1.68735C5.66294 2.03309 5.73337 2.34469 5.73337 2.76726C5.73123 3.64656 5.29372 4.38499 4.61931 4.65177C4.49126 4.70086 4.44644 4.70726 4.19887 4.70939C3.9449 4.70939 3.90862 4.70513 3.76776 4.64964C2.90981 4.31457 2.45949 3.21118 2.73053 2.11633C2.86499 1.57424 3.23848 1.09191 3.68239 0.887022C3.93423 0.773909 4.2693 0.750432 4.53608 0.829398Z" fill="#FBFDFF"/>
<path d="M9.53201 4.33765C9.49787 4.3846 9.38902 4.49985 9.29298 4.59589C9.19481 4.68979 9.11584 4.77089 9.11584 4.77303C9.11584 4.77729 9.1756 4.82211 9.2503 4.87547C9.42744 5.00352 9.72196 5.29377 9.85641 5.47732C9.9738 5.63311 10.1488 5.95325 10.2256 6.14746C10.3366 6.43344 10.4369 7.02675 10.4028 7.20603C10.3451 7.50482 9.86495 7.78226 9.11584 7.94873L8.89175 7.99995V8.30728C8.88962 8.47588 8.88321 8.64022 8.87254 8.6701L8.85547 8.72559L9.02407 8.69784C9.43384 8.62528 9.93538 8.47161 10.2128 8.33289C10.4391 8.21978 10.5671 8.13228 10.725 7.98288C11.0601 7.67129 11.1604 7.35329 11.1028 6.80053C11.0558 6.35661 10.9513 5.99806 10.7464 5.58403C10.5244 5.12944 10.1872 4.70687 9.80733 4.40381C9.70702 4.32484 9.61952 4.25868 9.61098 4.25655C9.60244 4.25441 9.5683 4.29069 9.53201 4.33765Z" fill="#FBFDFF"/>
<path d="M1.80904 5.16164C1.29256 5.54793 0.897731 6.02599 0.609613 6.60863C0.387655 7.06109 0.266005 7.48793 0.214784 8.00014C0.15716 8.56357 0.255334 8.89224 0.579734 9.22304C1.14957 9.80568 2.37674 10.16 3.95179 10.1984C5.05518 10.224 5.97716 10.1002 6.8095 9.80995C7.50098 9.56879 7.97478 9.17396 8.12844 8.71083C8.1882 8.53156 8.1818 7.95319 8.11564 7.62239C7.92142 6.64065 7.38147 5.76989 6.59608 5.17871L6.38266 5.01865L6.13936 5.26835C6.0049 5.40494 5.89819 5.52019 5.90032 5.52019C6.85858 6.10709 7.48177 7.17207 7.49671 8.25411C7.49885 8.44406 7.49458 8.4782 7.44549 8.57424C7.23634 8.98828 6.39119 9.32762 5.23232 9.46848C4.83322 9.51756 3.95179 9.53464 3.53135 9.50263C2.69901 9.4386 2.02673 9.2892 1.52946 9.05231C1.18158 8.88797 1.00231 8.73004 0.908403 8.50808C0.878524 8.43765 0.874255 8.38003 0.88706 8.17088C0.938281 7.16993 1.46757 6.22448 2.28924 5.65464C2.39381 5.58208 2.47918 5.51592 2.47918 5.50738C2.47918 5.49884 2.42369 5.44336 2.35753 5.38573C2.28924 5.32597 2.1868 5.21926 2.12704 5.14883C2.06941 5.0784 2.01606 5.02078 2.00966 5.02078C2.00325 5.01865 1.91362 5.08267 1.80904 5.16164Z" fill="#FBFDFF"/>
</svg>
