<svg width="232" height="230" viewBox="0 0 232 230" fill="none" xmlns="http://www.w3.org/2000/svg">
<g filter="url(#filter0_b_16479_1516)">
<rect x="0.5" y="0.324219" width="231" height="228.682" rx="15" fill="#0389FF" fill-opacity="0.12"/>
<g filter="url(#filter1_b_16479_1516)">
<rect x="21.6211" y="23.3975" width="189.36" height="185.41" rx="22" fill="black" fill-opacity="0.33"/>
<path d="M45.0488 51.9106C44.7608 51.3559 44.3608 50.9399 43.8488 50.6626C43.3368 50.3746 42.7448 50.2306 42.0728 50.2306C41.3368 50.2306 40.6808 50.3959 40.1048 50.7266C39.5288 51.0572 39.0754 51.5266 38.7448 52.1346C38.4248 52.7426 38.2648 53.4466 38.2648 54.2466C38.2648 55.0466 38.4248 55.7559 38.7448 56.3746C39.0754 56.9826 39.5288 57.4519 40.1048 57.7826C40.6808 58.1132 41.3368 58.2786 42.0728 58.2786C43.0648 58.2786 43.8701 58.0012 44.4888 57.4466C45.1074 56.8919 45.4861 56.1399 45.6248 55.1906H41.4488V53.7346H47.5768V55.1586C47.4594 56.0226 47.1501 56.8172 46.6488 57.5426C46.1581 58.2679 45.5128 58.8492 44.7128 59.2866C43.9234 59.7132 43.0434 59.9266 42.0728 59.9266C41.0274 59.9266 40.0728 59.6866 39.2088 59.2066C38.3448 58.7159 37.6568 58.0386 37.1448 57.1746C36.6434 56.3106 36.3928 55.3346 36.3928 54.2466C36.3928 53.1586 36.6434 52.1826 37.1448 51.3186C37.6568 50.4546 38.3448 49.7826 39.2088 49.3026C40.0834 48.8119 41.0381 48.5666 42.0728 48.5666C43.2568 48.5666 44.3074 48.8599 45.2248 49.4466C46.1528 50.0226 46.8248 50.8439 47.2408 51.9106H45.0488ZM57.4558 55.2066C57.4558 55.5372 57.4344 55.8359 57.3918 56.1026H50.6558C50.7091 56.8066 50.9704 57.3719 51.4398 57.7986C51.9091 58.2252 52.4851 58.4386 53.1678 58.4386C54.1491 58.4386 54.8424 58.0279 55.2478 57.2066H57.2158C56.9491 58.0172 56.4638 58.6839 55.7598 59.2066C55.0664 59.7186 54.2024 59.9746 53.1678 59.9746C52.3251 59.9746 51.5678 59.7879 50.8958 59.4146C50.2344 59.0306 49.7118 58.4972 49.3278 57.8146C48.9544 57.1212 48.7678 56.3212 48.7678 55.4146C48.7678 54.5079 48.9491 53.7132 49.3118 53.0306C49.6851 52.3372 50.2024 51.8039 50.8638 51.4306C51.5358 51.0572 52.3038 50.8706 53.1678 50.8706C53.9998 50.8706 54.7411 51.0519 55.3918 51.4146C56.0424 51.7772 56.5491 52.2892 56.9118 52.9506C57.2744 53.6012 57.4558 54.3532 57.4558 55.2066ZM55.5518 54.6306C55.5411 53.9586 55.3011 53.4199 54.8318 53.0146C54.3624 52.6092 53.7811 52.4066 53.0878 52.4066C52.4584 52.4066 51.9198 52.6092 51.4718 53.0146C51.0238 53.4092 50.7571 53.9479 50.6718 54.6306H55.5518ZM61.3788 52.5026V57.3826C61.3788 57.7132 61.4534 57.9532 61.6028 58.1026C61.7628 58.2412 62.0294 58.3106 62.4028 58.3106H63.5228V59.8306H62.0828C61.2614 59.8306 60.6321 59.6386 60.1948 59.2546C59.7574 58.8706 59.5388 58.2466 59.5388 57.3826V52.5026H58.4988V51.0146H59.5388V48.8226H61.3788V51.0146H63.5228V52.5026H61.3788ZM72.5602 59.9746C71.8668 59.9746 71.2428 59.8519 70.6882 59.6066C70.1442 59.3506 69.7122 59.0092 69.3922 58.5826C69.0722 58.1452 68.9015 57.6599 68.8802 57.1266H70.7682C70.8002 57.4999 70.9762 57.8146 71.2962 58.0706C71.6268 58.3159 72.0375 58.4386 72.5282 58.4386C73.0402 58.4386 73.4348 58.3426 73.7122 58.1506C74.0002 57.9479 74.1442 57.6919 74.1442 57.3826C74.1442 57.0519 73.9842 56.8066 73.6642 56.6466C73.3548 56.4866 72.8588 56.3106 72.1762 56.1186C71.5148 55.9372 70.9762 55.7612 70.5602 55.5906C70.1442 55.4199 69.7815 55.1586 69.4722 54.8066C69.1735 54.4546 69.0242 53.9906 69.0242 53.4146C69.0242 52.9452 69.1628 52.5186 69.4402 52.1346C69.7175 51.7399 70.1122 51.4306 70.6242 51.2066C71.1468 50.9826 71.7442 50.8706 72.4162 50.8706C73.4188 50.8706 74.2242 51.1266 74.8322 51.6386C75.4508 52.1399 75.7815 52.8279 75.8242 53.7026H74.0002C73.9682 53.3079 73.8082 52.9932 73.5202 52.7586C73.2322 52.5239 72.8428 52.4066 72.3522 52.4066C71.8722 52.4066 71.5042 52.4972 71.2482 52.6786C70.9922 52.8599 70.8642 53.0999 70.8642 53.3986C70.8642 53.6332 70.9495 53.8306 71.1202 53.9906C71.2908 54.1506 71.4988 54.2786 71.7442 54.3746C71.9895 54.4599 72.3522 54.5719 72.8322 54.7106C73.4722 54.8812 73.9948 55.0572 74.4002 55.2386C74.8162 55.4092 75.1735 55.6652 75.4722 56.0066C75.7708 56.3479 75.9255 56.8012 75.9362 57.3666C75.9362 57.8679 75.7975 58.3159 75.5202 58.7106C75.2428 59.1052 74.8482 59.4146 74.3362 59.6386C73.8348 59.8626 73.2428 59.9746 72.5602 59.9746ZM80.035 52.5026V57.3826C80.035 57.7132 80.1097 57.9532 80.259 58.1026C80.419 58.2412 80.6857 58.3106 81.059 58.3106H82.179V59.8306H80.739C79.9177 59.8306 79.2884 59.6386 78.851 59.2546C78.4137 58.8706 78.195 58.2466 78.195 57.3826V52.5026H77.155V51.0146H78.195V48.8226H80.035V51.0146H82.179V52.5026H80.035ZM83.2522 55.3826C83.2522 54.4972 83.4335 53.7132 83.7962 53.0306C84.1695 52.3479 84.6708 51.8199 85.3002 51.4466C85.9402 51.0626 86.6442 50.8706 87.4122 50.8706C88.1055 50.8706 88.7082 51.0092 89.2202 51.2866C89.7428 51.5532 90.1588 51.8892 90.4682 52.2946V51.0146H92.3082V59.8306H90.4682V58.5186C90.1588 58.9346 89.7375 59.2812 89.2042 59.5586C88.6708 59.8359 88.0628 59.9746 87.3802 59.9746C86.6228 59.9746 85.9295 59.7826 85.3002 59.3986C84.6708 59.0039 84.1695 58.4599 83.7962 57.7666C83.4335 57.0626 83.2522 56.2679 83.2522 55.3826ZM90.4682 55.4146C90.4682 54.8066 90.3402 54.2786 90.0842 53.8306C89.8388 53.3826 89.5135 53.0412 89.1082 52.8066C88.7028 52.5719 88.2655 52.4546 87.7962 52.4546C87.3268 52.4546 86.8895 52.5719 86.4842 52.8066C86.0788 53.0306 85.7482 53.3666 85.4922 53.8146C85.2468 54.2519 85.1242 54.7746 85.1242 55.3826C85.1242 55.9906 85.2468 56.5239 85.4922 56.9826C85.7482 57.4412 86.0788 57.7932 86.4842 58.0386C86.9002 58.2732 87.3375 58.3906 87.7962 58.3906C88.2655 58.3906 88.7028 58.2732 89.1082 58.0386C89.5135 57.8039 89.8388 57.4626 90.0842 57.0146C90.3402 56.5559 90.4682 56.0226 90.4682 55.4146ZM96.5279 52.2946C96.7946 51.8466 97.1466 51.4999 97.5839 51.2546C98.0319 50.9986 98.5599 50.8706 99.1679 50.8706V52.7586H98.7039C97.9892 52.7586 97.4452 52.9399 97.0719 53.3026C96.7092 53.6652 96.5279 54.2946 96.5279 55.1906V59.8306H94.7039V51.0146H96.5279V52.2946ZM102.973 52.5026V57.3826C102.973 57.7132 103.047 57.9532 103.197 58.1026C103.357 58.2412 103.623 58.3106 103.997 58.3106H105.117V59.8306H103.677C102.855 59.8306 102.226 59.6386 101.789 59.2546C101.351 58.8706 101.133 58.2466 101.133 57.3826V52.5026H100.093V51.0146H101.133V48.8226H102.973V51.0146H105.117V52.5026H102.973ZM114.878 55.2066C114.878 55.5372 114.856 55.8359 114.814 56.1026H108.078C108.131 56.8066 108.392 57.3719 108.862 57.7986C109.331 58.2252 109.907 58.4386 110.59 58.4386C111.571 58.4386 112.264 58.0279 112.67 57.2066H114.638C114.371 58.0172 113.886 58.6839 113.182 59.2066C112.488 59.7186 111.624 59.9746 110.59 59.9746C109.747 59.9746 108.99 59.7879 108.318 59.4146C107.656 59.0306 107.134 58.4972 106.75 57.8146C106.376 57.1212 106.19 56.3212 106.19 55.4146C106.19 54.5079 106.371 53.7132 106.734 53.0306C107.107 52.3372 107.624 51.8039 108.286 51.4306C108.958 51.0572 109.726 50.8706 110.59 50.8706C111.422 50.8706 112.163 51.0519 112.814 51.4146C113.464 51.7772 113.971 52.2892 114.334 52.9506C114.696 53.6012 114.878 54.3532 114.878 55.2066ZM112.974 54.6306C112.963 53.9586 112.723 53.4199 112.254 53.0146C111.784 52.6092 111.203 52.4066 110.51 52.4066C109.88 52.4066 109.342 52.6092 108.894 53.0146C108.446 53.4092 108.179 53.9479 108.094 54.6306H112.974ZM116.065 55.3826C116.065 54.4972 116.246 53.7132 116.609 53.0306C116.982 52.3479 117.483 51.8199 118.113 51.4466C118.753 51.0626 119.462 50.8706 120.241 50.8706C120.817 50.8706 121.382 50.9986 121.937 51.2546C122.502 51.4999 122.95 51.8306 123.281 52.2466V47.9906H125.121V59.8306H123.281V58.5026C122.982 58.9292 122.566 59.2812 122.033 59.5586C121.51 59.8359 120.907 59.9746 120.225 59.9746C119.457 59.9746 118.753 59.7826 118.113 59.3986C117.483 59.0039 116.982 58.4599 116.609 57.7666C116.246 57.0626 116.065 56.2679 116.065 55.3826ZM123.281 55.4146C123.281 54.8066 123.153 54.2786 122.897 53.8306C122.651 53.3826 122.326 53.0412 121.921 52.8066C121.515 52.5719 121.078 52.4546 120.609 52.4546C120.139 52.4546 119.702 52.5719 119.297 52.8066C118.891 53.0306 118.561 53.3666 118.305 53.8146C118.059 54.2519 117.937 54.7746 117.937 55.3826C117.937 55.9906 118.059 56.5239 118.305 56.9826C118.561 57.4412 118.891 57.7932 119.297 58.0386C119.713 58.2732 120.15 58.3906 120.609 58.3906C121.078 58.3906 121.515 58.2732 121.921 58.0386C122.326 57.8039 122.651 57.4626 122.897 57.0146C123.153 56.5559 123.281 56.0226 123.281 55.4146Z" fill="#FBFDFF"/>
<path d="M113.047 87.6099C111.448 87.8306 108.845 88.8512 107.3 89.8719C104.507 91.6926 101.905 95.4168 101.39 98.2306C101.2 99.1685 101.119 99.2788 100.359 99.2788C97.4314 99.2788 94.2865 101.21 92.9852 103.831C92.2803 105.237 92.1719 105.734 92.1719 107.665C92.1719 109.348 92.3345 110.203 92.7683 111.168C93.5545 112.906 95.127 114.617 96.7537 115.5C98.1363 116.244 98.1905 116.244 104.589 116.327C110.147 116.41 111.014 116.355 111.014 115.996C111.014 115.665 110.092 115.582 104.724 115.5C98.787 115.417 98.3261 115.389 97.2688 114.81C95.7777 113.982 94.395 112.493 93.663 110.948C91.3585 105.927 94.7745 100.355 100.224 100.272L101.769 100.244L102.095 98.865C102.827 95.6926 105.483 91.9409 108.195 90.2581C109.523 89.4581 112.099 88.6306 113.915 88.4099C118.009 87.9133 123.024 90.0926 125.546 93.4581L126.522 94.7271L128.989 94.7547C132.513 94.8099 134.167 95.4995 136.526 97.8719C138.83 100.217 139.562 102.01 139.562 105.21C139.562 108.272 138.803 110.231 136.797 112.244C134.113 114.948 132.242 115.527 126.278 115.555C122.672 115.555 122.13 115.61 122.13 115.996C122.13 116.382 122.672 116.41 127.091 116.327C131.347 116.217 132.215 116.134 133.516 115.61C141.433 112.41 142.951 101.679 136.227 96.2719C134.221 94.6719 132.215 93.9547 129.45 93.8995L127.145 93.8444L125.41 92.0237C122.157 88.5754 117.683 86.9754 113.047 87.6099Z" fill="#0389FF"/>
<path d="M113.238 104.768C110.283 108.023 109.443 109.21 110.175 109.21C110.283 109.21 111.666 107.83 113.211 106.12L116.031 103.058L116.166 111.499C116.248 116.796 116.41 119.996 116.573 120.051C116.736 120.079 116.871 117.099 116.926 111.61C116.953 106.948 117.034 103.141 117.115 103.141C117.17 103.141 117.82 103.803 118.525 104.575C121.887 108.327 122.89 109.292 123.188 109.099C123.514 108.879 122.538 107.637 118.688 103.444L116.546 101.127L113.238 104.768Z" fill="#0389FF"/>
<path d="M46.0879 137.266C46.8933 137.266 47.5972 137.422 48.1995 137.734C48.809 138.039 49.277 138.481 49.6035 139.062C49.9373 139.635 50.1042 140.306 50.1042 141.075C50.1042 141.845 49.9373 142.512 49.6035 143.078C49.277 143.644 48.809 144.08 48.1995 144.384C47.5972 144.682 46.8933 144.831 46.0879 144.831H43.6171V137.266H46.0879ZM46.0879 143.818C46.9731 143.818 47.6516 143.579 48.1233 143.1C48.5949 142.621 48.8308 141.946 48.8308 141.075C48.8308 140.197 48.5949 139.512 48.1233 139.018C47.6516 138.525 46.9731 138.278 46.0879 138.278H44.8579V143.818H46.0879ZM52.5748 139.704C52.7562 139.399 52.9957 139.163 53.2932 138.997C53.598 138.822 53.9571 138.735 54.3708 138.735V140.02H54.0551C53.5689 140.02 53.1989 140.143 52.9449 140.39C52.6982 140.636 52.5748 141.065 52.5748 141.674V144.831H51.334V138.833H52.5748V139.704ZM58.1127 144.929C57.5467 144.929 57.0351 144.802 56.578 144.548C56.1208 144.286 55.7617 143.924 55.5004 143.459C55.2392 142.987 55.1086 142.443 55.1086 141.826C55.1086 141.217 55.2428 140.676 55.5113 140.205C55.7798 139.733 56.1462 139.37 56.6106 139.116C57.075 138.862 57.5939 138.735 58.1671 138.735C58.7404 138.735 59.2592 138.862 59.7236 139.116C60.188 139.37 60.5544 139.733 60.8229 140.205C61.0914 140.676 61.2256 141.217 61.2256 141.826C61.2256 142.436 61.0878 142.977 60.812 143.448C60.5363 143.92 60.159 144.286 59.6801 144.548C59.2084 144.802 58.6859 144.929 58.1127 144.929ZM58.1127 143.851C58.432 143.851 58.7295 143.775 59.0052 143.622C59.2882 143.47 59.5168 143.241 59.6909 142.937C59.8651 142.632 59.9522 142.262 59.9522 141.826C59.9522 141.391 59.8687 141.025 59.7018 140.727C59.5349 140.422 59.3136 140.194 59.0379 140.041C58.7621 139.889 58.4646 139.813 58.1454 139.813C57.8261 139.813 57.5286 139.889 57.2528 140.041C56.9843 140.194 56.7703 140.422 56.6106 140.727C56.451 141.025 56.3712 141.391 56.3712 141.826C56.3712 142.472 56.5345 142.973 56.861 143.329C57.1948 143.677 57.612 143.851 58.1127 143.851ZM63.6931 139.715C63.9035 139.439 64.1901 139.207 64.553 139.018C64.9158 138.83 65.3258 138.735 65.7829 138.735C66.3054 138.735 66.7806 138.866 67.2088 139.127C67.6441 139.381 67.9852 139.74 68.2319 140.205C68.4786 140.669 68.602 141.202 68.602 141.805C68.602 142.407 68.4786 142.948 68.2319 143.426C67.9852 143.898 67.6441 144.268 67.2088 144.537C66.7806 144.798 66.3054 144.929 65.7829 144.929C65.3258 144.929 64.9194 144.838 64.5638 144.656C64.2083 144.468 63.918 144.236 63.6931 143.96V147.682H62.4523V138.833H63.6931V139.715ZM67.3394 141.805C67.3394 141.391 67.2523 141.036 67.0781 140.738C66.9113 140.433 66.6863 140.205 66.4033 140.052C66.1276 139.893 65.8301 139.813 65.5108 139.813C65.1988 139.813 64.9013 139.893 64.6183 140.052C64.3425 140.212 64.1176 140.444 63.9434 140.749C63.7765 141.054 63.6931 141.413 63.6931 141.826C63.6931 142.24 63.7765 142.603 63.9434 142.915C64.1176 143.22 64.3425 143.452 64.6183 143.612C64.9013 143.771 65.1988 143.851 65.5108 143.851C65.8301 143.851 66.1276 143.771 66.4033 143.612C66.6863 143.445 66.9113 143.205 67.0781 142.893C67.2523 142.581 67.3394 142.218 67.3394 141.805ZM75.2578 144.929C74.6918 144.929 74.1802 144.802 73.7231 144.548C73.2659 144.286 72.9068 143.924 72.6455 143.459C72.3843 142.987 72.2537 142.443 72.2537 141.826C72.2537 141.217 72.3879 140.676 72.6564 140.205C72.9249 139.733 73.2913 139.37 73.7557 139.116C74.2201 138.862 74.739 138.735 75.3122 138.735C75.8855 138.735 76.4043 138.862 76.8687 139.116C77.3331 139.37 77.6995 139.733 77.968 140.205C78.2365 140.676 78.3707 141.217 78.3707 141.826C78.3707 142.436 78.2329 142.977 77.9571 143.448C77.6814 143.92 77.3041 144.286 76.8251 144.548C76.3535 144.802 75.831 144.929 75.2578 144.929ZM75.2578 143.851C75.5771 143.851 75.8746 143.775 76.1503 143.622C76.4333 143.47 76.6619 143.241 76.836 142.937C77.0102 142.632 77.0973 142.262 77.0973 141.826C77.0973 141.391 77.0138 141.025 76.8469 140.727C76.68 140.422 76.4587 140.194 76.183 140.041C75.9072 139.889 75.6097 139.813 75.2904 139.813C74.9712 139.813 74.6737 139.889 74.3979 140.041C74.1294 140.194 73.9154 140.422 73.7557 140.727C73.5961 141.025 73.5163 141.391 73.5163 141.826C73.5163 142.472 73.6795 142.973 74.0061 143.329C74.3399 143.677 74.7571 143.851 75.2578 143.851ZM80.8382 139.704C81.0196 139.399 81.259 139.163 81.5566 138.997C81.8613 138.822 82.2205 138.735 82.6341 138.735V140.02H82.3185C81.8323 140.02 81.4622 140.143 81.2083 140.39C80.9615 140.636 80.8382 141.065 80.8382 141.674V144.831H79.5974V138.833H80.8382V139.704ZM86.1885 141.826C86.1885 141.21 86.3118 140.669 86.5585 140.205C86.8125 139.733 87.1608 139.37 87.6034 139.116C88.0461 138.862 88.554 138.735 89.1273 138.735C89.8529 138.735 90.4515 138.909 90.9232 139.258C91.4021 139.599 91.725 140.089 91.8919 140.727H90.5531C90.4443 140.43 90.2701 140.197 90.0307 140.031C89.7912 139.864 89.4901 139.78 89.1273 139.78C88.6193 139.78 88.213 139.962 87.9082 140.324C87.6107 140.68 87.4619 141.181 87.4619 141.826C87.4619 142.472 87.6107 142.977 87.9082 143.339C88.213 143.702 88.6193 143.884 89.1273 143.884C89.8456 143.884 90.3209 143.568 90.5531 142.937H91.8919C91.7178 143.546 91.3912 144.032 90.9123 144.395C90.4334 144.751 89.8384 144.929 89.1273 144.929C88.554 144.929 88.0461 144.802 87.6034 144.548C87.1608 144.286 86.8125 143.924 86.5585 143.459C86.3118 142.987 86.1885 142.443 86.1885 141.826ZM94.3693 136.776V144.831H93.1285V136.776H94.3693ZM96.6297 138.039C96.4047 138.039 96.2161 137.962 96.0637 137.81C95.9113 137.658 95.8351 137.469 95.8351 137.244C95.8351 137.019 95.9113 136.831 96.0637 136.678C96.2161 136.526 96.4047 136.45 96.6297 136.45C96.8474 136.45 97.0324 136.526 97.1848 136.678C97.3372 136.831 97.4134 137.019 97.4134 137.244C97.4134 137.469 97.3372 137.658 97.1848 137.81C97.0324 137.962 96.8474 138.039 96.6297 138.039ZM97.2392 138.833V144.831H95.9984V138.833H97.2392ZM98.4547 141.826C98.4547 141.21 98.5781 140.669 98.8248 140.205C99.0787 139.733 99.427 139.37 99.8697 139.116C100.312 138.862 100.82 138.735 101.393 138.735C102.119 138.735 102.718 138.909 103.189 139.258C103.668 139.599 103.991 140.089 104.158 140.727H102.819C102.711 140.43 102.536 140.197 102.297 140.031C102.057 139.864 101.756 139.78 101.393 139.78C100.886 139.78 100.479 139.962 100.174 140.324C99.8769 140.68 99.7282 141.181 99.7282 141.826C99.7282 142.472 99.8769 142.977 100.174 143.339C100.479 143.702 100.886 143.884 101.393 143.884C102.112 143.884 102.587 143.568 102.819 142.937H104.158C103.984 143.546 103.657 144.032 103.179 144.395C102.7 144.751 102.105 144.929 101.393 144.929C100.82 144.929 100.312 144.802 99.8697 144.548C99.427 144.286 99.0787 143.924 98.8248 143.459C98.5781 142.987 98.4547 142.443 98.4547 141.826ZM107.768 141.837L110.532 144.831H108.856L106.636 142.251V144.831H105.395V136.776H106.636V141.456L108.812 138.833H110.532L107.768 141.837ZM115.697 139.846V143.165C115.697 143.39 115.747 143.553 115.849 143.655C115.958 143.749 116.139 143.797 116.393 143.797H117.155V144.831H116.175C115.617 144.831 115.189 144.7 114.891 144.439C114.594 144.178 114.445 143.753 114.445 143.165V139.846H113.737V138.833H114.445V137.342H115.697V138.833H117.155V139.846H115.697ZM120.9 144.929C120.334 144.929 119.823 144.802 119.365 144.548C118.908 144.286 118.549 143.924 118.288 143.459C118.027 142.987 117.896 142.443 117.896 141.826C117.896 141.217 118.03 140.676 118.299 140.205C118.567 139.733 118.934 139.37 119.398 139.116C119.862 138.862 120.381 138.735 120.955 138.735C121.528 138.735 122.047 138.862 122.511 139.116C122.975 139.37 123.342 139.733 123.61 140.205C123.879 140.676 124.013 141.217 124.013 141.826C124.013 142.436 123.875 142.977 123.599 143.448C123.324 143.92 122.946 144.286 122.467 144.548C121.996 144.802 121.473 144.929 120.9 144.929ZM120.9 143.851C121.219 143.851 121.517 143.775 121.793 143.622C122.076 143.47 122.304 143.241 122.478 142.937C122.652 142.632 122.74 142.262 122.74 141.826C122.74 141.391 122.656 141.025 122.489 140.727C122.322 140.422 122.101 140.194 121.825 140.041C121.55 139.889 121.252 139.813 120.933 139.813C120.613 139.813 120.316 139.889 120.04 140.041C119.772 140.194 119.558 140.422 119.398 140.727C119.238 141.025 119.159 141.391 119.159 141.826C119.159 142.472 119.322 142.973 119.648 143.329C119.982 143.677 120.399 143.851 120.9 143.851ZM130.244 144.929C129.772 144.929 129.348 144.845 128.97 144.678C128.6 144.504 128.307 144.272 128.089 143.982C127.871 143.684 127.755 143.354 127.741 142.991H129.025C129.047 143.245 129.166 143.459 129.384 143.633C129.609 143.8 129.888 143.884 130.222 143.884C130.57 143.884 130.839 143.818 131.028 143.688C131.224 143.55 131.321 143.376 131.321 143.165C131.321 142.94 131.213 142.773 130.995 142.665C130.785 142.556 130.447 142.436 129.983 142.305C129.533 142.182 129.166 142.062 128.883 141.946C128.6 141.83 128.354 141.652 128.143 141.413C127.94 141.173 127.838 140.858 127.838 140.466C127.838 140.147 127.933 139.856 128.121 139.595C128.31 139.327 128.579 139.116 128.927 138.964C129.282 138.811 129.689 138.735 130.146 138.735C130.828 138.735 131.376 138.909 131.79 139.258C132.21 139.599 132.435 140.067 132.464 140.662H131.224C131.202 140.393 131.093 140.179 130.897 140.02C130.701 139.86 130.436 139.78 130.102 139.78C129.776 139.78 129.526 139.842 129.351 139.965C129.177 140.089 129.09 140.252 129.09 140.455C129.09 140.615 129.148 140.749 129.264 140.858C129.38 140.967 129.522 141.054 129.689 141.119C129.856 141.177 130.102 141.253 130.429 141.348C130.864 141.464 131.22 141.583 131.496 141.707C131.779 141.823 132.022 141.997 132.225 142.229C132.428 142.461 132.533 142.77 132.541 143.154C132.541 143.495 132.446 143.8 132.258 144.069C132.069 144.337 131.8 144.548 131.452 144.7C131.111 144.852 130.708 144.929 130.244 144.929ZM139.378 141.685C139.378 141.91 139.363 142.113 139.334 142.294H134.752C134.788 142.773 134.966 143.158 135.285 143.448C135.605 143.738 135.996 143.884 136.461 143.884C137.128 143.884 137.6 143.604 137.876 143.046H139.215C139.033 143.597 138.703 144.051 138.224 144.406C137.753 144.754 137.165 144.929 136.461 144.929C135.888 144.929 135.372 144.802 134.915 144.548C134.465 144.286 134.11 143.924 133.849 143.459C133.595 142.987 133.468 142.443 133.468 141.826C133.468 141.21 133.591 140.669 133.838 140.205C134.092 139.733 134.444 139.37 134.894 139.116C135.351 138.862 135.873 138.735 136.461 138.735C137.027 138.735 137.531 138.859 137.974 139.105C138.416 139.352 138.761 139.7 139.008 140.15C139.255 140.593 139.378 141.104 139.378 141.685ZM138.083 141.293C138.075 140.836 137.912 140.47 137.593 140.194C137.274 139.918 136.878 139.78 136.406 139.78C135.978 139.78 135.612 139.918 135.307 140.194C135.002 140.462 134.821 140.829 134.763 141.293H138.083ZM141.84 136.776V144.831H140.599V136.776H141.84ZM148.966 141.685C148.966 141.91 148.951 142.113 148.922 142.294H144.34C144.376 142.773 144.554 143.158 144.873 143.448C145.192 143.738 145.584 143.884 146.049 143.884C146.716 143.884 147.188 143.604 147.464 143.046H148.802C148.621 143.597 148.291 144.051 147.812 144.406C147.34 144.754 146.752 144.929 146.049 144.929C145.475 144.929 144.96 144.802 144.503 144.548C144.053 144.286 143.698 143.924 143.436 143.459C143.182 142.987 143.055 142.443 143.055 141.826C143.055 141.21 143.179 140.669 143.425 140.205C143.679 139.733 144.031 139.37 144.481 139.116C144.938 138.862 145.461 138.735 146.049 138.735C146.615 138.735 147.119 138.859 147.561 139.105C148.004 139.352 148.349 139.7 148.595 140.15C148.842 140.593 148.966 141.104 148.966 141.685ZM147.67 141.293C147.663 140.836 147.5 140.47 147.181 140.194C146.861 139.918 146.466 139.78 145.994 139.78C145.566 139.78 145.2 139.918 144.895 140.194C144.59 140.462 144.409 140.829 144.351 141.293H147.67ZM149.773 141.826C149.773 141.21 149.896 140.669 150.143 140.205C150.397 139.733 150.745 139.37 151.188 139.116C151.631 138.862 152.139 138.735 152.712 138.735C153.437 138.735 154.036 138.909 154.508 139.258C154.987 139.599 155.31 140.089 155.476 140.727H154.138C154.029 140.43 153.855 140.197 153.615 140.031C153.376 139.864 153.075 139.78 152.712 139.78C152.204 139.78 151.798 139.962 151.493 140.324C151.195 140.68 151.047 141.181 151.047 141.826C151.047 142.472 151.195 142.977 151.493 143.339C151.798 143.702 152.204 143.884 152.712 143.884C153.43 143.884 153.906 143.568 154.138 142.937H155.476C155.302 143.546 154.976 144.032 154.497 144.395C154.018 144.751 153.423 144.929 152.712 144.929C152.139 144.929 151.631 144.802 151.188 144.548C150.745 144.286 150.397 143.924 150.143 143.459C149.896 142.987 149.773 142.443 149.773 141.826ZM158.161 139.846V143.165C158.161 143.39 158.211 143.553 158.313 143.655C158.422 143.749 158.603 143.797 158.857 143.797H159.619V144.831H158.64C158.081 144.831 157.653 144.7 157.355 144.439C157.058 144.178 156.909 143.753 156.909 143.165V139.846H156.201V138.833H156.909V137.342H158.161V138.833H159.619V139.846H158.161ZM163.177 141.805C163.177 141.202 163.3 140.669 163.547 140.205C163.801 139.74 164.142 139.381 164.57 139.127C165.005 138.866 165.484 138.735 166.007 138.735C166.478 138.735 166.888 138.83 167.237 139.018C167.592 139.2 167.875 139.428 168.086 139.704V138.833H169.337V144.831H168.086V143.938C167.875 144.221 167.588 144.457 167.226 144.646C166.863 144.834 166.449 144.929 165.985 144.929C165.47 144.929 164.998 144.798 164.57 144.537C164.142 144.268 163.801 143.898 163.547 143.426C163.3 142.948 163.177 142.407 163.177 141.805ZM168.086 141.826C168.086 141.413 167.998 141.054 167.824 140.749C167.657 140.444 167.436 140.212 167.16 140.052C166.885 139.893 166.587 139.813 166.268 139.813C165.949 139.813 165.651 139.893 165.375 140.052C165.1 140.205 164.875 140.433 164.7 140.738C164.534 141.036 164.45 141.391 164.45 141.805C164.45 142.218 164.534 142.581 164.7 142.893C164.875 143.205 165.1 143.445 165.375 143.612C165.658 143.771 165.956 143.851 166.268 143.851C166.587 143.851 166.885 143.771 167.16 143.612C167.436 143.452 167.657 143.22 167.824 142.915C167.998 142.603 168.086 142.24 168.086 141.826ZM176.309 139.846H175.198V144.831H173.947V139.846H173.239V138.833H173.947V138.409C173.947 137.719 174.128 137.219 174.491 136.907C174.861 136.587 175.438 136.428 176.222 136.428V137.462C175.844 137.462 175.579 137.534 175.427 137.68C175.275 137.817 175.198 138.06 175.198 138.409V138.833H176.309V139.846ZM178.04 138.039C177.815 138.039 177.626 137.962 177.474 137.81C177.321 137.658 177.245 137.469 177.245 137.244C177.245 137.019 177.321 136.831 177.474 136.678C177.626 136.526 177.815 136.45 178.04 136.45C178.257 136.45 178.442 136.526 178.595 136.678C178.747 136.831 178.823 137.019 178.823 137.244C178.823 137.469 178.747 137.658 178.595 137.81C178.442 137.962 178.257 138.039 178.04 138.039ZM178.649 138.833V144.831H177.408V138.833H178.649ZM181.519 136.776V144.831H180.278V136.776H181.519ZM188.645 141.685C188.645 141.91 188.63 142.113 188.601 142.294H184.019C184.055 142.773 184.233 143.158 184.552 143.448C184.872 143.738 185.263 143.884 185.728 143.884C186.395 143.884 186.867 143.604 187.143 143.046H188.482C188.3 143.597 187.97 144.051 187.491 144.406C187.019 144.754 186.432 144.929 185.728 144.929C185.155 144.929 184.639 144.802 184.182 144.548C183.732 144.286 183.377 143.924 183.116 143.459C182.862 142.987 182.735 142.443 182.735 141.826C182.735 141.21 182.858 140.669 183.105 140.205C183.359 139.733 183.711 139.37 184.16 139.116C184.618 138.862 185.14 138.735 185.728 138.735C186.294 138.735 186.798 138.859 187.241 139.105C187.683 139.352 188.028 139.7 188.275 140.15C188.521 140.593 188.645 141.104 188.645 141.685ZM187.35 141.293C187.342 140.836 187.179 140.47 186.86 140.194C186.54 139.918 186.145 139.78 185.673 139.78C185.245 139.78 184.879 139.918 184.574 140.194C184.269 140.462 184.088 140.829 184.03 141.293H187.35Z" fill="#FBFDFF"/>
<rect x="51.5547" y="158.831" width="129.488" height="21.5438" rx="10.7719" fill="url(#paint0_linear_16479_1516)"/>
<path d="M71.4036 171.709H68.5473L68.0565 173.103H66.8884L69.3325 166.271H70.6282L73.0723 173.103H71.8944L71.4036 171.709ZM71.0895 170.796L69.9804 167.625L68.8614 170.796H71.0895ZM76.3631 166.281C77.0895 166.281 77.7242 166.421 78.2674 166.703C78.817 166.978 79.2391 167.377 79.5336 167.9C79.8346 168.417 79.9851 169.022 79.9851 169.716C79.9851 170.41 79.8346 171.012 79.5336 171.522C79.2391 172.033 78.817 172.425 78.2674 172.7C77.7242 172.968 77.0895 173.103 76.3631 173.103H74.135V166.281H76.3631ZM76.3631 172.19C77.1615 172.19 77.7733 171.974 78.1987 171.542C78.624 171.11 78.8367 170.501 78.8367 169.716C78.8367 168.924 78.624 168.306 78.1987 167.861C77.7733 167.416 77.1615 167.194 76.3631 167.194H75.254V172.19H76.3631ZM83.3223 166.281C84.0486 166.281 84.6834 166.421 85.2265 166.703C85.7762 166.978 86.1983 167.377 86.4927 167.9C86.7937 168.417 86.9443 169.022 86.9443 169.716C86.9443 170.41 86.7937 171.012 86.4927 171.522C86.1983 172.033 85.7762 172.425 85.2265 172.7C84.6834 172.968 84.0486 173.103 83.3223 173.103H81.0941V166.281H83.3223ZM83.3223 172.19C84.1206 172.19 84.7325 171.974 85.1578 171.542C85.5832 171.11 85.7958 170.501 85.7958 169.716C85.7958 168.924 85.5832 168.306 85.1578 167.861C84.7325 167.416 84.1206 167.194 83.3223 167.194H82.2131V172.19H83.3223ZM92.8312 166.281C93.5576 166.281 94.1923 166.421 94.7354 166.703C95.2851 166.978 95.7072 167.377 96.0017 167.9C96.3027 168.417 96.4532 169.022 96.4532 169.716C96.4532 170.41 96.3027 171.012 96.0017 171.522C95.7072 172.033 95.2851 172.425 94.7354 172.7C94.1923 172.968 93.5576 173.103 92.8312 173.103H90.603V166.281H92.8312ZM92.8312 172.19C93.6295 172.19 94.2414 171.974 94.6667 171.542C95.0921 171.11 95.3047 170.501 95.3047 169.716C95.3047 168.924 95.0921 168.306 94.6667 167.861C94.2414 167.416 93.6295 167.194 92.8312 167.194H91.722V172.19H92.8312ZM100.674 173.171C100.039 173.171 99.4533 173.024 98.9167 172.73C98.3867 172.429 97.9646 172.013 97.6505 171.483C97.343 170.946 97.1892 170.344 97.1892 169.677C97.1892 169.009 97.343 168.411 97.6505 167.881C97.9646 167.351 98.3867 166.938 98.9167 166.644C99.4533 166.343 100.039 166.192 100.674 166.192C101.315 166.192 101.901 166.343 102.431 166.644C102.967 166.938 103.389 167.351 103.697 167.881C104.005 168.411 104.158 169.009 104.158 169.677C104.158 170.344 104.005 170.946 103.697 171.483C103.389 172.013 102.967 172.429 102.431 172.73C101.901 173.024 101.315 173.171 100.674 173.171ZM100.674 172.199C101.125 172.199 101.528 172.098 101.881 171.895C102.234 171.686 102.509 171.391 102.706 171.012C102.908 170.626 103.01 170.181 103.01 169.677C103.01 169.173 102.908 168.731 102.706 168.352C102.509 167.972 102.234 167.681 101.881 167.478C101.528 167.275 101.125 167.174 100.674 167.174C100.222 167.174 99.8198 167.275 99.4664 167.478C99.1131 167.681 98.835 167.972 98.6321 168.352C98.4358 168.731 98.3376 169.173 98.3376 169.677C98.3376 170.181 98.4358 170.626 98.6321 171.012C98.835 171.391 99.1131 171.686 99.4664 171.895C99.8198 172.098 100.222 172.199 100.674 172.199ZM104.886 169.677C104.886 169.009 105.04 168.411 105.348 167.881C105.662 167.351 106.084 166.938 106.614 166.644C107.151 166.343 107.736 166.192 108.371 166.192C109.097 166.192 109.742 166.372 110.305 166.732C110.874 167.086 111.286 167.589 111.541 168.244H110.197C110.02 167.884 109.775 167.616 109.461 167.439C109.146 167.262 108.783 167.174 108.371 167.174C107.919 167.174 107.517 167.275 107.164 167.478C106.81 167.681 106.532 167.972 106.329 168.352C106.133 168.731 106.035 169.173 106.035 169.677C106.035 170.181 106.133 170.622 106.329 171.002C106.532 171.382 106.81 171.676 107.164 171.885C107.517 172.088 107.919 172.19 108.371 172.19C108.783 172.19 109.146 172.101 109.461 171.925C109.775 171.748 110.02 171.48 110.197 171.12H111.541C111.286 171.774 110.874 172.278 110.305 172.631C109.742 172.985 109.097 173.161 108.371 173.161C107.73 173.161 107.144 173.014 106.614 172.72C106.084 172.419 105.662 172.003 105.348 171.473C105.04 170.943 104.886 170.344 104.886 169.677ZM113.96 166.281V170.629C113.96 171.146 114.095 171.535 114.363 171.797C114.638 172.059 115.017 172.19 115.501 172.19C115.992 172.19 116.372 172.059 116.64 171.797C116.915 171.535 117.052 171.146 117.052 170.629V166.281H118.171V170.609C118.171 171.166 118.05 171.637 117.808 172.023C117.566 172.409 117.242 172.697 116.836 172.887C116.431 173.076 115.982 173.171 115.492 173.171C115.001 173.171 114.553 173.076 114.147 172.887C113.748 172.697 113.43 172.409 113.195 172.023C112.959 171.637 112.841 171.166 112.841 170.609V166.281H113.96ZM126.813 166.281V173.103H125.694V168.43L123.613 173.103H122.838L120.747 168.43V173.103H119.628V166.281H120.836L123.231 171.63L125.616 166.281H126.813ZM129.403 167.184V169.186H131.759V170.099H129.403V172.19H132.053V173.103H128.284V166.271H132.053V167.184H129.403ZM139.036 173.103H137.917L134.55 168.008V173.103H133.432V166.271H134.55L137.917 171.355V166.271H139.036V173.103ZM144.913 166.281V167.194H143.097V173.103H141.978V167.194H140.152V166.281H144.913Z" fill="#FBFDFF"/>
<path d="M159.071 170.818L156.605 168.352L157.428 167.531L159.071 169.174L160.714 167.531L161.536 168.352L159.071 170.818Z" fill="white"/>
<rect x="36.3008" y="75.3306" width="160" height="113.544" rx="4.5" stroke="#0389FF" stroke-dasharray="2 2"/>
<rect x="22.1211" y="23.8975" width="188.36" height="184.41" rx="21.5" stroke="white" stroke-opacity="0.1"/>
</g>
</g>
<defs>
<filter id="filter0_b_16479_1516" x="-3.5" y="-3.67578" width="239" height="236.682" filterUnits="userSpaceOnUse" color-interpolation-filters="sRGB">
<feFlood flood-opacity="0" result="BackgroundImageFix"/>
<feGaussianBlur in="BackgroundImageFix" stdDeviation="2"/>
<feComposite in2="SourceAlpha" operator="in" result="effect1_backgroundBlur_16479_1516"/>
<feBlend mode="normal" in="SourceGraphic" in2="effect1_backgroundBlur_16479_1516" result="shape"/>
</filter>
<filter id="filter1_b_16479_1516" x="-41.3789" y="-39.6025" width="315.359" height="311.41" filterUnits="userSpaceOnUse" color-interpolation-filters="sRGB">
<feFlood flood-opacity="0" result="BackgroundImageFix"/>
<feGaussianBlur in="BackgroundImageFix" stdDeviation="31.5"/>
<feComposite in2="SourceAlpha" operator="in" result="effect1_backgroundBlur_16479_1516"/>
<feBlend mode="normal" in="SourceGraphic" in2="effect1_backgroundBlur_16479_1516" result="shape"/>
</filter>
<linearGradient id="paint0_linear_16479_1516" x1="51.5547" y1="158.831" x2="127.037" y2="234.352" gradientUnits="userSpaceOnUse">
<stop stop-color="#0389FF"/>
<stop offset="1" stop-color="#0069E3"/>
</linearGradient>
</defs>
</svg>
