<svg width="232" height="230" viewBox="0 0 232 230" fill="none" xmlns="http://www.w3.org/2000/svg">
<g filter="url(#filter0_b_16479_1604)">
<rect x="0.5" y="0.324219" width="231" height="228.682" rx="15" fill="#0389FF" fill-opacity="0.12"/>
<g filter="url(#filter1_b_16479_1604)">
<g clip-path="url(#clip0_16479_1604)">
<rect x="21.3203" y="23" width="189.36" height="185.41" rx="22" fill="black" fill-opacity="0.33"/>
<path d="M44.0293 45.953C44.0293 46.5504 43.8853 47.1104 43.5972 47.633C43.3199 48.1557 42.8773 48.577 42.2693 48.897C41.6719 49.217 40.9146 49.377 39.9973 49.377H38.1253V53.665H35.8853V42.497H39.9973C40.8613 42.497 41.5973 42.6464 42.2053 42.945C42.8133 43.2437 43.2666 43.6544 43.5653 44.177C43.8746 44.6997 44.0293 45.2917 44.0293 45.953ZM39.9013 47.569C40.5199 47.569 40.9786 47.4304 41.2773 47.153C41.5759 46.865 41.7253 46.465 41.7253 45.953C41.7253 44.865 41.1173 44.321 39.9013 44.321H38.1253V47.569H39.9013ZM47.8596 46.177C48.1476 45.7077 48.521 45.3397 48.9796 45.073C49.449 44.8064 49.9823 44.673 50.5796 44.673V47.025H49.9876C49.2836 47.025 48.7503 47.1904 48.3876 47.521C48.0356 47.8517 47.8596 48.4277 47.8596 49.249V53.665H45.6196V44.801H47.8596V46.177ZM51.5124 49.201C51.5124 48.305 51.6884 47.5104 52.0404 46.817C52.403 46.1237 52.8884 45.5904 53.4964 45.217C54.115 44.8437 54.803 44.657 55.5604 44.657C56.2217 44.657 56.7977 44.7904 57.2884 45.057C57.7897 45.3237 58.1897 45.6597 58.4884 46.065V44.801H60.7444V53.665H58.4884V52.369C58.2004 52.785 57.8004 53.1317 57.2884 53.409C56.787 53.6757 56.2057 53.809 55.5444 53.809C54.7977 53.809 54.115 53.617 53.4964 53.233C52.8884 52.849 52.403 52.3104 52.0404 51.617C51.6884 50.913 51.5124 50.1077 51.5124 49.201ZM58.4884 49.233C58.4884 48.689 58.3817 48.225 58.1684 47.841C57.955 47.4464 57.667 47.1477 57.3044 46.945C56.9417 46.7317 56.5524 46.625 56.1364 46.625C55.7204 46.625 55.3364 46.7264 54.9844 46.929C54.6324 47.1317 54.3444 47.4304 54.1204 47.825C53.907 48.209 53.8004 48.6677 53.8004 49.201C53.8004 49.7344 53.907 50.2037 54.1204 50.609C54.3444 51.0037 54.6324 51.3077 54.9844 51.521C55.347 51.7344 55.731 51.841 56.1364 51.841C56.5524 51.841 56.9417 51.7397 57.3044 51.537C57.667 51.3237 57.955 51.025 58.1684 50.641C58.3817 50.2464 58.4884 49.777 58.4884 49.233ZM62.3561 49.233C62.3561 48.3157 62.5428 47.5157 62.9161 46.833C63.2895 46.1397 63.8068 45.6064 64.4681 45.233C65.1295 44.849 65.8868 44.657 66.7401 44.657C67.8388 44.657 68.7455 44.9344 69.4601 45.489C70.1855 46.033 70.6708 46.801 70.9161 47.793H68.5001C68.3721 47.409 68.1535 47.1104 67.8441 46.897C67.5455 46.673 67.1721 46.561 66.7241 46.561C66.0841 46.561 65.5775 46.7957 65.2041 47.265C64.8308 47.7237 64.6441 48.3797 64.6441 49.233C64.6441 50.0757 64.8308 50.7317 65.2041 51.201C65.5775 51.6597 66.0841 51.889 66.7241 51.889C67.6308 51.889 68.2228 51.4837 68.5001 50.673H70.9161C70.6708 51.633 70.1855 52.3957 69.4601 52.961C68.7348 53.5264 67.8281 53.809 66.7401 53.809C65.8868 53.809 65.1295 53.6224 64.4681 53.249C63.8068 52.865 63.2895 52.3317 62.9161 51.649C62.5428 50.9557 62.3561 50.1504 62.3561 49.233ZM75.1651 46.641V50.929C75.1651 51.2277 75.2345 51.4464 75.3731 51.585C75.5225 51.713 75.7678 51.777 76.1091 51.777H77.1491V53.665H75.7411C73.8531 53.665 72.9091 52.7477 72.9091 50.913V46.641H71.8531V44.801H72.9091V42.609H75.1651V44.801H77.1491V46.641H75.1651ZM79.8963 43.745C79.5016 43.745 79.1709 43.6224 78.9043 43.377C78.6483 43.121 78.5203 42.8064 78.5203 42.433C78.5203 42.0597 78.6483 41.7504 78.9043 41.505C79.1709 41.249 79.5016 41.121 79.8963 41.121C80.2909 41.121 80.6163 41.249 80.8723 41.505C81.1389 41.7504 81.2723 42.0597 81.2723 42.433C81.2723 42.8064 81.1389 43.121 80.8723 43.377C80.6163 43.6224 80.2909 43.745 79.8963 43.745ZM81.0003 44.801V53.665H78.7603V44.801H81.0003ZM82.6374 49.233C82.6374 48.3157 82.824 47.5157 83.1974 46.833C83.5707 46.1397 84.088 45.6064 84.7494 45.233C85.4107 44.849 86.168 44.657 87.0214 44.657C88.12 44.657 89.0267 44.9344 89.7414 45.489C90.4667 46.033 90.952 46.801 91.1974 47.793H88.7814C88.6534 47.409 88.4347 47.1104 88.1254 46.897C87.8267 46.673 87.4534 46.561 87.0054 46.561C86.3654 46.561 85.8587 46.7957 85.4854 47.265C85.112 47.7237 84.9254 48.3797 84.9254 49.233C84.9254 50.0757 85.112 50.7317 85.4854 51.201C85.8587 51.6597 86.3654 51.889 87.0054 51.889C87.912 51.889 88.504 51.4837 88.7814 50.673H91.1974C90.952 51.633 90.4667 52.3957 89.7414 52.961C89.016 53.5264 88.1094 53.809 87.0214 53.809C86.168 53.809 85.4107 53.6224 84.7494 53.249C84.088 52.865 83.5707 52.3317 83.1974 51.649C82.824 50.9557 82.6374 50.1504 82.6374 49.233ZM101.078 49.041C101.078 49.361 101.057 49.649 101.014 49.905H94.5344C94.5877 50.545 94.8117 51.0464 95.2064 51.409C95.601 51.7717 96.0864 51.953 96.6624 51.953C97.4944 51.953 98.0864 51.5957 98.4384 50.881H100.854C100.598 51.7344 100.108 52.4384 99.3824 52.993C98.657 53.537 97.7664 53.809 96.7104 53.809C95.857 53.809 95.089 53.6224 94.4064 53.249C93.7344 52.865 93.2064 52.3264 92.8224 51.633C92.449 50.9397 92.2624 50.1397 92.2624 49.233C92.2624 48.3157 92.449 47.5104 92.8224 46.817C93.1957 46.1237 93.7184 45.5904 94.3904 45.217C95.0624 44.8437 95.8357 44.657 96.7104 44.657C97.553 44.657 98.305 44.8384 98.9664 45.201C99.6384 45.5637 100.156 46.081 100.518 46.753C100.892 47.4144 101.078 48.177 101.078 49.041ZM98.7584 48.401C98.7477 47.825 98.5397 47.3664 98.1344 47.025C97.729 46.673 97.233 46.497 96.6464 46.497C96.0917 46.497 95.6224 46.6677 95.2384 47.009C94.865 47.3397 94.6357 47.8037 94.5504 48.401H98.7584ZM113.422 42.497V44.305H108.766V47.169H112.334V48.945H108.766V53.665H106.526V42.497H113.422ZM114.434 49.201C114.434 48.305 114.61 47.5104 114.962 46.817C115.325 46.1237 115.81 45.5904 116.418 45.217C117.037 44.8437 117.725 44.657 118.482 44.657C119.144 44.657 119.72 44.7904 120.21 45.057C120.712 45.3237 121.112 45.6597 121.41 46.065V44.801H123.666V53.665H121.41V52.369C121.122 52.785 120.722 53.1317 120.21 53.409C119.709 53.6757 119.128 53.809 118.466 53.809C117.72 53.809 117.037 53.617 116.418 53.233C115.81 52.849 115.325 52.3104 114.962 51.617C114.61 50.913 114.434 50.1077 114.434 49.201ZM121.41 49.233C121.41 48.689 121.304 48.225 121.09 47.841C120.877 47.4464 120.589 47.1477 120.226 46.945C119.864 46.7317 119.474 46.625 119.058 46.625C118.642 46.625 118.258 46.7264 117.906 46.929C117.554 47.1317 117.266 47.4304 117.042 47.825C116.829 48.209 116.722 48.6677 116.722 49.201C116.722 49.7344 116.829 50.2037 117.042 50.609C117.266 51.0037 117.554 51.3077 117.906 51.521C118.269 51.7344 118.653 51.841 119.058 51.841C119.474 51.841 119.864 51.7397 120.226 51.537C120.589 51.3237 120.877 51.025 121.09 50.641C121.304 50.2464 121.41 49.777 121.41 49.233ZM125.278 49.233C125.278 48.3157 125.465 47.5157 125.838 46.833C126.211 46.1397 126.729 45.6064 127.39 45.233C128.051 44.849 128.809 44.657 129.662 44.657C130.761 44.657 131.667 44.9344 132.382 45.489C133.107 46.033 133.593 46.801 133.838 47.793H131.422C131.294 47.409 131.075 47.1104 130.766 46.897C130.467 46.673 130.094 46.561 129.646 46.561C129.006 46.561 128.499 46.7957 128.126 47.265C127.753 47.7237 127.566 48.3797 127.566 49.233C127.566 50.0757 127.753 50.7317 128.126 51.201C128.499 51.6597 129.006 51.889 129.646 51.889C130.553 51.889 131.145 51.4837 131.422 50.673H133.838C133.593 51.633 133.107 52.3957 132.382 52.961C131.657 53.5264 130.75 53.809 129.662 53.809C128.809 53.809 128.051 53.6224 127.39 53.249C126.729 52.865 126.211 52.3317 125.838 51.649C125.465 50.9557 125.278 50.1504 125.278 49.233ZM136.615 43.745C136.22 43.745 135.89 43.6224 135.623 43.377C135.367 43.121 135.239 42.8064 135.239 42.433C135.239 42.0597 135.367 41.7504 135.623 41.505C135.89 41.249 136.22 41.121 136.615 41.121C137.01 41.121 137.335 41.249 137.591 41.505C137.858 41.7504 137.991 42.0597 137.991 42.433C137.991 42.8064 137.858 43.121 137.591 43.377C137.335 43.6224 137.01 43.745 136.615 43.745ZM137.719 44.801V53.665H135.479V44.801H137.719ZM142.172 41.825V53.665H139.932V41.825H142.172ZM145.521 43.745C145.127 43.745 144.796 43.6224 144.529 43.377C144.273 43.121 144.145 42.8064 144.145 42.433C144.145 42.0597 144.273 41.7504 144.529 41.505C144.796 41.249 145.127 41.121 145.521 41.121C145.916 41.121 146.241 41.249 146.497 41.505C146.764 41.7504 146.897 42.0597 146.897 42.433C146.897 42.8064 146.764 43.121 146.497 43.377C146.241 43.6224 145.916 43.745 145.521 43.745ZM146.625 44.801V53.665H144.385V44.801H146.625ZM151.446 46.641V50.929C151.446 51.2277 151.516 51.4464 151.654 51.585C151.804 51.713 152.049 51.777 152.39 51.777H153.43V53.665H152.022C150.134 53.665 149.19 52.7477 149.19 50.913V46.641H148.134V44.801H149.19V42.609H151.446V44.801H153.43V46.641H151.446ZM154.465 49.201C154.465 48.305 154.641 47.5104 154.993 46.817C155.356 46.1237 155.842 45.5904 156.45 45.217C157.068 44.8437 157.756 44.657 158.514 44.657C159.175 44.657 159.751 44.7904 160.242 45.057C160.743 45.3237 161.143 45.6597 161.442 46.065V44.801H163.698V53.665H161.442V52.369C161.154 52.785 160.754 53.1317 160.242 53.409C159.74 53.6757 159.159 53.809 158.498 53.809C157.751 53.809 157.068 53.617 156.45 53.233C155.842 52.849 155.356 52.3104 154.993 51.617C154.641 50.913 154.465 50.1077 154.465 49.201ZM161.442 49.233C161.442 48.689 161.335 48.225 161.122 47.841C160.908 47.4464 160.62 47.1477 160.258 46.945C159.895 46.7317 159.506 46.625 159.09 46.625C158.674 46.625 158.29 46.7264 157.938 46.929C157.586 47.1317 157.298 47.4304 157.074 47.825C156.86 48.209 156.754 48.6677 156.754 49.201C156.754 49.7344 156.86 50.2037 157.074 50.609C157.298 51.0037 157.586 51.3077 157.938 51.521C158.3 51.7344 158.684 51.841 159.09 51.841C159.506 51.841 159.895 51.7397 160.258 51.537C160.62 51.3237 160.908 51.025 161.122 50.641C161.335 50.2464 161.442 49.777 161.442 49.233ZM168.493 46.641V50.929C168.493 51.2277 168.563 51.4464 168.701 51.585C168.851 51.713 169.096 51.777 169.437 51.777H170.477V53.665H169.069C167.181 53.665 166.237 52.7477 166.237 50.913V46.641H165.181V44.801H166.237V42.609H168.493V44.801H170.477V46.641H168.493ZM173.224 43.745C172.83 43.745 172.499 43.6224 172.232 43.377C171.976 43.121 171.848 42.8064 171.848 42.433C171.848 42.0597 171.976 41.7504 172.232 41.505C172.499 41.249 172.83 41.121 173.224 41.121C173.619 41.121 173.944 41.249 174.2 41.505C174.467 41.7504 174.6 42.0597 174.6 42.433C174.6 42.8064 174.467 43.121 174.2 43.377C173.944 43.6224 173.619 43.745 173.224 43.745ZM174.328 44.801V53.665H172.088V44.801H174.328ZM180.478 53.809C179.624 53.809 178.856 53.6224 178.174 53.249C177.491 52.865 176.952 52.3264 176.558 51.633C176.174 50.9397 175.982 50.1397 175.982 49.233C175.982 48.3264 176.179 47.5264 176.574 46.833C176.979 46.1397 177.528 45.6064 178.222 45.233C178.915 44.849 179.688 44.657 180.542 44.657C181.395 44.657 182.168 44.849 182.862 45.233C183.555 45.6064 184.099 46.1397 184.494 46.833C184.899 47.5264 185.102 48.3264 185.102 49.233C185.102 50.1397 184.894 50.9397 184.477 51.633C184.072 52.3264 183.518 52.865 182.814 53.249C182.12 53.6224 181.342 53.809 180.478 53.809ZM180.478 51.857C180.883 51.857 181.262 51.761 181.614 51.569C181.976 51.3664 182.264 51.0677 182.478 50.673C182.691 50.2784 182.798 49.7984 182.798 49.233C182.798 48.3904 182.574 47.745 182.126 47.297C181.688 46.8384 181.15 46.609 180.51 46.609C179.87 46.609 179.331 46.8384 178.894 47.297C178.467 47.745 178.254 48.3904 178.254 49.233C178.254 50.0757 178.462 50.7264 178.878 51.185C179.304 51.633 179.838 51.857 180.478 51.857ZM191.657 44.673C192.713 44.673 193.566 45.009 194.217 45.681C194.867 46.3424 195.193 47.2704 195.193 48.465V53.665H192.953V48.769C192.953 48.065 192.777 47.5264 192.425 47.153C192.073 46.769 191.593 46.577 190.985 46.577C190.366 46.577 189.875 46.769 189.513 47.153C189.161 47.5264 188.985 48.065 188.985 48.769V53.665H186.745V44.801H188.985V45.905C189.283 45.521 189.662 45.2224 190.121 45.009C190.59 44.785 191.102 44.673 191.657 44.673Z" fill="#FBFDFF"/>
<path d="M38.5266 80.916C37.9426 80.916 37.4146 80.816 36.9426 80.616C36.4786 80.416 36.1106 80.128 35.8386 79.752C35.5666 79.376 35.4266 78.932 35.4186 78.42H37.2186C37.2426 78.764 37.3626 79.036 37.5786 79.236C37.8026 79.436 38.1066 79.536 38.4906 79.536C38.8826 79.536 39.1906 79.444 39.4146 79.26C39.6386 79.068 39.7506 78.82 39.7506 78.516C39.7506 78.268 39.6746 78.064 39.5226 77.904C39.3706 77.744 39.1786 77.62 38.9466 77.532C38.7226 77.436 38.4106 77.332 38.0106 77.22C37.4666 77.06 37.0226 76.904 36.6786 76.752C36.3426 76.592 36.0506 76.356 35.8026 76.044C35.5626 75.724 35.4426 75.3 35.4426 74.772C35.4426 74.276 35.5666 73.844 35.8146 73.476C36.0626 73.108 36.4106 72.828 36.8586 72.636C37.3066 72.436 37.8186 72.336 38.3946 72.336C39.2586 72.336 39.9586 72.548 40.4946 72.972C41.0386 73.388 41.3386 73.972 41.3946 74.724H39.5466C39.5306 74.436 39.4066 74.2 39.1746 74.016C38.9506 73.824 38.6506 73.728 38.2746 73.728C37.9466 73.728 37.6826 73.812 37.4826 73.98C37.2906 74.148 37.1946 74.392 37.1946 74.712C37.1946 74.936 37.2666 75.124 37.4106 75.276C37.5626 75.42 37.7466 75.54 37.9626 75.636C38.1866 75.724 38.4986 75.828 38.8986 75.948C39.4426 76.108 39.8866 76.268 40.2306 76.428C40.5746 76.588 40.8706 76.828 41.1186 77.148C41.3666 77.468 41.4906 77.888 41.4906 78.408C41.4906 78.856 41.3746 79.272 41.1426 79.656C40.9106 80.04 40.5706 80.348 40.1226 80.58C39.6746 80.804 39.1426 80.916 38.5266 80.916ZM42.5151 77.484C42.5151 76.812 42.6471 76.216 42.9111 75.696C43.1831 75.176 43.5471 74.776 44.0031 74.496C44.4671 74.216 44.9831 74.076 45.5511 74.076C46.0471 74.076 46.4791 74.176 46.8471 74.376C47.2231 74.576 47.5231 74.828 47.7471 75.132V74.184H49.4391V80.832H47.7471V79.86C47.5311 80.172 47.2311 80.432 46.8471 80.64C46.4711 80.84 46.0351 80.94 45.5391 80.94C44.9791 80.94 44.4671 80.796 44.0031 80.508C43.5471 80.22 43.1831 79.816 42.9111 79.296C42.6471 78.768 42.5151 78.164 42.5151 77.484ZM47.7471 77.508C47.7471 77.1 47.6671 76.752 47.5071 76.464C47.3471 76.168 47.1311 75.944 46.8591 75.792C46.5871 75.632 46.2951 75.552 45.9831 75.552C45.6711 75.552 45.3831 75.628 45.1191 75.78C44.8551 75.932 44.6391 76.156 44.4711 76.452C44.3111 76.74 44.2311 77.084 44.2311 77.484C44.2311 77.884 44.3111 78.236 44.4711 78.54C44.6391 78.836 44.8551 79.064 45.1191 79.224C45.3911 79.384 45.6791 79.464 45.9831 79.464C46.2951 79.464 46.5871 79.388 46.8591 79.236C47.1311 79.076 47.3471 78.852 47.5071 78.564C47.6671 78.268 47.7471 77.916 47.7471 77.508ZM59.336 74.088C60.152 74.088 60.808 74.34 61.304 74.844C61.808 75.34 62.06 76.036 62.06 76.932V80.832H60.38V77.16C60.38 76.64 60.248 76.244 59.984 75.972C59.72 75.692 59.36 75.552 58.904 75.552C58.448 75.552 58.084 75.692 57.812 75.972C57.548 76.244 57.416 76.64 57.416 77.16V80.832H55.736V77.16C55.736 76.64 55.604 76.244 55.34 75.972C55.076 75.692 54.716 75.552 54.26 75.552C53.796 75.552 53.428 75.692 53.156 75.972C52.892 76.244 52.76 76.64 52.76 77.16V80.832H51.08V74.184H52.76V74.988C52.976 74.708 53.252 74.488 53.588 74.328C53.932 74.168 54.308 74.088 54.716 74.088C55.236 74.088 55.7 74.2 56.108 74.424C56.516 74.64 56.832 74.952 57.056 75.36C57.272 74.976 57.584 74.668 57.992 74.436C58.408 74.204 58.856 74.088 59.336 74.088ZM65.3342 75.144C65.5502 74.84 65.8462 74.588 66.2222 74.388C66.6062 74.18 67.0422 74.076 67.5302 74.076C68.0982 74.076 68.6102 74.216 69.0662 74.496C69.5302 74.776 69.8942 75.176 70.1582 75.696C70.4302 76.208 70.5662 76.804 70.5662 77.484C70.5662 78.164 70.4302 78.768 70.1582 79.296C69.8942 79.816 69.5302 80.22 69.0662 80.508C68.6102 80.796 68.0982 80.94 67.5302 80.94C67.0422 80.94 66.6102 80.84 66.2342 80.64C65.8662 80.44 65.5662 80.188 65.3342 79.884V84H63.6542V74.184H65.3342V75.144ZM68.8502 77.484C68.8502 77.084 68.7662 76.74 68.5982 76.452C68.4382 76.156 68.2222 75.932 67.9502 75.78C67.6862 75.628 67.3982 75.552 67.0862 75.552C66.7822 75.552 66.4942 75.632 66.2222 75.792C65.9582 75.944 65.7422 76.168 65.5742 76.464C65.4142 76.76 65.3342 77.108 65.3342 77.508C65.3342 77.908 65.4142 78.256 65.5742 78.552C65.7422 78.848 65.9582 79.076 66.2222 79.236C66.4942 79.388 66.7822 79.464 67.0862 79.464C67.3982 79.464 67.6862 79.384 67.9502 79.224C68.2222 79.064 68.4382 78.836 68.5982 78.54C68.7662 78.244 68.8502 77.892 68.8502 77.484ZM73.467 71.952V80.832H71.787V71.952H73.467ZM81.3068 77.364C81.3068 77.604 81.2908 77.82 81.2588 78.012H76.3988C76.4388 78.492 76.6068 78.868 76.9028 79.14C77.1988 79.412 77.5628 79.548 77.9948 79.548C78.6188 79.548 79.0628 79.28 79.3268 78.744H81.1388C80.9468 79.384 80.5788 79.912 80.0348 80.328C79.4908 80.736 78.8228 80.94 78.0308 80.94C77.3908 80.94 76.8148 80.8 76.3028 80.52C75.7988 80.232 75.4028 79.828 75.1148 79.308C74.8348 78.788 74.6948 78.188 74.6948 77.508C74.6948 76.82 74.8348 76.216 75.1148 75.696C75.3948 75.176 75.7868 74.776 76.2908 74.496C76.7948 74.216 77.3748 74.076 78.0308 74.076C78.6628 74.076 79.2268 74.212 79.7228 74.484C80.2268 74.756 80.6148 75.144 80.8868 75.648C81.1668 76.144 81.3068 76.716 81.3068 77.364ZM79.5668 76.884C79.5588 76.452 79.4028 76.108 79.0988 75.852C78.7948 75.588 78.4228 75.456 77.9828 75.456C77.5668 75.456 77.2148 75.584 76.9268 75.84C76.6468 76.088 76.4748 76.436 76.4108 76.884H79.5668ZM94.5245 72.456V80.832H92.8445V75.384L90.6005 80.832H89.3285L87.0725 75.384V80.832H85.3925V72.456H87.3005L89.9645 78.684L92.6285 72.456H94.5245ZM102.365 77.364C102.365 77.604 102.349 77.82 102.317 78.012H97.4574C97.4974 78.492 97.6654 78.868 97.9614 79.14C98.2574 79.412 98.6214 79.548 99.0534 79.548C99.6774 79.548 100.121 79.28 100.385 78.744H102.197C102.005 79.384 101.637 79.912 101.093 80.328C100.549 80.736 99.8814 80.94 99.0894 80.94C98.4494 80.94 97.8734 80.8 97.3614 80.52C96.8574 80.232 96.4614 79.828 96.1734 79.308C95.8934 78.788 95.7534 78.188 95.7534 77.508C95.7534 76.82 95.8934 76.216 96.1734 75.696C96.4534 75.176 96.8454 74.776 97.3494 74.496C97.8534 74.216 98.4334 74.076 99.0894 74.076C99.7214 74.076 100.285 74.212 100.781 74.484C101.285 74.756 101.673 75.144 101.945 75.648C102.225 76.144 102.365 76.716 102.365 77.364ZM100.625 76.884C100.617 76.452 100.461 76.108 100.157 75.852C99.8534 75.588 99.4814 75.456 99.0414 75.456C98.6254 75.456 98.2734 75.584 97.9854 75.84C97.7054 76.088 97.5334 76.436 97.4694 76.884H100.625ZM103.16 77.484C103.16 76.812 103.292 76.216 103.556 75.696C103.828 75.176 104.196 74.776 104.66 74.496C105.124 74.216 105.64 74.076 106.208 74.076C106.64 74.076 107.052 74.172 107.444 74.364C107.836 74.548 108.148 74.796 108.38 75.108V71.952H110.084V80.832H108.38V79.848C108.172 80.176 107.88 80.44 107.504 80.64C107.128 80.84 106.692 80.94 106.196 80.94C105.636 80.94 105.124 80.796 104.66 80.508C104.196 80.22 103.828 79.816 103.556 79.296C103.292 78.768 103.16 78.164 103.16 77.484ZM108.392 77.508C108.392 77.1 108.312 76.752 108.152 76.464C107.992 76.168 107.776 75.944 107.504 75.792C107.232 75.632 106.94 75.552 106.628 75.552C106.316 75.552 106.028 75.628 105.764 75.78C105.5 75.932 105.284 76.156 105.116 76.452C104.956 76.74 104.876 77.084 104.876 77.484C104.876 77.884 104.956 78.236 105.116 78.54C105.284 78.836 105.5 79.064 105.764 79.224C106.036 79.384 106.324 79.464 106.628 79.464C106.94 79.464 107.232 79.388 107.504 79.236C107.776 79.076 107.992 78.852 108.152 78.564C108.312 78.268 108.392 77.916 108.392 77.508ZM112.576 73.392C112.28 73.392 112.032 73.3 111.832 73.116C111.64 72.924 111.544 72.688 111.544 72.408C111.544 72.128 111.64 71.896 111.832 71.712C112.032 71.52 112.28 71.424 112.576 71.424C112.872 71.424 113.116 71.52 113.308 71.712C113.508 71.896 113.608 72.128 113.608 72.408C113.608 72.688 113.508 72.924 113.308 73.116C113.116 73.3 112.872 73.392 112.576 73.392ZM113.404 74.184V80.832H111.724V74.184H113.404ZM114.632 77.508C114.632 76.82 114.772 76.22 115.052 75.708C115.332 75.188 115.72 74.788 116.216 74.508C116.712 74.22 117.28 74.076 117.92 74.076C118.744 74.076 119.424 74.284 119.96 74.7C120.504 75.108 120.868 75.684 121.052 76.428H119.24C119.144 76.14 118.98 75.916 118.748 75.756C118.524 75.588 118.244 75.504 117.908 75.504C117.428 75.504 117.048 75.68 116.768 76.032C116.488 76.376 116.348 76.868 116.348 77.508C116.348 78.14 116.488 78.632 116.768 78.984C117.048 79.328 117.428 79.5 117.908 79.5C118.588 79.5 119.032 79.196 119.24 78.588H121.052C120.868 79.308 120.504 79.88 119.96 80.304C119.416 80.728 118.736 80.94 117.92 80.94C117.28 80.94 116.712 80.8 116.216 80.52C115.72 80.232 115.332 79.832 115.052 79.32C114.772 78.8 114.632 78.196 114.632 77.508ZM121.851 77.484C121.851 76.812 121.983 76.216 122.247 75.696C122.519 75.176 122.883 74.776 123.339 74.496C123.803 74.216 124.319 74.076 124.887 74.076C125.383 74.076 125.815 74.176 126.183 74.376C126.559 74.576 126.859 74.828 127.083 75.132V74.184H128.775V80.832H127.083V79.86C126.867 80.172 126.567 80.432 126.183 80.64C125.807 80.84 125.371 80.94 124.875 80.94C124.315 80.94 123.803 80.796 123.339 80.508C122.883 80.22 122.519 79.816 122.247 79.296C121.983 78.768 121.851 78.164 121.851 77.484ZM127.083 77.508C127.083 77.1 127.003 76.752 126.843 76.464C126.683 76.168 126.467 75.944 126.195 75.792C125.923 75.632 125.631 75.552 125.319 75.552C125.007 75.552 124.719 75.628 124.455 75.78C124.191 75.932 123.975 76.156 123.807 76.452C123.647 76.74 123.567 77.084 123.567 77.484C123.567 77.884 123.647 78.236 123.807 78.54C123.975 78.836 124.191 79.064 124.455 79.224C124.727 79.384 125.015 79.464 125.319 79.464C125.631 79.464 125.923 79.388 126.195 79.236C126.467 79.076 126.683 78.852 126.843 78.564C127.003 78.268 127.083 77.916 127.083 77.508ZM132.096 71.952V80.832H130.416V71.952H132.096ZM140.935 80.832L139.087 77.568H138.295V80.832H136.615V72.456H139.759C140.407 72.456 140.959 72.572 141.415 72.804C141.871 73.028 142.211 73.336 142.435 73.728C142.667 74.112 142.783 74.544 142.783 75.024C142.783 75.576 142.623 76.076 142.303 76.524C141.983 76.964 141.507 77.268 140.875 77.436L142.879 80.832H140.935ZM138.295 76.308H139.699C140.155 76.308 140.495 76.2 140.719 75.984C140.943 75.76 141.055 75.452 141.055 75.06C141.055 74.676 140.943 74.38 140.719 74.172C140.495 73.956 140.155 73.848 139.699 73.848H138.295V76.308ZM150.483 77.364C150.483 77.604 150.467 77.82 150.435 78.012H145.575C145.615 78.492 145.783 78.868 146.079 79.14C146.375 79.412 146.739 79.548 147.171 79.548C147.795 79.548 148.239 79.28 148.503 78.744H150.315C150.123 79.384 149.755 79.912 149.211 80.328C148.667 80.736 147.999 80.94 147.207 80.94C146.567 80.94 145.991 80.8 145.479 80.52C144.975 80.232 144.579 79.828 144.291 79.308C144.011 78.788 143.871 78.188 143.871 77.508C143.871 76.82 144.011 76.216 144.291 75.696C144.571 75.176 144.963 74.776 145.467 74.496C145.971 74.216 146.551 74.076 147.207 74.076C147.839 74.076 148.403 74.212 148.899 74.484C149.403 74.756 149.791 75.144 150.063 75.648C150.343 76.144 150.483 76.716 150.483 77.364ZM148.743 76.884C148.735 76.452 148.579 76.108 148.275 75.852C147.971 75.588 147.599 75.456 147.159 75.456C146.743 75.456 146.391 75.584 146.103 75.84C145.823 76.088 145.651 76.436 145.587 76.884H148.743ZM151.277 77.508C151.277 76.82 151.417 76.22 151.697 75.708C151.977 75.188 152.365 74.788 152.861 74.508C153.357 74.22 153.925 74.076 154.565 74.076C155.389 74.076 156.069 74.284 156.605 74.7C157.149 75.108 157.513 75.684 157.697 76.428H155.885C155.789 76.14 155.625 75.916 155.393 75.756C155.169 75.588 154.889 75.504 154.553 75.504C154.073 75.504 153.693 75.68 153.413 76.032C153.133 76.376 152.993 76.868 152.993 77.508C152.993 78.14 153.133 78.632 153.413 78.984C153.693 79.328 154.073 79.5 154.553 79.5C155.233 79.5 155.677 79.196 155.885 78.588H157.697C157.513 79.308 157.149 79.88 156.605 80.304C156.061 80.728 155.381 80.94 154.565 80.94C153.925 80.94 153.357 80.8 152.861 80.52C152.365 80.232 151.977 79.832 151.697 79.32C151.417 78.8 151.277 78.196 151.277 77.508ZM161.88 80.94C161.24 80.94 160.664 80.8 160.152 80.52C159.64 80.232 159.236 79.828 158.94 79.308C158.652 78.788 158.508 78.188 158.508 77.508C158.508 76.828 158.656 76.228 158.952 75.708C159.256 75.188 159.668 74.788 160.188 74.508C160.708 74.22 161.288 74.076 161.928 74.076C162.568 74.076 163.148 74.22 163.668 74.508C164.188 74.788 164.596 75.188 164.892 75.708C165.196 76.228 165.348 76.828 165.348 77.508C165.348 78.188 165.192 78.788 164.88 79.308C164.576 79.828 164.16 80.232 163.632 80.52C163.112 80.8 162.528 80.94 161.88 80.94ZM161.88 79.476C162.184 79.476 162.468 79.404 162.732 79.26C163.004 79.108 163.22 78.884 163.38 78.588C163.54 78.292 163.62 77.932 163.62 77.508C163.62 76.876 163.452 76.392 163.116 76.056C162.788 75.712 162.384 75.54 161.904 75.54C161.424 75.54 161.02 75.712 160.692 76.056C160.372 76.392 160.212 76.876 160.212 77.508C160.212 78.14 160.368 78.628 160.68 78.972C161 79.308 161.4 79.476 161.88 79.476ZM168.26 75.216C168.476 74.864 168.756 74.588 169.1 74.388C169.452 74.188 169.852 74.088 170.3 74.088V75.852H169.856C169.328 75.852 168.928 75.976 168.656 76.224C168.392 76.472 168.26 76.904 168.26 77.52V80.832H166.58V74.184H168.26V75.216ZM171 77.484C171 76.812 171.132 76.216 171.396 75.696C171.668 75.176 172.036 74.776 172.5 74.496C172.964 74.216 173.48 74.076 174.048 74.076C174.48 74.076 174.892 74.172 175.284 74.364C175.676 74.548 175.988 74.796 176.22 75.108V71.952H177.924V80.832H176.22V79.848C176.012 80.176 175.72 80.44 175.344 80.64C174.968 80.84 174.532 80.94 174.036 80.94C173.476 80.94 172.964 80.796 172.5 80.508C172.036 80.22 171.668 79.816 171.396 79.296C171.132 78.768 171 78.164 171 77.484ZM176.232 77.508C176.232 77.1 176.152 76.752 175.992 76.464C175.832 76.168 175.616 75.944 175.344 75.792C175.072 75.632 174.78 75.552 174.468 75.552C174.156 75.552 173.868 75.628 173.604 75.78C173.34 75.932 173.124 76.156 172.956 76.452C172.796 76.74 172.716 77.084 172.716 77.484C172.716 77.884 172.796 78.236 172.956 78.54C173.124 78.836 173.34 79.064 173.604 79.224C173.876 79.384 174.164 79.464 174.468 79.464C174.78 79.464 175.072 79.388 175.344 79.236C175.616 79.076 175.832 78.852 175.992 78.564C176.152 78.268 176.232 77.916 176.232 77.508ZM180.308 80.916C180.004 80.916 179.752 80.824 179.552 80.64C179.36 80.448 179.264 80.212 179.264 79.932C179.264 79.652 179.36 79.42 179.552 79.236C179.752 79.044 180.004 78.948 180.308 78.948C180.604 78.948 180.848 79.044 181.04 79.236C181.232 79.42 181.328 79.652 181.328 79.932C181.328 80.212 181.232 80.448 181.04 80.64C180.848 80.824 180.604 80.916 180.308 80.916ZM180.308 75.948C180.004 75.948 179.752 75.856 179.552 75.672C179.36 75.48 179.264 75.244 179.264 74.964C179.264 74.684 179.36 74.452 179.552 74.268C179.752 74.076 180.004 73.98 180.308 73.98C180.604 73.98 180.848 74.076 181.04 74.268C181.232 74.452 181.328 74.684 181.328 74.964C181.328 75.244 181.232 75.48 181.04 75.672C180.848 75.856 180.604 75.948 180.308 75.948ZM194.708 72.456V80.832H193.028V75.384L190.784 80.832H189.512L187.256 75.384V80.832H185.576V72.456H187.484L190.148 78.684L192.812 72.456H194.708ZM199.321 80.94C198.681 80.94 198.105 80.8 197.593 80.52C197.081 80.232 196.677 79.828 196.381 79.308C196.093 78.788 195.949 78.188 195.949 77.508C195.949 76.828 196.097 76.228 196.393 75.708C196.697 75.188 197.109 74.788 197.629 74.508C198.149 74.22 198.729 74.076 199.369 74.076C200.009 74.076 200.589 74.22 201.109 74.508C201.629 74.788 202.037 75.188 202.333 75.708C202.637 76.228 202.789 76.828 202.789 77.508C202.789 78.188 202.633 78.788 202.321 79.308C202.017 79.828 201.601 80.232 201.073 80.52C200.553 80.8 199.969 80.94 199.321 80.94ZM199.321 79.476C199.625 79.476 199.909 79.404 200.173 79.26C200.445 79.108 200.661 78.884 200.821 78.588C200.981 78.292 201.061 77.932 201.061 77.508C201.061 76.876 200.893 76.392 200.557 76.056C200.229 75.712 199.825 75.54 199.345 75.54C198.865 75.54 198.461 75.712 198.133 76.056C197.813 76.392 197.653 76.876 197.653 77.508C197.653 78.14 197.809 78.628 198.121 78.972C198.441 79.308 198.841 79.476 199.321 79.476Z" fill="#FBFDFF"/>
<path opacity="0.7" d="M39.3958 98.395C39.3958 98.917 39.2158 99.352 38.8558 99.7C38.5018 100.042 37.9588 100.213 37.2268 100.213H36.0208V102.832H35.2018V96.559H37.2268C37.9348 96.559 38.4718 96.73 38.8378 97.072C39.2098 97.414 39.3958 97.855 39.3958 98.395ZM37.2268 99.538C37.6828 99.538 38.0188 99.439 38.2348 99.241C38.4508 99.043 38.5588 98.761 38.5588 98.395C38.5588 97.621 38.1148 97.234 37.2268 97.234H36.0208V99.538H37.2268ZM41.2327 98.701C41.3767 98.419 41.5807 98.2 41.8447 98.044C42.1147 97.888 42.4417 97.81 42.8257 97.81V98.656H42.6097C41.6917 98.656 41.2327 99.154 41.2327 100.15V102.832H40.4137V97.9H41.2327V98.701ZM48.2711 100.177C48.2711 100.333 48.2621 100.498 48.2441 100.672H44.3021C44.3321 101.158 44.4971 101.539 44.7971 101.815C45.1031 102.085 45.4721 102.22 45.9041 102.22C46.2581 102.22 46.5521 102.139 46.7861 101.977C47.0261 101.809 47.1941 101.587 47.2901 101.311H48.1721C48.0401 101.785 47.7761 102.172 47.3801 102.472C46.9841 102.766 46.4921 102.913 45.9041 102.913C45.4361 102.913 45.0161 102.808 44.6441 102.598C44.2781 102.388 43.9901 102.091 43.7801 101.707C43.5701 101.317 43.4651 100.867 43.4651 100.357C43.4651 99.847 43.5671 99.4 43.7711 99.016C43.9751 98.632 44.2601 98.338 44.6261 98.134C44.9981 97.924 45.4241 97.819 45.9041 97.819C46.3721 97.819 46.7861 97.921 47.1461 98.125C47.5061 98.329 47.7821 98.611 47.9741 98.971C48.1721 99.325 48.2711 99.727 48.2711 100.177ZM47.4251 100.006C47.4251 99.694 47.3561 99.427 47.2181 99.205C47.0801 98.977 46.8911 98.806 46.6511 98.692C46.4171 98.572 46.1561 98.512 45.8681 98.512C45.4541 98.512 45.1001 98.644 44.8061 98.908C44.5181 99.172 44.3531 99.538 44.3111 100.006H47.4251ZM51.1882 102.076L52.7182 97.9H53.5912L51.6562 102.832H50.7022L48.7672 97.9H49.6492L51.1882 102.076ZM54.8201 97.099C54.6641 97.099 54.5321 97.045 54.4241 96.937C54.3161 96.829 54.2621 96.697 54.2621 96.541C54.2621 96.385 54.3161 96.253 54.4241 96.145C54.5321 96.037 54.6641 95.983 54.8201 95.983C54.9701 95.983 55.0961 96.037 55.1981 96.145C55.3061 96.253 55.3601 96.385 55.3601 96.541C55.3601 96.697 55.3061 96.829 55.1981 96.937C55.0961 97.045 54.9701 97.099 54.8201 97.099ZM55.2161 97.9V102.832H54.3971V97.9H55.2161ZM58.7629 102.913C58.3009 102.913 57.8809 102.808 57.5029 102.598C57.1309 102.388 56.8369 102.091 56.6209 101.707C56.4109 101.317 56.3059 100.867 56.3059 100.357C56.3059 99.853 56.4139 99.409 56.6299 99.025C56.8519 98.635 57.1519 98.338 57.5299 98.134C57.9079 97.924 58.3309 97.819 58.7989 97.819C59.2669 97.819 59.6899 97.924 60.0679 98.134C60.4459 98.338 60.7429 98.632 60.9589 99.016C61.1809 99.4 61.2919 99.847 61.2919 100.357C61.2919 100.867 61.1779 101.317 60.9499 101.707C60.7279 102.091 60.4249 102.388 60.0409 102.598C59.6569 102.808 59.2309 102.913 58.7629 102.913ZM58.7629 102.193C59.0569 102.193 59.3329 102.124 59.5909 101.986C59.8489 101.848 60.0559 101.641 60.2119 101.365C60.3739 101.089 60.4549 100.753 60.4549 100.357C60.4549 99.961 60.3769 99.625 60.2209 99.349C60.0649 99.073 59.8609 98.869 59.6089 98.737C59.3569 98.599 59.0839 98.53 58.7899 98.53C58.4899 98.53 58.2139 98.599 57.9619 98.737C57.7159 98.869 57.5179 99.073 57.3679 99.349C57.2179 99.625 57.1429 99.961 57.1429 100.357C57.1429 100.759 57.2149 101.098 57.3589 101.374C57.5089 101.65 57.7069 101.857 57.9529 101.995C58.1989 102.127 58.4689 102.193 58.7629 102.193ZM66.7428 97.9V102.832H65.9238V102.103C65.7678 102.355 65.5488 102.553 65.2668 102.697C64.9908 102.835 64.6848 102.904 64.3488 102.904C63.9648 102.904 63.6198 102.826 63.3138 102.67C63.0078 102.508 62.7648 102.268 62.5848 101.95C62.4108 101.632 62.3238 101.245 62.3238 100.789V97.9H63.1338V100.681C63.1338 101.167 63.2568 101.542 63.5028 101.806C63.7488 102.064 64.0848 102.193 64.5108 102.193C64.9488 102.193 65.2938 102.058 65.5458 101.788C65.7978 101.518 65.9238 101.125 65.9238 100.609V97.9H66.7428ZM69.8716 102.913C69.4936 102.913 69.1546 102.85 68.8546 102.724C68.5546 102.592 68.3176 102.412 68.1436 102.184C67.9696 101.95 67.8736 101.683 67.8556 101.383H68.7016C68.7256 101.629 68.8396 101.83 69.0436 101.986C69.2536 102.142 69.5266 102.22 69.8626 102.22C70.1746 102.22 70.4206 102.151 70.6006 102.013C70.7806 101.875 70.8706 101.701 70.8706 101.491C70.8706 101.275 70.7746 101.116 70.5826 101.014C70.3906 100.906 70.0936 100.801 69.6916 100.699C69.3256 100.603 69.0256 100.507 68.7916 100.411C68.5636 100.309 68.3656 100.162 68.1976 99.97C68.0356 99.772 67.9546 99.514 67.9546 99.196C67.9546 98.944 68.0296 98.713 68.1796 98.503C68.3296 98.293 68.5426 98.128 68.8186 98.008C69.0946 97.882 69.4096 97.819 69.7636 97.819C70.3096 97.819 70.7506 97.957 71.0866 98.233C71.4226 98.509 71.6026 98.887 71.6266 99.367H70.8076C70.7896 99.109 70.6846 98.902 70.4926 98.746C70.3066 98.59 70.0546 98.512 69.7366 98.512C69.4426 98.512 69.2086 98.575 69.0346 98.701C68.8606 98.827 68.7736 98.992 68.7736 99.196C68.7736 99.358 68.8246 99.493 68.9266 99.601C69.0346 99.703 69.1666 99.787 69.3226 99.853C69.4846 99.913 69.7066 99.982 69.9886 100.06C70.3426 100.156 70.6306 100.252 70.8526 100.348C71.0746 100.438 71.2636 100.576 71.4196 100.762C71.5816 100.948 71.6656 101.191 71.6716 101.491C71.6716 101.761 71.5966 102.004 71.4466 102.22C71.2966 102.436 71.0836 102.607 70.8076 102.733C70.5376 102.853 70.2256 102.913 69.8716 102.913ZM79.4212 98.395C79.4212 98.917 79.2412 99.352 78.8812 99.7C78.5272 100.042 77.9842 100.213 77.2522 100.213H76.0462V102.832H75.2272V96.559H77.2522C77.9602 96.559 78.4972 96.73 78.8632 97.072C79.2352 97.414 79.4212 97.855 79.4212 98.395ZM77.2522 99.538C77.7082 99.538 78.0442 99.439 78.2602 99.241C78.4762 99.043 78.5842 98.761 78.5842 98.395C78.5842 97.621 78.1402 97.234 77.2522 97.234H76.0462V99.538H77.2522ZM80.1331 100.348C80.1331 99.844 80.2351 99.403 80.4391 99.025C80.6431 98.641 80.9221 98.344 81.2761 98.134C81.6361 97.924 82.0351 97.819 82.4731 97.819C82.9051 97.819 83.2801 97.912 83.5981 98.098C83.9161 98.284 84.1531 98.518 84.3091 98.8V97.9H85.1371V102.832H84.3091V101.914C84.1471 102.202 83.9041 102.442 83.5801 102.634C83.2621 102.82 82.8901 102.913 82.4641 102.913C82.0261 102.913 81.6301 102.805 81.2761 102.589C80.9221 102.373 80.6431 102.07 80.4391 101.68C80.2351 101.29 80.1331 100.846 80.1331 100.348ZM84.3091 100.357C84.3091 99.985 84.2341 99.661 84.0841 99.385C83.9341 99.109 83.7301 98.899 83.4721 98.755C83.2201 98.605 82.9411 98.53 82.6351 98.53C82.3291 98.53 82.0501 98.602 81.7981 98.746C81.5461 98.89 81.3451 99.1 81.1951 99.376C81.0451 99.652 80.9701 99.976 80.9701 100.348C80.9701 100.726 81.0451 101.056 81.1951 101.338C81.3451 101.614 81.5461 101.827 81.7981 101.977C82.0501 102.121 82.3291 102.193 82.6351 102.193C82.9411 102.193 83.2201 102.121 83.4721 101.977C83.7301 101.827 83.9341 101.614 84.0841 101.338C84.2341 101.056 84.3091 100.729 84.3091 100.357ZM88.5551 97.819C88.9811 97.819 89.3531 97.912 89.6711 98.098C89.9951 98.284 90.2351 98.518 90.3911 98.8V97.9H91.2191V102.94C91.2191 103.39 91.1231 103.789 90.9311 104.137C90.7391 104.491 90.4631 104.767 90.1031 104.965C89.7491 105.163 89.3351 105.262 88.8611 105.262C88.2131 105.262 87.6731 105.109 87.2411 104.803C86.8091 104.497 86.5541 104.08 86.4761 103.552H87.2861C87.3761 103.852 87.5621 104.092 87.8441 104.272C88.1261 104.458 88.4651 104.551 88.8611 104.551C89.3111 104.551 89.6771 104.41 89.9591 104.128C90.2471 103.846 90.3911 103.45 90.3911 102.94V101.905C90.2291 102.193 89.9891 102.433 89.6711 102.625C89.3531 102.817 88.9811 102.913 88.5551 102.913C88.1171 102.913 87.7181 102.805 87.3581 102.589C87.0041 102.373 86.7251 102.07 86.5211 101.68C86.3171 101.29 86.2151 100.846 86.2151 100.348C86.2151 99.844 86.3171 99.403 86.5211 99.025C86.7251 98.641 87.0041 98.344 87.3581 98.134C87.7181 97.924 88.1171 97.819 88.5551 97.819ZM90.3911 100.357C90.3911 99.985 90.3161 99.661 90.1661 99.385C90.0161 99.109 89.8121 98.899 89.5541 98.755C89.3021 98.605 89.0231 98.53 88.7171 98.53C88.4111 98.53 88.1321 98.602 87.8801 98.746C87.6281 98.89 87.4271 99.1 87.2771 99.376C87.1271 99.652 87.0521 99.976 87.0521 100.348C87.0521 100.726 87.1271 101.056 87.2771 101.338C87.4271 101.614 87.6281 101.827 87.8801 101.977C88.1321 102.121 88.4111 102.193 88.7171 102.193C89.0231 102.193 89.3021 102.121 89.5541 101.977C89.8121 101.827 90.0161 101.614 90.1661 101.338C90.3161 101.056 90.3911 100.729 90.3911 100.357ZM97.1032 100.177C97.1032 100.333 97.0942 100.498 97.0762 100.672H93.1342C93.1642 101.158 93.3292 101.539 93.6292 101.815C93.9352 102.085 94.3042 102.22 94.7362 102.22C95.0902 102.22 95.3842 102.139 95.6182 101.977C95.8582 101.809 96.0262 101.587 96.1222 101.311H97.0042C96.8722 101.785 96.6082 102.172 96.2122 102.472C95.8162 102.766 95.3242 102.913 94.7362 102.913C94.2682 102.913 93.8482 102.808 93.4762 102.598C93.1102 102.388 92.8222 102.091 92.6122 101.707C92.4022 101.317 92.2972 100.867 92.2972 100.357C92.2972 99.847 92.3992 99.4 92.6032 99.016C92.8072 98.632 93.0922 98.338 93.4582 98.134C93.8302 97.924 94.2562 97.819 94.7362 97.819C95.2042 97.819 95.6182 97.921 95.9782 98.125C96.3382 98.329 96.6142 98.611 96.8062 98.971C97.0042 99.325 97.1032 99.727 97.1032 100.177ZM96.2572 100.006C96.2572 99.694 96.1882 99.427 96.0502 99.205C95.9122 98.977 95.7232 98.806 95.4832 98.692C95.2492 98.572 94.9882 98.512 94.7002 98.512C94.2862 98.512 93.9322 98.644 93.6382 98.908C93.3502 99.172 93.1852 99.538 93.1432 100.006H96.2572Z" fill="#FBFDFF"/>
<rect x="32.043" y="111.519" width="88.3389" height="19.3982" rx="3.99947" fill="black"/>
<rect x="67.3906" y="138.114" width="41.1426" height="19.3982" rx="3.99947" fill="black"/>
<rect x="32.043" y="161.813" width="115.905" height="19.4706" rx="3.99947" fill="black"/>
<path opacity="0.7" d="M34.9572 192.053V191.306H36.6492V197.813H35.8212V192.053H34.9572ZM37.84 192.053V191.306H39.532V197.813H38.704V192.053H37.84ZM40.7229 192.053V191.306H42.4149V197.813H41.5869V192.053H40.7229ZM43.6057 192.053V191.306H45.2977V197.813H44.4697V192.053H43.6057ZM52.7849 191.54V192.206H50.0579V194.321H52.2719V194.987H50.0579V197.813H49.2389V191.54H52.7849ZM54.1971 192.08C54.0411 192.08 53.9091 192.026 53.8011 191.918C53.6931 191.81 53.6391 191.678 53.6391 191.522C53.6391 191.366 53.6931 191.234 53.8011 191.126C53.9091 191.018 54.0411 190.964 54.1971 190.964C54.3471 190.964 54.4731 191.018 54.5751 191.126C54.6831 191.234 54.7371 191.366 54.7371 191.522C54.7371 191.678 54.6831 191.81 54.5751 191.918C54.4731 192.026 54.3471 192.08 54.1971 192.08ZM54.5931 192.881V197.813H53.7741V192.881H54.5931ZM56.8079 193.682C56.9519 193.4 57.1559 193.181 57.4199 193.025C57.6899 192.869 58.0169 192.791 58.4009 192.791V193.637H58.1849C57.2669 193.637 56.8079 194.135 56.8079 195.131V197.813H55.9889V192.881H56.8079V193.682ZM61.0923 197.894C60.7143 197.894 60.3753 197.831 60.0753 197.705C59.7753 197.573 59.5383 197.393 59.3643 197.165C59.1903 196.931 59.0943 196.664 59.0763 196.364H59.9223C59.9463 196.61 60.0603 196.811 60.2643 196.967C60.4743 197.123 60.7473 197.201 61.0833 197.201C61.3953 197.201 61.6413 197.132 61.8213 196.994C62.0013 196.856 62.0913 196.682 62.0913 196.472C62.0913 196.256 61.9953 196.097 61.8033 195.995C61.6113 195.887 61.3143 195.782 60.9123 195.68C60.5463 195.584 60.2463 195.488 60.0123 195.392C59.7843 195.29 59.5863 195.143 59.4183 194.951C59.2563 194.753 59.1753 194.495 59.1753 194.177C59.1753 193.925 59.2503 193.694 59.4003 193.484C59.5503 193.274 59.7633 193.109 60.0393 192.989C60.3153 192.863 60.6303 192.8 60.9843 192.8C61.5303 192.8 61.9713 192.938 62.3073 193.214C62.6433 193.49 62.8233 193.868 62.8473 194.348H62.0283C62.0103 194.09 61.9053 193.883 61.7133 193.727C61.5273 193.571 61.2753 193.493 60.9573 193.493C60.6633 193.493 60.4293 193.556 60.2553 193.682C60.0813 193.808 59.9943 193.973 59.9943 194.177C59.9943 194.339 60.0453 194.474 60.1473 194.582C60.2553 194.684 60.3873 194.768 60.5433 194.834C60.7053 194.894 60.9273 194.963 61.2093 195.041C61.5633 195.137 61.8513 195.233 62.0733 195.329C62.2953 195.419 62.4843 195.557 62.6403 195.743C62.8023 195.929 62.8863 196.172 62.8923 196.472C62.8923 196.742 62.8173 196.985 62.6673 197.201C62.5173 197.417 62.3043 197.588 62.0283 197.714C61.7583 197.834 61.4463 197.894 61.0923 197.894ZM65.0475 193.556V196.463C65.0475 196.703 65.0985 196.874 65.2005 196.976C65.3025 197.072 65.4795 197.12 65.7315 197.12H66.3345V197.813H65.5965C65.1405 197.813 64.7985 197.708 64.5705 197.498C64.3425 197.288 64.2285 196.943 64.2285 196.463V193.556H63.5895V192.881H64.2285V191.639H65.0475V192.881H66.3345V193.556H65.0475ZM71.7152 197.876C71.3012 197.876 70.9292 197.804 70.5992 197.66C70.2752 197.51 70.0202 197.306 69.8342 197.048C69.6482 196.784 69.5522 196.481 69.5462 196.139H70.4192C70.4492 196.433 70.5692 196.682 70.7792 196.886C70.9952 197.084 71.3072 197.183 71.7152 197.183C72.1052 197.183 72.4112 197.087 72.6332 196.895C72.8612 196.697 72.9752 196.445 72.9752 196.139C72.9752 195.899 72.9092 195.704 72.7772 195.554C72.6452 195.404 72.4802 195.29 72.2822 195.212C72.0842 195.134 71.8172 195.05 71.4812 194.96C71.0672 194.852 70.7342 194.744 70.4822 194.636C70.2362 194.528 70.0232 194.36 69.8432 194.132C69.6692 193.898 69.5822 193.586 69.5822 193.196C69.5822 192.854 69.6692 192.551 69.8432 192.287C70.0172 192.023 70.2602 191.819 70.5722 191.675C70.8902 191.531 71.2532 191.459 71.6612 191.459C72.2492 191.459 72.7292 191.606 73.1012 191.9C73.4792 192.194 73.6922 192.584 73.7402 193.07H72.8402C72.8102 192.83 72.6842 192.62 72.4622 192.44C72.2402 192.254 71.9462 192.161 71.5802 192.161C71.2382 192.161 70.9592 192.251 70.7432 192.431C70.5272 192.605 70.4192 192.851 70.4192 193.169C70.4192 193.397 70.4822 193.583 70.6082 193.727C70.7402 193.871 70.8992 193.982 71.0852 194.06C71.2772 194.132 71.5442 194.216 71.8862 194.312C72.3002 194.426 72.6332 194.54 72.8852 194.654C73.1372 194.762 73.3532 194.933 73.5332 195.167C73.7132 195.395 73.8032 195.707 73.8032 196.103C73.8032 196.409 73.7222 196.697 73.5602 196.967C73.3982 197.237 73.1582 197.456 72.8402 197.624C72.5222 197.792 72.1472 197.876 71.7152 197.876ZM76.0074 193.556V196.463C76.0074 196.703 76.0584 196.874 76.1604 196.976C76.2624 197.072 76.4394 197.12 76.6914 197.12H77.2944V197.813H76.5564C76.1004 197.813 75.7584 197.708 75.5304 197.498C75.3024 197.288 75.1884 196.943 75.1884 196.463V193.556H74.5494V192.881H75.1884V191.639H76.0074V192.881H77.2944V193.556H76.0074ZM79.1058 193.682C79.2498 193.4 79.4538 193.181 79.7178 193.025C79.9878 192.869 80.3148 192.791 80.6988 192.791V193.637H80.4828C79.5648 193.637 79.1058 194.135 79.1058 195.131V197.813H78.2868V192.881H79.1058V193.682ZM86.1442 195.158C86.1442 195.314 86.1352 195.479 86.1172 195.653H82.1752C82.2052 196.139 82.3702 196.52 82.6702 196.796C82.9762 197.066 83.3452 197.201 83.7772 197.201C84.1312 197.201 84.4252 197.12 84.6592 196.958C84.8992 196.79 85.0672 196.568 85.1632 196.292H86.0452C85.9132 196.766 85.6492 197.153 85.2532 197.453C84.8572 197.747 84.3652 197.894 83.7772 197.894C83.3092 197.894 82.8892 197.789 82.5172 197.579C82.1512 197.369 81.8632 197.072 81.6532 196.688C81.4432 196.298 81.3382 195.848 81.3382 195.338C81.3382 194.828 81.4402 194.381 81.6442 193.997C81.8482 193.613 82.1332 193.319 82.4992 193.115C82.8712 192.905 83.2972 192.8 83.7772 192.8C84.2452 192.8 84.6592 192.902 85.0192 193.106C85.3792 193.31 85.6552 193.592 85.8472 193.952C86.0452 194.306 86.1442 194.708 86.1442 195.158ZM85.2982 194.987C85.2982 194.675 85.2292 194.408 85.0912 194.186C84.9532 193.958 84.7642 193.787 84.5242 193.673C84.2902 193.553 84.0292 193.493 83.7412 193.493C83.3272 193.493 82.9732 193.625 82.6792 193.889C82.3912 194.153 82.2262 194.519 82.1842 194.987H85.2982ZM91.7252 195.158C91.7252 195.314 91.7162 195.479 91.6982 195.653H87.7562C87.7862 196.139 87.9512 196.52 88.2512 196.796C88.5572 197.066 88.9262 197.201 89.3582 197.201C89.7122 197.201 90.0062 197.12 90.2402 196.958C90.4802 196.79 90.6482 196.568 90.7442 196.292H91.6262C91.4942 196.766 91.2302 197.153 90.8342 197.453C90.4382 197.747 89.9462 197.894 89.3582 197.894C88.8902 197.894 88.4702 197.789 88.0982 197.579C87.7322 197.369 87.4442 197.072 87.2342 196.688C87.0242 196.298 86.9192 195.848 86.9192 195.338C86.9192 194.828 87.0212 194.381 87.2252 193.997C87.4292 193.613 87.7142 193.319 88.0802 193.115C88.4522 192.905 88.8782 192.8 89.3582 192.8C89.8262 192.8 90.2402 192.902 90.6002 193.106C90.9602 193.31 91.2362 193.592 91.4282 193.952C91.6262 194.306 91.7252 194.708 91.7252 195.158ZM90.8792 194.987C90.8792 194.675 90.8102 194.408 90.6722 194.186C90.5342 193.958 90.3452 193.787 90.1052 193.673C89.8712 193.553 89.6102 193.493 89.3222 193.493C88.9082 193.493 88.5542 193.625 88.2602 193.889C87.9722 194.153 87.8072 194.519 87.7652 194.987H90.8792ZM93.8053 193.556V196.463C93.8053 196.703 93.8563 196.874 93.9583 196.976C94.0603 197.072 94.2373 197.12 94.4893 197.12H95.0923V197.813H94.3543C93.8983 197.813 93.5563 197.708 93.3283 197.498C93.1003 197.288 92.9863 196.943 92.9863 196.463V193.556H92.3473V192.881H92.9863V191.639H93.8053V192.881H95.0923V193.556H93.8053ZM98.178 194.672C98.178 194.06 98.316 193.511 98.592 193.025C98.868 192.533 99.243 192.149 99.717 191.873C100.197 191.597 100.728 191.459 101.31 191.459C101.994 191.459 102.591 191.624 103.101 191.954C103.611 192.284 103.983 192.752 104.217 193.358H103.236C103.062 192.98 102.81 192.689 102.48 192.485C102.156 192.281 101.766 192.179 101.31 192.179C100.872 192.179 100.479 192.281 100.131 192.485C99.783 192.689 99.51 192.98 99.312 193.358C99.114 193.73 99.015 194.168 99.015 194.672C99.015 195.17 99.114 195.608 99.312 195.986C99.51 196.358 99.783 196.646 100.131 196.85C100.479 197.054 100.872 197.156 101.31 197.156C101.766 197.156 102.156 197.057 102.48 196.859C102.81 196.655 103.062 196.364 103.236 195.986H104.217C103.983 196.586 103.611 197.051 103.101 197.381C102.591 197.705 101.994 197.867 101.31 197.867C100.728 197.867 100.197 197.732 99.717 197.462C99.243 197.186 98.868 196.805 98.592 196.319C98.316 195.833 98.178 195.284 98.178 194.672ZM105.13 195.329C105.13 194.825 105.232 194.384 105.436 194.006C105.64 193.622 105.919 193.325 106.273 193.115C106.633 192.905 107.032 192.8 107.47 192.8C107.902 192.8 108.277 192.893 108.595 193.079C108.913 193.265 109.15 193.499 109.306 193.781V192.881H110.134V197.813H109.306V196.895C109.144 197.183 108.901 197.423 108.577 197.615C108.259 197.801 107.887 197.894 107.461 197.894C107.023 197.894 106.627 197.786 106.273 197.57C105.919 197.354 105.64 197.051 105.436 196.661C105.232 196.271 105.13 195.827 105.13 195.329ZM109.306 195.338C109.306 194.966 109.231 194.642 109.081 194.366C108.931 194.09 108.727 193.88 108.469 193.736C108.217 193.586 107.938 193.511 107.632 193.511C107.326 193.511 107.047 193.583 106.795 193.727C106.543 193.871 106.342 194.081 106.192 194.357C106.042 194.633 105.967 194.957 105.967 195.329C105.967 195.707 106.042 196.037 106.192 196.319C106.342 196.595 106.543 196.808 106.795 196.958C107.047 197.102 107.326 197.174 107.632 197.174C107.938 197.174 108.217 197.102 108.469 196.958C108.727 196.808 108.931 196.595 109.081 196.319C109.231 196.037 109.306 195.71 109.306 195.338ZM112.337 191.153V197.813H111.518V191.153H112.337ZM114.156 192.08C114 192.08 113.868 192.026 113.76 191.918C113.652 191.81 113.598 191.678 113.598 191.522C113.598 191.366 113.652 191.234 113.76 191.126C113.868 191.018 114 190.964 114.156 190.964C114.306 190.964 114.432 191.018 114.534 191.126C114.642 191.234 114.696 191.366 114.696 191.522C114.696 191.678 114.642 191.81 114.534 191.918C114.432 192.026 114.306 192.08 114.156 192.08ZM114.552 192.881V197.813H113.733V192.881H114.552ZM117.955 193.556H116.92V197.813H116.101V193.556H115.462V192.881H116.101V192.53C116.101 191.978 116.242 191.576 116.524 191.324C116.812 191.066 117.271 190.937 117.901 190.937V191.621C117.541 191.621 117.286 191.693 117.136 191.837C116.992 191.975 116.92 192.206 116.92 192.53V192.881H117.955V193.556ZM121.061 197.894C120.599 197.894 120.179 197.789 119.801 197.579C119.429 197.369 119.135 197.072 118.919 196.688C118.709 196.298 118.604 195.848 118.604 195.338C118.604 194.834 118.712 194.39 118.928 194.006C119.15 193.616 119.45 193.319 119.828 193.115C120.206 192.905 120.629 192.8 121.097 192.8C121.565 192.8 121.988 192.905 122.366 193.115C122.744 193.319 123.041 193.613 123.257 193.997C123.479 194.381 123.59 194.828 123.59 195.338C123.59 195.848 123.476 196.298 123.248 196.688C123.026 197.072 122.723 197.369 122.339 197.579C121.955 197.789 121.529 197.894 121.061 197.894ZM121.061 197.174C121.355 197.174 121.631 197.105 121.889 196.967C122.147 196.829 122.354 196.622 122.51 196.346C122.672 196.07 122.753 195.734 122.753 195.338C122.753 194.942 122.675 194.606 122.519 194.33C122.363 194.054 122.159 193.85 121.907 193.718C121.655 193.58 121.382 193.511 121.088 193.511C120.788 193.511 120.512 193.58 120.26 193.718C120.014 193.85 119.816 194.054 119.666 194.33C119.516 194.606 119.441 194.942 119.441 195.338C119.441 195.74 119.513 196.079 119.657 196.355C119.807 196.631 120.005 196.838 120.251 196.976C120.497 197.108 120.767 197.174 121.061 197.174ZM125.486 193.682C125.63 193.4 125.834 193.181 126.098 193.025C126.368 192.869 126.695 192.791 127.079 192.791V193.637H126.863C125.945 193.637 125.486 194.135 125.486 195.131V197.813H124.667V192.881H125.486V193.682ZM130.427 192.791C131.027 192.791 131.513 192.974 131.885 193.34C132.257 193.7 132.443 194.222 132.443 194.906V197.813H131.633V195.023C131.633 194.531 131.51 194.156 131.264 193.898C131.018 193.634 130.682 193.502 130.256 193.502C129.824 193.502 129.479 193.637 129.221 193.907C128.969 194.177 128.843 194.57 128.843 195.086V197.813H128.024V192.881H128.843V193.583C129.005 193.331 129.224 193.136 129.5 192.998C129.782 192.86 130.091 192.791 130.427 192.791ZM134.204 192.08C134.048 192.08 133.916 192.026 133.808 191.918C133.7 191.81 133.646 191.678 133.646 191.522C133.646 191.366 133.7 191.234 133.808 191.126C133.916 191.018 134.048 190.964 134.204 190.964C134.354 190.964 134.48 191.018 134.582 191.126C134.69 191.234 134.744 191.366 134.744 191.522C134.744 191.678 134.69 191.81 134.582 191.918C134.48 192.026 134.354 192.08 134.204 192.08ZM134.6 192.881V197.813H133.781V192.881H134.6ZM135.69 195.329C135.69 194.825 135.792 194.384 135.996 194.006C136.2 193.622 136.479 193.325 136.833 193.115C137.193 192.905 137.592 192.8 138.03 192.8C138.462 192.8 138.837 192.893 139.155 193.079C139.473 193.265 139.71 193.499 139.866 193.781V192.881H140.694V197.813H139.866V196.895C139.704 197.183 139.461 197.423 139.137 197.615C138.819 197.801 138.447 197.894 138.021 197.894C137.583 197.894 137.187 197.786 136.833 197.57C136.479 197.354 136.2 197.051 135.996 196.661C135.792 196.271 135.69 195.827 135.69 195.329ZM139.866 195.338C139.866 194.966 139.791 194.642 139.641 194.366C139.491 194.09 139.287 193.88 139.029 193.736C138.777 193.586 138.498 193.511 138.192 193.511C137.886 193.511 137.607 193.583 137.355 193.727C137.103 193.871 136.902 194.081 136.752 194.357C136.602 194.633 136.527 194.957 136.527 195.329C136.527 195.707 136.602 196.037 136.752 196.319C136.902 196.595 137.103 196.808 137.355 196.958C137.607 197.102 137.886 197.174 138.192 197.174C138.498 197.174 138.777 197.102 139.029 196.958C139.287 196.808 139.491 196.595 139.641 196.319C139.791 196.037 139.866 195.71 139.866 195.338Z" fill="#FBFDFF"/>
<line x1="32.043" y1="185.276" x2="244.401" y2="185.276" stroke="black" stroke-opacity="0.2" stroke-width="0.5"/>
<path d="M35.994 144.54V148.509C35.994 149.067 36.129 149.481 36.399 149.751C36.675 150.021 37.056 150.156 37.542 150.156C38.022 150.156 38.397 150.021 38.667 149.751C38.943 149.481 39.081 149.067 39.081 148.509V144.54H39.9V148.5C39.9 149.022 39.795 149.463 39.585 149.823C39.375 150.177 39.09 150.441 38.73 150.615C38.376 150.789 37.977 150.876 37.533 150.876C37.089 150.876 36.687 150.789 36.327 150.615C35.973 150.441 35.691 150.177 35.481 149.823C35.277 149.463 35.175 149.022 35.175 148.5V144.54H35.994ZM43.0122 150.894C42.6342 150.894 42.2952 150.831 41.9952 150.705C41.6952 150.573 41.4582 150.393 41.2842 150.165C41.1102 149.931 41.0142 149.664 40.9962 149.364H41.8422C41.8662 149.61 41.9802 149.811 42.1842 149.967C42.3942 150.123 42.6672 150.201 43.0032 150.201C43.3152 150.201 43.5612 150.132 43.7412 149.994C43.9212 149.856 44.0112 149.682 44.0112 149.472C44.0112 149.256 43.9152 149.097 43.7232 148.995C43.5312 148.887 43.2342 148.782 42.8322 148.68C42.4662 148.584 42.1662 148.488 41.9322 148.392C41.7042 148.29 41.5062 148.143 41.3382 147.951C41.1762 147.753 41.0952 147.495 41.0952 147.177C41.0952 146.925 41.1702 146.694 41.3202 146.484C41.4702 146.274 41.6832 146.109 41.9592 145.989C42.2352 145.863 42.5502 145.8 42.9042 145.8C43.4502 145.8 43.8912 145.938 44.2272 146.214C44.5632 146.49 44.7432 146.868 44.7672 147.348H43.9482C43.9302 147.09 43.8252 146.883 43.6332 146.727C43.4472 146.571 43.1952 146.493 42.8772 146.493C42.5832 146.493 42.3492 146.556 42.1752 146.682C42.0012 146.808 41.9142 146.973 41.9142 147.177C41.9142 147.339 41.9652 147.474 42.0672 147.582C42.1752 147.684 42.3072 147.768 42.4632 147.834C42.6252 147.894 42.8472 147.963 43.1292 148.041C43.4832 148.137 43.7712 148.233 43.9932 148.329C44.2152 148.419 44.4042 148.557 44.5602 148.743C44.7222 148.929 44.8062 149.172 44.8122 149.472C44.8122 149.742 44.7372 149.985 44.5872 150.201C44.4372 150.417 44.2242 150.588 43.9482 150.714C43.6782 150.834 43.3662 150.894 43.0122 150.894ZM50.4684 148.158C50.4684 148.314 50.4594 148.479 50.4414 148.653H46.4994C46.5294 149.139 46.6944 149.52 46.9944 149.796C47.3004 150.066 47.6694 150.201 48.1014 150.201C48.4554 150.201 48.7494 150.12 48.9834 149.958C49.2234 149.79 49.3914 149.568 49.4874 149.292H50.3694C50.2374 149.766 49.9734 150.153 49.5774 150.453C49.1814 150.747 48.6894 150.894 48.1014 150.894C47.6334 150.894 47.2134 150.789 46.8414 150.579C46.4754 150.369 46.1874 150.072 45.9774 149.688C45.7674 149.298 45.6624 148.848 45.6624 148.338C45.6624 147.828 45.7644 147.381 45.9684 146.997C46.1724 146.613 46.4574 146.319 46.8234 146.115C47.1954 145.905 47.6214 145.8 48.1014 145.8C48.5694 145.8 48.9834 145.902 49.3434 146.106C49.7034 146.31 49.9794 146.592 50.1714 146.952C50.3694 147.306 50.4684 147.708 50.4684 148.158ZM49.6224 147.987C49.6224 147.675 49.5534 147.408 49.4154 147.186C49.2774 146.958 49.0884 146.787 48.8484 146.673C48.6144 146.553 48.3534 146.493 48.0654 146.493C47.6514 146.493 47.2974 146.625 47.0034 146.889C46.7154 147.153 46.5504 147.519 46.5084 147.987H49.6224ZM55.9559 146.556H54.9209V150.813H54.1019V146.556H53.4629V145.881H54.1019V145.53C54.1019 144.978 54.2429 144.576 54.5249 144.324C54.8129 144.066 55.2719 143.937 55.9019 143.937V144.621C55.5419 144.621 55.2869 144.693 55.1369 144.837C54.9929 144.975 54.9209 145.206 54.9209 145.53V145.881H55.9559V146.556ZM59.0618 150.894C58.5998 150.894 58.1798 150.789 57.8018 150.579C57.4298 150.369 57.1358 150.072 56.9198 149.688C56.7098 149.298 56.6048 148.848 56.6048 148.338C56.6048 147.834 56.7128 147.39 56.9288 147.006C57.1508 146.616 57.4508 146.319 57.8288 146.115C58.2068 145.905 58.6298 145.8 59.0978 145.8C59.5658 145.8 59.9888 145.905 60.3668 146.115C60.7448 146.319 61.0418 146.613 61.2578 146.997C61.4798 147.381 61.5908 147.828 61.5908 148.338C61.5908 148.848 61.4768 149.298 61.2488 149.688C61.0268 150.072 60.7238 150.369 60.3398 150.579C59.9558 150.789 59.5298 150.894 59.0618 150.894ZM59.0618 150.174C59.3558 150.174 59.6318 150.105 59.8898 149.967C60.1478 149.829 60.3548 149.622 60.5108 149.346C60.6728 149.07 60.7538 148.734 60.7538 148.338C60.7538 147.942 60.6758 147.606 60.5198 147.33C60.3638 147.054 60.1598 146.85 59.9078 146.718C59.6558 146.58 59.3828 146.511 59.0888 146.511C58.7888 146.511 58.5128 146.58 58.2608 146.718C58.0148 146.85 57.8168 147.054 57.6668 147.33C57.5168 147.606 57.4418 147.942 57.4418 148.338C57.4418 148.74 57.5138 149.079 57.6578 149.355C57.8078 149.631 58.0058 149.838 58.2518 149.976C58.4978 150.108 58.7678 150.174 59.0618 150.174ZM63.4866 146.682C63.6306 146.4 63.8346 146.181 64.0986 146.025C64.3686 145.869 64.6956 145.791 65.0796 145.791V146.637H64.8636C63.9456 146.637 63.4866 147.135 63.4866 148.131V150.813H62.6676V145.881H63.4866V146.682ZM109.445 148.329C109.445 147.825 109.547 147.384 109.751 147.006C109.955 146.622 110.234 146.325 110.588 146.115C110.948 145.905 111.347 145.8 111.785 145.8C112.217 145.8 112.592 145.893 112.91 146.079C113.228 146.265 113.465 146.499 113.621 146.781V145.881H114.449V150.813H113.621V149.895C113.459 150.183 113.216 150.423 112.892 150.615C112.574 150.801 112.202 150.894 111.776 150.894C111.338 150.894 110.942 150.786 110.588 150.57C110.234 150.354 109.955 150.051 109.751 149.661C109.547 149.271 109.445 148.827 109.445 148.329ZM113.621 148.338C113.621 147.966 113.546 147.642 113.396 147.366C113.246 147.09 113.042 146.88 112.784 146.736C112.532 146.586 112.253 146.511 111.947 146.511C111.641 146.511 111.362 146.583 111.11 146.727C110.858 146.871 110.657 147.081 110.507 147.357C110.357 147.633 110.282 147.957 110.282 148.329C110.282 148.707 110.357 149.037 110.507 149.319C110.657 149.595 110.858 149.808 111.11 149.958C111.362 150.102 111.641 150.174 111.947 150.174C112.253 150.174 112.532 150.102 112.784 149.958C113.042 149.808 113.246 149.595 113.396 149.319C113.546 149.037 113.621 148.71 113.621 148.338ZM116.652 146.799C116.82 146.505 117.066 146.265 117.39 146.079C117.714 145.893 118.083 145.8 118.497 145.8C118.941 145.8 119.34 145.905 119.694 146.115C120.048 146.325 120.327 146.622 120.531 147.006C120.735 147.384 120.837 147.825 120.837 148.329C120.837 148.827 120.735 149.271 120.531 149.661C120.327 150.051 120.045 150.354 119.685 150.57C119.331 150.786 118.935 150.894 118.497 150.894C118.071 150.894 117.696 150.801 117.372 150.615C117.054 150.429 116.814 150.192 116.652 149.904V150.813H115.833V144.153H116.652V146.799ZM120 148.329C120 147.957 119.925 147.633 119.775 147.357C119.625 147.081 119.421 146.871 119.163 146.727C118.911 146.583 118.632 146.511 118.326 146.511C118.026 146.511 117.747 146.586 117.489 146.736C117.237 146.88 117.033 147.093 116.877 147.375C116.727 147.651 116.652 147.972 116.652 148.338C116.652 148.71 116.727 149.037 116.877 149.319C117.033 149.595 117.237 149.808 117.489 149.958C117.747 150.102 118.026 150.174 118.326 150.174C118.632 150.174 118.911 150.102 119.163 149.958C119.421 149.808 119.625 149.595 119.775 149.319C119.925 149.037 120 148.707 120 148.329ZM123.661 150.894C123.283 150.894 122.944 150.831 122.644 150.705C122.344 150.573 122.107 150.393 121.933 150.165C121.759 149.931 121.663 149.664 121.645 149.364H122.491C122.515 149.61 122.629 149.811 122.833 149.967C123.043 150.123 123.316 150.201 123.652 150.201C123.964 150.201 124.21 150.132 124.39 149.994C124.57 149.856 124.66 149.682 124.66 149.472C124.66 149.256 124.564 149.097 124.372 148.995C124.18 148.887 123.883 148.782 123.481 148.68C123.115 148.584 122.815 148.488 122.581 148.392C122.353 148.29 122.155 148.143 121.987 147.951C121.825 147.753 121.744 147.495 121.744 147.177C121.744 146.925 121.819 146.694 121.969 146.484C122.119 146.274 122.332 146.109 122.608 145.989C122.884 145.863 123.199 145.8 123.553 145.8C124.099 145.8 124.54 145.938 124.876 146.214C125.212 146.49 125.392 146.868 125.416 147.348H124.597C124.579 147.09 124.474 146.883 124.282 146.727C124.096 146.571 123.844 146.493 123.526 146.493C123.232 146.493 122.998 146.556 122.824 146.682C122.65 146.808 122.563 146.973 122.563 147.177C122.563 147.339 122.614 147.474 122.716 147.582C122.824 147.684 122.956 147.768 123.112 147.834C123.274 147.894 123.496 147.963 123.778 148.041C124.132 148.137 124.42 148.233 124.642 148.329C124.864 148.419 125.053 148.557 125.209 148.743C125.371 148.929 125.455 149.172 125.461 149.472C125.461 149.742 125.386 149.985 125.236 150.201C125.086 150.417 124.873 150.588 124.597 150.714C124.327 150.834 124.015 150.894 123.661 150.894ZM127.616 146.556V149.463C127.616 149.703 127.667 149.874 127.769 149.976C127.871 150.072 128.048 150.12 128.3 150.12H128.903V150.813H128.165C127.709 150.813 127.367 150.708 127.139 150.498C126.911 150.288 126.797 149.943 126.797 149.463V146.556H126.158V145.881H126.797V144.639H127.616V145.881H128.903V146.556H127.616ZM130.714 146.682C130.858 146.4 131.062 146.181 131.326 146.025C131.596 145.869 131.923 145.791 132.307 145.791V146.637H132.091C131.173 146.637 130.714 147.135 130.714 148.131V150.813H129.895V145.881H130.714V146.682ZM132.947 148.329C132.947 147.825 133.049 147.384 133.253 147.006C133.457 146.622 133.736 146.325 134.09 146.115C134.45 145.905 134.849 145.8 135.287 145.8C135.719 145.8 136.094 145.893 136.412 146.079C136.73 146.265 136.967 146.499 137.123 146.781V145.881H137.951V150.813H137.123V149.895C136.961 150.183 136.718 150.423 136.394 150.615C136.076 150.801 135.704 150.894 135.278 150.894C134.84 150.894 134.444 150.786 134.09 150.57C133.736 150.354 133.457 150.051 133.253 149.661C133.049 149.271 132.947 148.827 132.947 148.329ZM137.123 148.338C137.123 147.966 137.048 147.642 136.898 147.366C136.748 147.09 136.544 146.88 136.286 146.736C136.034 146.586 135.755 146.511 135.449 146.511C135.143 146.511 134.864 146.583 134.612 146.727C134.36 146.871 134.159 147.081 134.009 147.357C133.859 147.633 133.784 147.957 133.784 148.329C133.784 148.707 133.859 149.037 134.009 149.319C134.159 149.595 134.36 149.808 134.612 149.958C134.864 150.102 135.143 150.174 135.449 150.174C135.755 150.174 136.034 150.102 136.286 149.958C136.544 149.808 136.748 149.595 136.898 149.319C137.048 149.037 137.123 148.71 137.123 148.338ZM139.029 148.338C139.029 147.828 139.131 147.384 139.335 147.006C139.539 146.622 139.821 146.325 140.181 146.115C140.547 145.905 140.964 145.8 141.432 145.8C142.038 145.8 142.536 145.947 142.926 146.241C143.322 146.535 143.583 146.943 143.709 147.465H142.827C142.743 147.165 142.578 146.928 142.332 146.754C142.092 146.58 141.792 146.493 141.432 146.493C140.964 146.493 140.586 146.655 140.298 146.979C140.01 147.297 139.866 147.75 139.866 148.338C139.866 148.932 140.01 149.391 140.298 149.715C140.586 150.039 140.964 150.201 141.432 150.201C141.792 150.201 142.092 150.117 142.332 149.949C142.572 149.781 142.737 149.541 142.827 149.229H143.709C143.577 149.733 143.313 150.138 142.917 150.444C142.521 150.744 142.026 150.894 141.432 150.894C140.964 150.894 140.547 150.789 140.181 150.579C139.821 150.369 139.539 150.072 139.335 149.688C139.131 149.304 139.029 148.854 139.029 148.338ZM145.8 146.556V149.463C145.8 149.703 145.851 149.874 145.953 149.976C146.055 150.072 146.232 150.12 146.484 150.12H147.087V150.813H146.349C145.893 150.813 145.551 150.708 145.323 150.498C145.095 150.288 144.981 149.943 144.981 149.463V146.556H144.342V145.881H144.981V144.639H145.8V145.881H147.087V146.556H145.8ZM148.503 145.08C148.347 145.08 148.215 145.026 148.107 144.918C147.999 144.81 147.945 144.678 147.945 144.522C147.945 144.366 147.999 144.234 148.107 144.126C148.215 144.018 148.347 143.964 148.503 143.964C148.653 143.964 148.779 144.018 148.881 144.126C148.989 144.234 149.043 144.366 149.043 144.522C149.043 144.678 148.989 144.81 148.881 144.918C148.779 145.026 148.653 145.08 148.503 145.08ZM148.899 145.881V150.813H148.08V145.881H148.899ZM152.446 150.894C151.984 150.894 151.564 150.789 151.186 150.579C150.814 150.369 150.52 150.072 150.304 149.688C150.094 149.298 149.989 148.848 149.989 148.338C149.989 147.834 150.097 147.39 150.313 147.006C150.535 146.616 150.835 146.319 151.213 146.115C151.591 145.905 152.014 145.8 152.482 145.8C152.95 145.8 153.373 145.905 153.751 146.115C154.129 146.319 154.426 146.613 154.642 146.997C154.864 147.381 154.975 147.828 154.975 148.338C154.975 148.848 154.861 149.298 154.633 149.688C154.411 150.072 154.108 150.369 153.724 150.579C153.34 150.789 152.914 150.894 152.446 150.894ZM152.446 150.174C152.74 150.174 153.016 150.105 153.274 149.967C153.532 149.829 153.739 149.622 153.895 149.346C154.057 149.07 154.138 148.734 154.138 148.338C154.138 147.942 154.06 147.606 153.904 147.33C153.748 147.054 153.544 146.85 153.292 146.718C153.04 146.58 152.767 146.511 152.473 146.511C152.173 146.511 151.897 146.58 151.645 146.718C151.399 146.85 151.201 147.054 151.051 147.33C150.901 147.606 150.826 147.942 150.826 148.338C150.826 148.74 150.898 149.079 151.042 149.355C151.192 149.631 151.39 149.838 151.636 149.976C151.882 150.108 152.152 150.174 152.446 150.174ZM158.454 145.791C159.054 145.791 159.54 145.974 159.912 146.34C160.284 146.7 160.47 147.222 160.47 147.906V150.813H159.66V148.023C159.66 147.531 159.537 147.156 159.291 146.898C159.045 146.634 158.709 146.502 158.283 146.502C157.851 146.502 157.506 146.637 157.248 146.907C156.996 147.177 156.87 147.57 156.87 148.086V150.813H156.051V145.881H156.87V146.583C157.032 146.331 157.251 146.136 157.527 145.998C157.809 145.86 158.118 145.791 158.454 145.791Z" fill="#FBFDFF"/>
</g>
<rect x="21.8203" y="23.5" width="188.36" height="184.41" rx="21.5" stroke="white" stroke-opacity="0.1"/>
</g>
</g>
<defs>
<filter id="filter0_b_16479_1604" x="-3.5" y="-3.67578" width="239" height="236.682" filterUnits="userSpaceOnUse" color-interpolation-filters="sRGB">
<feFlood flood-opacity="0" result="BackgroundImageFix"/>
<feGaussianBlur in="BackgroundImageFix" stdDeviation="2"/>
<feComposite in2="SourceAlpha" operator="in" result="effect1_backgroundBlur_16479_1604"/>
<feBlend mode="normal" in="SourceGraphic" in2="effect1_backgroundBlur_16479_1604" result="shape"/>
</filter>
<filter id="filter1_b_16479_1604" x="-41.6797" y="-40" width="315.359" height="311.41" filterUnits="userSpaceOnUse" color-interpolation-filters="sRGB">
<feFlood flood-opacity="0" result="BackgroundImageFix"/>
<feGaussianBlur in="BackgroundImageFix" stdDeviation="31.5"/>
<feComposite in2="SourceAlpha" operator="in" result="effect1_backgroundBlur_16479_1604"/>
<feBlend mode="normal" in="SourceGraphic" in2="effect1_backgroundBlur_16479_1604" result="shape"/>
</filter>
<clipPath id="clip0_16479_1604">
<rect x="21.3203" y="23" width="189.36" height="185.41" rx="22" fill="white"/>
</clipPath>
</defs>
</svg>
