<svg width="232" height="230" viewBox="0 0 232 230" fill="none" xmlns="http://www.w3.org/2000/svg">
<g filter="url(#filter0_b_16479_1538)">
<rect x="0.5" y="0.324219" width="231" height="228.682" rx="15" fill="#0389FF" fill-opacity="0.12"/>
<g filter="url(#filter1_b_16479_1538)">
<rect x="20.9805" y="23.3975" width="189.36" height="185.41" rx="22" fill="black" fill-opacity="0.33"/>
<path d="M47.1654 49.6025L53.0404 43.7275L51.8737 42.5609L47.1654 47.2692L44.7904 44.8942L43.6237 46.0609L47.1654 49.6025ZM42.4987 53.6025C42.0404 53.6025 41.6479 53.4395 41.3212 53.1134C40.9951 52.7867 40.832 52.3942 40.832 51.9359V40.2692C40.832 39.8109 40.9951 39.4184 41.3212 39.0917C41.6479 38.7656 42.0404 38.6025 42.4987 38.6025H54.1654C54.6237 38.6025 55.0162 38.7656 55.3429 39.0917C55.669 39.4184 55.832 39.8109 55.832 40.2692V51.9359C55.832 52.3942 55.669 52.7867 55.3429 53.1134C55.0162 53.4395 54.6237 53.6025 54.1654 53.6025H42.4987Z" fill="#0389FF"/>
<path opacity="0.7" d="M68.5893 51.1935C67.9913 51.1935 67.454 51.0895 66.9773 50.8815C66.5093 50.6649 66.141 50.3702 65.8723 49.9975C65.6037 49.6162 65.465 49.1785 65.4563 48.6845H66.7173C66.7607 49.1092 66.934 49.4689 67.2373 49.7635C67.5493 50.0495 68 50.1925 68.5893 50.1925C69.1527 50.1925 69.5947 50.0539 69.9153 49.7765C70.2447 49.4905 70.4093 49.1265 70.4093 48.6845C70.4093 48.3379 70.314 48.0562 70.1233 47.8395C69.9327 47.6229 69.6943 47.4582 69.4083 47.3455C69.1223 47.2329 68.7367 47.1115 68.2513 46.9815C67.6533 46.8255 67.1723 46.6695 66.8083 46.5135C66.453 46.3575 66.1453 46.1149 65.8853 45.7855C65.634 45.4475 65.5083 44.9969 65.5083 44.4335C65.5083 43.9395 65.634 43.5019 65.8853 43.1205C66.1367 42.7392 66.4877 42.4445 66.9383 42.2365C67.3977 42.0285 67.922 41.9245 68.5113 41.9245C69.3607 41.9245 70.054 42.1369 70.5913 42.5615C71.1373 42.9862 71.445 43.5495 71.5143 44.2515H70.2143C70.171 43.9049 69.989 43.6015 69.6683 43.3415C69.3477 43.0729 68.923 42.9385 68.3943 42.9385C67.9003 42.9385 67.4973 43.0685 67.1853 43.3285C66.8733 43.5799 66.7173 43.9352 66.7173 44.3945C66.7173 44.7239 66.8083 44.9925 66.9903 45.2005C67.181 45.4085 67.4107 45.5689 67.6793 45.6815C67.9567 45.7855 68.3423 45.9069 68.8363 46.0455C69.4343 46.2102 69.9153 46.3749 70.2793 46.5395C70.6433 46.6955 70.9553 46.9425 71.2153 47.2805C71.4753 47.6099 71.6053 48.0605 71.6053 48.6325C71.6053 49.0745 71.4883 49.4905 71.2543 49.8805C71.0203 50.2705 70.6737 50.5869 70.2143 50.8295C69.755 51.0722 69.2133 51.1935 68.5893 51.1935ZM79.8462 47.2675C79.8462 47.4929 79.8332 47.7312 79.8072 47.9825H74.1132C74.1565 48.6845 74.3949 49.2349 74.8282 49.6335C75.2702 50.0235 75.8032 50.2185 76.4272 50.2185C76.9385 50.2185 77.3632 50.1015 77.7012 49.8675C78.0479 49.6249 78.2905 49.3042 78.4292 48.9055H79.7032C79.5125 49.5902 79.1312 50.1492 78.5592 50.5825C77.9872 51.0072 77.2765 51.2195 76.4272 51.2195C75.7512 51.2195 75.1445 51.0679 74.6072 50.7645C74.0785 50.4612 73.6625 50.0322 73.3592 49.4775C73.0559 48.9142 72.9042 48.2642 72.9042 47.5275C72.9042 46.7909 73.0515 46.1452 73.3462 45.5905C73.6409 45.0359 74.0525 44.6112 74.5812 44.3165C75.1185 44.0132 75.7339 43.8615 76.4272 43.8615C77.1032 43.8615 77.7012 44.0089 78.2212 44.3035C78.7412 44.5982 79.1399 45.0055 79.4172 45.5255C79.7032 46.0369 79.8462 46.6175 79.8462 47.2675ZM78.6242 47.0205C78.6242 46.5699 78.5245 46.1842 78.3252 45.8635C78.1259 45.5342 77.8529 45.2872 77.5062 45.1225C77.1682 44.9492 76.7912 44.8625 76.3752 44.8625C75.7772 44.8625 75.2659 45.0532 74.8412 45.4345C74.4252 45.8159 74.1869 46.3445 74.1262 47.0205H78.6242ZM82.5907 41.4825V51.1025H81.4077V41.4825H82.5907ZM91.107 47.2675C91.107 47.4929 91.094 47.7312 91.068 47.9825H85.374C85.4173 48.6845 85.6556 49.2349 86.089 49.6335C86.531 50.0235 87.064 50.2185 87.688 50.2185C88.1993 50.2185 88.624 50.1015 88.962 49.8675C89.3086 49.6249 89.5513 49.3042 89.69 48.9055H90.964C90.7733 49.5902 90.392 50.1492 89.82 50.5825C89.248 51.0072 88.5373 51.2195 87.688 51.2195C87.012 51.2195 86.4053 51.0679 85.868 50.7645C85.3393 50.4612 84.9233 50.0322 84.62 49.4775C84.3166 48.9142 84.165 48.2642 84.165 47.5275C84.165 46.7909 84.3123 46.1452 84.607 45.5905C84.9016 45.0359 85.3133 44.6112 85.842 44.3165C86.3793 44.0132 86.9946 43.8615 87.688 43.8615C88.364 43.8615 88.962 44.0089 89.482 44.3035C90.002 44.5982 90.4006 45.0055 90.678 45.5255C90.964 46.0369 91.107 46.6175 91.107 47.2675ZM89.885 47.0205C89.885 46.5699 89.7853 46.1842 89.586 45.8635C89.3866 45.5342 89.1136 45.2872 88.767 45.1225C88.429 44.9492 88.052 44.8625 87.636 44.8625C87.038 44.8625 86.5266 45.0532 86.102 45.4345C85.686 45.8159 85.4476 46.3445 85.387 47.0205H89.885ZM92.2265 47.5275C92.2265 46.7909 92.3738 46.1495 92.6685 45.6035C92.9631 45.0489 93.3705 44.6199 93.8905 44.3165C94.4191 44.0132 95.0215 43.8615 95.6975 43.8615C96.5728 43.8615 97.2921 44.0739 97.8555 44.4985C98.4275 44.9232 98.8045 45.5125 98.9865 46.2665H97.7125C97.5911 45.8332 97.3528 45.4909 96.9975 45.2395C96.6508 44.9882 96.2175 44.8625 95.6975 44.8625C95.0215 44.8625 94.4755 45.0965 94.0595 45.5645C93.6435 46.0239 93.4355 46.6782 93.4355 47.5275C93.4355 48.3855 93.6435 49.0485 94.0595 49.5165C94.4755 49.9845 95.0215 50.2185 95.6975 50.2185C96.2175 50.2185 96.6508 50.0972 96.9975 49.8545C97.3441 49.6119 97.5825 49.2652 97.7125 48.8145H98.9865C98.7958 49.5425 98.4145 50.1275 97.8425 50.5695C97.2705 51.0029 96.5555 51.2195 95.6975 51.2195C95.0215 51.2195 94.4191 51.0679 93.8905 50.7645C93.3705 50.4612 92.9631 50.0322 92.6685 49.4775C92.3738 48.9229 92.2265 48.2729 92.2265 47.5275ZM102.008 44.9535V49.1525C102.008 49.4992 102.082 49.7462 102.229 49.8935C102.376 50.0322 102.632 50.1015 102.996 50.1015H103.867V51.1025H102.801C102.142 51.1025 101.648 50.9509 101.319 50.6475C100.99 50.3442 100.825 49.8459 100.825 49.1525V44.9535H99.902V43.9785H100.825V42.1845H102.008V43.9785H103.867V44.9535H102.008ZM108.324 47.5145C108.324 46.7865 108.471 46.1495 108.766 45.6035C109.061 45.0489 109.464 44.6199 109.975 44.3165C110.495 44.0132 111.071 43.8615 111.704 43.8615C112.328 43.8615 112.87 43.9959 113.329 44.2645C113.788 44.5332 114.131 44.8712 114.356 45.2785V43.9785H115.552V51.1025H114.356V49.7765C114.122 50.1925 113.771 50.5392 113.303 50.8165C112.844 51.0852 112.306 51.2195 111.691 51.2195C111.058 51.2195 110.486 51.0635 109.975 50.7515C109.464 50.4395 109.061 50.0019 108.766 49.4385C108.471 48.8752 108.324 48.2339 108.324 47.5145ZM114.356 47.5275C114.356 46.9902 114.248 46.5222 114.031 46.1235C113.814 45.7249 113.52 45.4215 113.147 45.2135C112.783 44.9969 112.38 44.8885 111.938 44.8885C111.496 44.8885 111.093 44.9925 110.729 45.2005C110.365 45.4085 110.075 45.7119 109.858 46.1105C109.641 46.5092 109.533 46.9772 109.533 47.5145C109.533 48.0605 109.641 48.5372 109.858 48.9445C110.075 49.3432 110.365 49.6509 110.729 49.8675C111.093 50.0755 111.496 50.1795 111.938 50.1795C112.38 50.1795 112.783 50.0755 113.147 49.8675C113.52 49.6509 113.814 49.3432 114.031 48.9445C114.248 48.5372 114.356 48.0649 114.356 47.5275ZM118.734 41.4825V51.1025H117.551V41.4825H118.734ZM121.934 41.4825V51.1025H120.751V41.4825H121.934Z" fill="#FBFDFF"/>
<path d="M47.1654 82.6025L53.0404 76.7275L51.8737 75.5609L47.1654 80.2692L44.7904 77.8942L43.6237 79.0609L47.1654 82.6025ZM42.4987 86.6025C42.0404 86.6025 41.6479 86.4395 41.3212 86.1134C40.9951 85.7867 40.832 85.3942 40.832 84.9359V73.2692C40.832 72.8109 40.9951 72.4184 41.3212 72.0917C41.6479 71.7656 42.0404 71.6025 42.4987 71.6025H54.1654C54.6237 71.6025 55.0162 71.7656 55.3429 72.0917C55.669 72.4184 55.832 72.8109 55.832 73.2692V84.9359C55.832 85.3942 55.669 85.7867 55.3429 86.1134C55.0162 86.4395 54.6237 86.6025 54.1654 86.6025H42.4987Z" fill="#0389FF"/>
<g opacity="0.7">
<path d="M76.031 72.5898C75.1864 72.733 74.5022 73.0794 73.8953 73.6691C73.7378 73.8237 73.5346 74.0498 73.4458 74.1758C72.544 75.424 72.4553 77.0014 73.1939 78.5158C73.4172 78.9682 73.5947 79.2115 74.2932 80.0188L74.8744 80.6916L73.8638 80.7059L72.8532 80.7202L72.7845 80.7918C72.7301 80.8462 72.5526 81.3644 72.0259 82.9876C71.6451 84.1556 71.3359 85.1376 71.3359 85.1719C71.3359 85.2692 71.4161 85.3952 71.5077 85.4439C71.5821 85.4811 72.1862 85.4868 76.6808 85.4868C81.2499 85.4868 81.7795 85.4811 81.8368 85.441C81.9141 85.3866 81.9856 85.2549 81.9856 85.1662C81.9856 85.1318 81.6764 84.1499 81.2986 82.9818C80.6888 81.1096 80.6 80.8548 80.5227 80.7861L80.4397 80.7059H79.6868C78.9625 80.7059 78.931 80.7088 78.868 80.766C78.7478 80.8805 78.7192 81.0466 78.7964 81.1954C78.8709 81.3415 78.9739 81.3644 79.5494 81.3644H80.0647L80.4254 82.4723C80.6258 83.0849 80.8777 83.855 80.9865 84.1871C81.0953 84.5192 81.184 84.7997 81.184 84.8112C81.184 84.8198 79.1486 84.8284 76.6579 84.8284H72.1347L72.1547 84.7625C72.1891 84.6509 72.6471 83.2424 72.9563 82.2862L73.2569 81.3644H74.3562H75.4555L75.8563 81.8281L76.2571 82.2948L75.9279 82.3091C75.5987 82.3234 75.5958 82.3234 75.5128 82.4179C75.4555 82.4837 75.4298 82.541 75.4298 82.6125C75.4298 82.7328 75.4956 82.8673 75.57 82.9103C75.6473 82.9504 77.6742 82.9504 77.7515 82.9103C77.826 82.8673 77.8918 82.7328 77.8918 82.6125C77.8918 82.541 77.866 82.4837 77.8088 82.4179C77.7258 82.3234 77.7229 82.3234 77.3937 82.3091L77.0644 82.2948L78.3384 80.8204C79.0398 80.0102 79.6896 79.2373 79.7841 79.1056C80.3796 78.2582 80.7031 77.1016 80.6115 76.154C80.5943 75.9679 80.5571 75.716 80.5256 75.5929C80.1506 74.0269 78.8766 72.8446 77.2906 72.5898C76.9642 72.5383 76.3316 72.5383 76.031 72.5898ZM77.2219 73.2483C78.0493 73.3943 78.8136 73.8666 79.3375 74.5652C79.5322 74.8228 79.7698 75.3238 79.8557 75.653C79.9473 76.0023 79.9788 76.5949 79.9273 76.9585C79.8328 77.5854 79.5322 78.3269 79.1658 78.8107C78.9739 79.0684 76.6894 81.7079 76.6608 81.7079C76.6322 81.7079 74.3791 79.1027 74.1615 78.8193C73.6892 78.1952 73.3685 77.2505 73.3685 76.4718C73.3685 75.5671 73.7092 74.7799 74.3763 74.1329C74.8543 73.6691 75.4384 73.3685 76.0882 73.2483C76.3802 73.1967 76.9156 73.1967 77.2219 73.2483Z" fill="#FBFDFF"/>
<path d="M76.2375 74.9377C75.7795 75.0665 75.4159 75.3671 75.2126 75.7937C75.0838 76.057 75.0494 76.2574 75.0666 76.5838C75.101 77.2795 75.5676 77.8577 76.2318 78.0295C76.4665 78.0925 76.8759 78.0896 77.1021 78.0295C77.6546 77.8835 78.1155 77.3968 78.2386 76.8357C78.2901 76.5924 78.2587 76.1544 78.1728 75.9225C78.021 75.5102 77.6603 75.1495 77.2481 74.9921C76.9962 74.8947 76.4837 74.869 76.2375 74.9377ZM76.9761 75.6018C77.3254 75.7221 77.5716 76.0484 77.6002 76.4177C77.6346 76.8872 77.3397 77.2795 76.8645 77.4026C76.4579 77.5056 76.04 77.3109 75.8281 76.9216C75.7365 76.7527 75.7308 76.7241 75.7308 76.4836C75.7308 76.2603 75.7422 76.2059 75.8081 76.0828C76.0428 75.6362 76.5152 75.4415 76.9761 75.6018Z" fill="#FBFDFF"/>
</g>
<path opacity="0.7" d="M101.433 82.0875H97.4807L96.7527 84.1025H95.5047L98.7807 75.0935H100.146L103.409 84.1025H102.161L101.433 82.0875ZM101.095 81.1255L99.4567 76.5495L97.8187 81.1255H101.095ZM104.394 80.5145C104.394 79.7865 104.542 79.1495 104.836 78.6035C105.131 78.0489 105.534 77.6199 106.045 77.3165C106.565 77.0132 107.146 76.8615 107.787 76.8615C108.342 76.8615 108.858 76.9915 109.334 77.2515C109.811 77.5029 110.175 77.8365 110.426 78.2525V74.4825H111.622V84.1025H110.426V82.7635C110.192 83.1882 109.846 83.5392 109.386 83.8165C108.927 84.0852 108.39 84.2195 107.774 84.2195C107.142 84.2195 106.565 84.0635 106.045 83.7515C105.534 83.4395 105.131 83.0019 104.836 82.4385C104.542 81.8752 104.394 81.2339 104.394 80.5145ZM110.426 80.5275C110.426 79.9902 110.318 79.5222 110.101 79.1235C109.885 78.7249 109.59 78.4215 109.217 78.2135C108.853 77.9969 108.45 77.8885 108.008 77.8885C107.566 77.8885 107.163 77.9925 106.799 78.2005C106.435 78.4085 106.145 78.7119 105.928 79.1105C105.712 79.5092 105.603 79.9772 105.603 80.5145C105.603 81.0605 105.712 81.5372 105.928 81.9445C106.145 82.3432 106.435 82.6509 106.799 82.8675C107.163 83.0755 107.566 83.1795 108.008 83.1795C108.45 83.1795 108.853 83.0755 109.217 82.8675C109.59 82.6509 109.885 82.3432 110.101 81.9445C110.318 81.5372 110.426 81.0649 110.426 80.5275ZM113.18 80.5145C113.18 79.7865 113.327 79.1495 113.622 78.6035C113.916 78.0489 114.319 77.6199 114.831 77.3165C115.351 77.0132 115.931 76.8615 116.573 76.8615C117.127 76.8615 117.643 76.9915 118.12 77.2515C118.596 77.5029 118.96 77.8365 119.212 78.2525V74.4825H120.408V84.1025H119.212V82.7635C118.978 83.1882 118.631 83.5392 118.172 83.8165C117.712 84.0852 117.175 84.2195 116.56 84.2195C115.927 84.2195 115.351 84.0635 114.831 83.7515C114.319 83.4395 113.916 83.0019 113.622 82.4385C113.327 81.8752 113.18 81.2339 113.18 80.5145ZM119.212 80.5275C119.212 79.9902 119.103 79.5222 118.887 79.1235C118.67 78.7249 118.375 78.4215 118.003 78.2135C117.639 77.9969 117.236 77.8885 116.794 77.8885C116.352 77.8885 115.949 77.9925 115.585 78.2005C115.221 78.4085 114.93 78.7119 114.714 79.1105C114.497 79.5092 114.389 79.9772 114.389 80.5145C114.389 81.0605 114.497 81.5372 114.714 81.9445C114.93 82.3432 115.221 82.6509 115.585 82.8675C115.949 83.0755 116.352 83.1795 116.794 83.1795C117.236 83.1795 117.639 83.0755 118.003 82.8675C118.375 82.6509 118.67 82.3432 118.887 81.9445C119.103 81.5372 119.212 81.0649 119.212 80.5275ZM123.59 78.1355C123.798 77.7282 124.092 77.4119 124.474 77.1865C124.864 76.9612 125.336 76.8485 125.891 76.8485V78.0705H125.579C124.253 78.0705 123.59 78.7899 123.59 80.2285V84.1025H122.407V76.9785H123.59V78.1355ZM133.756 80.2675C133.756 80.4929 133.743 80.7312 133.717 80.9825H128.023C128.067 81.6845 128.305 82.2349 128.738 82.6335C129.18 83.0235 129.713 83.2185 130.337 83.2185C130.849 83.2185 131.273 83.1015 131.611 82.8675C131.958 82.6249 132.201 82.3042 132.339 81.9055H133.613C133.423 82.5902 133.041 83.1492 132.469 83.5825C131.897 84.0072 131.187 84.2195 130.337 84.2195C129.661 84.2195 129.055 84.0679 128.517 83.7645C127.989 83.4612 127.573 83.0322 127.269 82.4775C126.966 81.9142 126.814 81.2642 126.814 80.5275C126.814 79.7909 126.962 79.1452 127.256 78.5905C127.551 78.0359 127.963 77.6112 128.491 77.3165C129.029 77.0132 129.644 76.8615 130.337 76.8615C131.013 76.8615 131.611 77.0089 132.131 77.3035C132.651 77.5982 133.05 78.0055 133.327 78.5255C133.613 79.0369 133.756 79.6175 133.756 80.2675ZM132.534 80.0205C132.534 79.5699 132.435 79.1842 132.235 78.8635C132.036 78.5342 131.763 78.2872 131.416 78.1225C131.078 77.9492 130.701 77.8625 130.285 77.8625C129.687 77.8625 129.176 78.0532 128.751 78.4345C128.335 78.8159 128.097 79.3445 128.036 80.0205H132.534ZM137.84 84.2195C137.294 84.2195 136.804 84.1285 136.371 83.9465C135.938 83.7559 135.595 83.4959 135.344 83.1665C135.093 82.8285 134.954 82.4429 134.928 82.0095H136.15C136.185 82.3649 136.349 82.6552 136.644 82.8805C136.947 83.1059 137.342 83.2185 137.827 83.2185C138.278 83.2185 138.633 83.1189 138.893 82.9195C139.153 82.7202 139.283 82.4689 139.283 82.1655C139.283 81.8535 139.144 81.6239 138.867 81.4765C138.59 81.3205 138.161 81.1689 137.58 81.0215C137.051 80.8829 136.618 80.7442 136.28 80.6055C135.951 80.4582 135.665 80.2459 135.422 79.9685C135.188 79.6825 135.071 79.3099 135.071 78.8505C135.071 78.4865 135.179 78.1529 135.396 77.8495C135.613 77.5462 135.92 77.3079 136.319 77.1345C136.718 76.9525 137.173 76.8615 137.684 76.8615C138.473 76.8615 139.11 77.0609 139.595 77.4595C140.08 77.8582 140.34 78.4042 140.375 79.0975H139.192C139.166 78.7249 139.014 78.4259 138.737 78.2005C138.468 77.9752 138.104 77.8625 137.645 77.8625C137.22 77.8625 136.882 77.9535 136.631 78.1355C136.38 78.3175 136.254 78.5559 136.254 78.8505C136.254 79.0845 136.328 79.2795 136.475 79.4355C136.631 79.5829 136.822 79.7042 137.047 79.7995C137.281 79.8862 137.602 79.9859 138.009 80.0985C138.52 80.2372 138.936 80.3759 139.257 80.5145C139.578 80.6445 139.851 80.8439 140.076 81.1125C140.31 81.3812 140.431 81.7322 140.44 82.1655C140.44 82.5555 140.332 82.9065 140.115 83.2185C139.898 83.5305 139.591 83.7775 139.192 83.9595C138.802 84.1329 138.351 84.2195 137.84 84.2195ZM144.632 84.2195C144.086 84.2195 143.596 84.1285 143.163 83.9465C142.73 83.7559 142.387 83.4959 142.136 83.1665C141.885 82.8285 141.746 82.4429 141.72 82.0095H142.942C142.977 82.3649 143.141 82.6552 143.436 82.8805C143.739 83.1059 144.134 83.2185 144.619 83.2185C145.07 83.2185 145.425 83.1189 145.685 82.9195C145.945 82.7202 146.075 82.4689 146.075 82.1655C146.075 81.8535 145.936 81.6239 145.659 81.4765C145.382 81.3205 144.953 81.1689 144.372 81.0215C143.843 80.8829 143.41 80.7442 143.072 80.6055C142.743 80.4582 142.457 80.2459 142.214 79.9685C141.98 79.6825 141.863 79.3099 141.863 78.8505C141.863 78.4865 141.971 78.1529 142.188 77.8495C142.405 77.5462 142.712 77.3079 143.111 77.1345C143.51 76.9525 143.965 76.8615 144.476 76.8615C145.265 76.8615 145.902 77.0609 146.387 77.4595C146.872 77.8582 147.132 78.4042 147.167 79.0975H145.984C145.958 78.7249 145.806 78.4259 145.529 78.2005C145.26 77.9752 144.896 77.8625 144.437 77.8625C144.012 77.8625 143.674 77.9535 143.423 78.1355C143.172 78.3175 143.046 78.5559 143.046 78.8505C143.046 79.0845 143.12 79.2795 143.267 79.4355C143.423 79.5829 143.614 79.7042 143.839 79.7995C144.073 79.8862 144.394 79.9859 144.801 80.0985C145.312 80.2372 145.728 80.3759 146.049 80.5145C146.37 80.6445 146.643 80.8439 146.868 81.1125C147.102 81.3812 147.223 81.7322 147.232 82.1655C147.232 82.5555 147.124 82.9065 146.907 83.2185C146.69 83.5305 146.383 83.7775 145.984 83.9595C145.594 84.1329 145.143 84.2195 144.632 84.2195Z" fill="#FBFDFF"/>
<path d="M47.1654 115.603L53.0404 109.728L51.8737 108.561L47.1654 113.269L44.7904 110.894L43.6237 112.061L47.1654 115.603ZM42.4987 119.603C42.0404 119.603 41.6479 119.439 41.3212 119.113C40.9951 118.787 40.832 118.394 40.832 117.936V106.269C40.832 105.811 40.9951 105.418 41.3212 105.092C41.6479 104.766 42.0404 104.603 42.4987 104.603H54.1654C54.6237 104.603 55.0162 104.766 55.3429 105.092C55.669 105.418 55.832 105.811 55.832 106.269V117.936C55.832 118.394 55.669 118.787 55.3429 119.113C55.0162 119.439 54.6237 119.603 54.1654 119.603H42.4987Z" fill="#0389FF"/>
<g opacity="0.7">
<path d="M78.2514 107.037C77.9847 107.095 77.735 107.217 77.5045 107.398L77.3828 107.494L77.5087 107.682C77.577 107.784 77.6539 107.908 77.6795 107.959L77.7264 108.051L77.8438 107.944C78.4521 107.404 79.2759 107.611 79.675 108.405C79.8179 108.694 79.8948 109.084 79.8734 109.421C79.7987 110.548 78.9216 111.246 78.102 110.83C78.0444 110.802 77.9953 110.781 77.9911 110.785C77.9868 110.789 77.9655 110.855 77.942 110.934C77.9164 111.011 77.8694 111.144 77.8331 111.227L77.7691 111.378L77.8737 111.432C78.0401 111.515 78.371 111.592 78.5737 111.592C79.5789 111.592 80.3878 110.73 80.503 109.534C80.5564 108.967 80.407 108.339 80.1039 107.878C79.978 107.686 79.7027 107.407 79.5277 107.291C79.1478 107.042 78.6697 106.948 78.2514 107.037Z" fill="#FBFDFF"/>
<path d="M74.9897 107.112C74.7507 107.138 74.5864 107.187 74.3452 107.304C73.4702 107.729 72.9323 108.741 72.975 109.874C72.9942 110.363 73.0732 110.676 73.2888 111.112C73.4339 111.402 73.5427 111.556 73.7604 111.78C74.1894 112.217 74.7059 112.426 75.2885 112.397C76.4068 112.343 77.3011 111.332 77.4056 110.002C77.5358 108.344 76.3834 106.965 74.9897 107.112ZM75.5361 107.829C75.9181 107.94 76.2809 108.267 76.4901 108.687C76.6629 109.033 76.7334 109.345 76.7334 109.767C76.7312 110.647 76.2937 111.385 75.6193 111.652C75.4913 111.701 75.4464 111.707 75.1989 111.709C74.9449 111.709 74.9086 111.705 74.7678 111.65C73.9098 111.315 73.4595 110.211 73.7305 109.116C73.865 108.574 74.2385 108.092 74.6824 107.887C74.9342 107.774 75.2693 107.75 75.5361 107.829Z" fill="#FBFDFF"/>
<path d="M80.532 111.338C80.4979 111.385 80.389 111.5 80.293 111.596C80.1948 111.69 80.1158 111.771 80.1158 111.773C80.1158 111.777 80.1756 111.822 80.2503 111.875C80.4274 112.004 80.722 112.294 80.8564 112.477C80.9738 112.633 81.1488 112.953 81.2256 113.147C81.3366 113.433 81.4369 114.027 81.4028 114.206C81.3451 114.505 80.865 114.782 80.1158 114.949L79.8918 115V115.307C79.8896 115.476 79.8832 115.64 79.8725 115.67L79.8555 115.726L80.0241 115.698C80.4338 115.625 80.9354 115.472 81.2128 115.333C81.4391 115.22 81.5671 115.132 81.725 114.983C82.0601 114.671 82.1604 114.353 82.1028 113.801C82.0558 113.357 81.9513 112.998 81.7464 112.584C81.5244 112.129 81.1872 111.707 80.8073 111.404C80.707 111.325 80.6195 111.259 80.611 111.257C80.6024 111.254 80.5683 111.291 80.532 111.338Z" fill="#FBFDFF"/>
<path d="M72.809 112.162C72.2926 112.548 71.8977 113.026 71.6096 113.609C71.3877 114.061 71.266 114.488 71.2148 115C71.1572 115.564 71.2553 115.892 71.5797 116.223C72.1496 116.806 73.3767 117.16 74.9518 117.198C76.0552 117.224 76.9772 117.1 77.8095 116.81C78.501 116.569 78.9748 116.174 79.1284 115.711C79.1882 115.532 79.1818 114.953 79.1156 114.622C78.9214 113.641 78.3815 112.77 77.5961 112.179L77.3827 112.019L77.1394 112.268C77.0049 112.405 76.8982 112.52 76.9003 112.52C77.8586 113.107 78.4818 114.172 78.4967 115.254C78.4988 115.444 78.4946 115.478 78.4455 115.574C78.2363 115.988 77.3912 116.328 76.2323 116.468C75.8332 116.518 74.9518 116.535 74.5313 116.503C73.699 116.439 73.0267 116.289 72.5295 116.052C72.1816 115.888 72.0023 115.73 71.9084 115.508C71.8785 115.438 71.8743 115.38 71.8871 115.171C71.9383 114.17 72.4676 113.224 73.2892 112.655C73.3938 112.582 73.4792 112.516 73.4792 112.507C73.4792 112.499 73.4237 112.443 73.3575 112.386C73.2892 112.326 73.1868 112.219 73.127 112.149C73.0694 112.078 73.0161 112.021 73.0097 112.021C73.0033 112.019 72.9136 112.083 72.809 112.162Z" fill="#FBFDFF"/>
</g>
<path opacity="0.7" d="M101.646 115.088H97.6941L96.9661 117.103H95.7181L98.9941 108.094H100.359L103.622 117.103H102.374L101.646 115.088ZM101.308 114.126L99.6701 109.55L98.0321 114.126H101.308ZM107.988 109.862C108.603 109.862 109.14 109.996 109.6 110.265C110.068 110.533 110.414 110.871 110.64 111.279V109.979H111.836V117.259C111.836 117.909 111.697 118.485 111.42 118.988C111.142 119.499 110.744 119.898 110.224 120.184C109.712 120.47 109.114 120.613 108.43 120.613C107.494 120.613 106.714 120.392 106.09 119.95C105.466 119.508 105.097 118.905 104.985 118.143H106.155C106.285 118.576 106.553 118.923 106.961 119.183C107.368 119.451 107.858 119.586 108.43 119.586C109.08 119.586 109.608 119.382 110.016 118.975C110.432 118.567 110.64 117.995 110.64 117.259V115.764C110.406 116.18 110.059 116.526 109.6 116.804C109.14 117.081 108.603 117.22 107.988 117.22C107.355 117.22 106.779 117.064 106.259 116.752C105.747 116.44 105.344 116.002 105.05 115.439C104.755 114.875 104.608 114.234 104.608 113.515C104.608 112.787 104.755 112.15 105.05 111.604C105.344 111.049 105.747 110.62 106.259 110.317C106.779 110.013 107.355 109.862 107.988 109.862ZM110.64 113.528C110.64 112.99 110.531 112.522 110.315 112.124C110.098 111.725 109.803 111.422 109.431 111.214C109.067 110.997 108.664 110.889 108.222 110.889C107.78 110.889 107.377 110.993 107.013 111.201C106.649 111.409 106.358 111.712 106.142 112.111C105.925 112.509 105.817 112.977 105.817 113.515C105.817 114.061 105.925 114.537 106.142 114.945C106.358 115.343 106.649 115.651 107.013 115.868C107.377 116.076 107.78 116.18 108.222 116.18C108.664 116.18 109.067 116.076 109.431 115.868C109.803 115.651 110.098 115.343 110.315 114.945C110.531 114.537 110.64 114.065 110.64 113.528ZM120.335 113.268C120.335 113.493 120.322 113.731 120.296 113.983H114.602C114.645 114.685 114.884 115.235 115.317 115.634C115.759 116.024 116.292 116.219 116.916 116.219C117.427 116.219 117.852 116.102 118.19 115.868C118.537 115.625 118.779 115.304 118.918 114.906H120.192C120.001 115.59 119.62 116.149 119.048 116.583C118.476 117.007 117.765 117.22 116.916 117.22C116.24 117.22 115.633 117.068 115.096 116.765C114.567 116.461 114.151 116.032 113.848 115.478C113.545 114.914 113.393 114.264 113.393 113.528C113.393 112.791 113.54 112.145 113.835 111.591C114.13 111.036 114.541 110.611 115.07 110.317C115.607 110.013 116.223 109.862 116.916 109.862C117.592 109.862 118.19 110.009 118.71 110.304C119.23 110.598 119.629 111.006 119.906 111.526C120.192 112.037 120.335 112.618 120.335 113.268ZM119.113 113.021C119.113 112.57 119.013 112.184 118.814 111.864C118.615 111.534 118.342 111.287 117.995 111.123C117.657 110.949 117.28 110.863 116.864 110.863C116.266 110.863 115.755 111.053 115.33 111.435C114.914 111.816 114.676 112.345 114.615 113.021H119.113ZM124.419 117.22C123.873 117.22 123.383 117.129 122.95 116.947C122.516 116.756 122.174 116.496 121.923 116.167C121.671 115.829 121.533 115.443 121.507 115.01H122.729C122.763 115.365 122.928 115.655 123.223 115.881C123.526 116.106 123.92 116.219 124.406 116.219C124.856 116.219 125.212 116.119 125.472 115.92C125.732 115.72 125.862 115.469 125.862 115.166C125.862 114.854 125.723 114.624 125.446 114.477C125.168 114.321 124.739 114.169 124.159 114.022C123.63 113.883 123.197 113.744 122.859 113.606C122.529 113.458 122.243 113.246 122.001 112.969C121.767 112.683 121.65 112.31 121.65 111.851C121.65 111.487 121.758 111.153 121.975 110.85C122.191 110.546 122.499 110.308 122.898 110.135C123.296 109.953 123.751 109.862 124.263 109.862C125.051 109.862 125.688 110.061 126.174 110.46C126.659 110.858 126.919 111.404 126.954 112.098H125.771C125.745 111.725 125.593 111.426 125.316 111.201C125.047 110.975 124.683 110.863 124.224 110.863C123.799 110.863 123.461 110.954 123.21 111.136C122.958 111.318 122.833 111.556 122.833 111.851C122.833 112.085 122.906 112.28 123.054 112.436C123.21 112.583 123.4 112.704 123.626 112.8C123.86 112.886 124.18 112.986 124.588 113.099C125.099 113.237 125.515 113.376 125.836 113.515C126.156 113.645 126.429 113.844 126.655 114.113C126.889 114.381 127.01 114.732 127.019 115.166C127.019 115.556 126.91 115.907 126.694 116.219C126.477 116.531 126.169 116.778 125.771 116.96C125.381 117.133 124.93 117.22 124.419 117.22Z" fill="#FBFDFF"/>
<path d="M47.1654 148.603L53.0404 142.728L51.8737 141.561L47.1654 146.269L44.7904 143.894L43.6237 145.061L47.1654 148.603ZM42.4987 152.603C42.0404 152.603 41.6479 152.439 41.3212 152.113C40.9951 151.787 40.832 151.394 40.832 150.936V139.269C40.832 138.811 40.9951 138.418 41.3212 138.092C41.6479 137.766 42.0404 137.603 42.4987 137.603H54.1654C54.6237 137.603 55.0162 137.766 55.3429 138.092C55.669 138.418 55.832 138.811 55.832 139.269V150.936C55.832 151.394 55.669 151.787 55.3429 152.113C55.0162 152.439 54.6237 152.603 54.1654 152.603H42.4987Z" fill="#0389FF"/>
<g opacity="0.7" clip-path="url(#clip0_16479_1538)">
<path d="M75.3426 138.049C74.6555 138.369 74.2318 138.805 73.9226 139.492C73.6249 140.156 73.6135 141.278 73.8997 142.114C74.1173 142.732 74.1173 142.744 73.8768 143.236C73.6364 143.729 73.6364 143.729 73.0294 143.729C72.4569 143.729 72.4225 143.717 72.537 143.5C72.6057 143.385 72.8806 143.087 73.1554 142.858C73.5905 142.492 73.6478 142.412 73.5333 142.228C73.3501 141.931 73.2928 141.954 72.7432 142.435C70.4414 144.519 70.304 148.389 72.4569 150.702C74.2662 152.638 77.5641 153.016 79.82 151.527C81.5148 150.428 82.3851 148.779 82.3851 146.706C82.3851 145.023 81.7324 143.477 80.5758 142.435C80.0262 141.942 79.9689 141.931 79.7857 142.228C79.6597 142.423 79.6941 142.492 80.0376 142.744C80.2437 142.904 80.53 143.19 80.6674 143.385L80.9079 143.729H80.301C79.6826 143.729 79.6826 143.729 79.4422 143.236C79.2017 142.744 79.2017 142.732 79.4193 142.114C79.8659 140.808 79.591 139.331 78.7665 138.553C77.9077 137.751 76.4305 137.533 75.3426 138.049ZM77.7245 138.53C79.7055 139.537 79.5338 141.908 77.3008 144.255L76.6595 144.931L75.9724 144.198C74.3807 142.503 73.8425 140.9 74.4608 139.663C75.0563 138.438 76.5335 137.934 77.7245 138.53ZM74.6899 143.591C74.7128 143.671 74.6326 143.729 74.4952 143.729C74.3349 143.729 74.2776 143.671 74.3349 143.557C74.4036 143.362 74.6212 143.385 74.6899 143.591ZM78.9956 143.557C79.0414 143.671 78.9841 143.729 78.8352 143.729C78.6062 143.729 78.5375 143.603 78.6864 143.465C78.8009 143.339 78.9154 143.374 78.9956 143.557ZM73.4073 144.496C73.373 144.679 73.3043 145.194 73.2699 145.641L73.1898 146.477H72.308H71.4263L71.5293 145.824C71.5866 145.458 71.724 144.942 71.85 144.679L72.0675 144.187H72.7775H73.476L73.4073 144.496ZM75.7777 144.851C76.3618 145.446 76.4305 145.561 76.4305 145.996V146.477H75.0563C73.6822 146.477 73.6822 146.477 73.728 146.213C73.7623 146.076 73.8081 145.687 73.8539 145.355C73.9684 144.324 74.0601 144.187 74.6326 144.187C75.0792 144.187 75.1823 144.244 75.7777 144.851ZM79.362 144.759C79.4307 145.045 79.5109 145.549 79.5452 145.87L79.6025 146.477H78.2512H76.8885V145.996C76.8885 145.561 76.9572 145.446 77.5527 144.839C78.1711 144.21 78.2283 144.175 78.7207 144.21C79.2246 144.244 79.236 144.255 79.362 144.759ZM81.469 144.713C81.595 145 81.7439 145.515 81.7897 145.858L81.8927 146.477H81.011H80.1292L80.0491 145.641C80.0147 145.194 79.946 144.679 79.9117 144.496L79.8429 144.187H80.5415H81.2515L81.469 144.713ZM73.2699 147.759C73.3043 148.217 73.373 148.733 73.4073 148.905L73.476 149.225H72.7775C72.1362 149.225 72.0675 149.202 71.9187 148.905C71.7583 148.595 71.5866 147.988 71.4606 147.301L71.4034 146.935H72.2966H73.1898L73.2699 147.759ZM76.4305 147.221C76.4305 147.427 76.4877 147.507 76.6595 147.507C76.8313 147.507 76.8885 147.427 76.8885 147.221V146.935H78.2512H79.6254L79.5681 147.359C79.5338 147.599 79.4536 148.114 79.3849 148.504L79.2704 149.225H78.0795C76.9687 149.225 76.8885 149.214 76.8885 148.996C76.8885 148.847 76.8084 148.767 76.6595 148.767C76.5106 148.767 76.4305 148.847 76.4305 148.996C76.4305 149.214 76.3503 149.225 75.2395 149.225H74.0486L73.9341 148.504C73.8654 148.114 73.7852 147.599 73.7509 147.359L73.6936 146.935H75.0678H76.4305V147.221ZM81.8584 147.301C81.7324 147.988 81.5606 148.595 81.4003 148.905C81.2515 149.202 81.1827 149.225 80.5415 149.225H79.8429L79.9117 148.905C79.946 148.733 80.0147 148.217 80.0491 147.759L80.1292 146.935H81.0224H81.9271L81.8584 147.301ZM73.8654 150.164C73.9799 150.428 74.1975 150.828 74.3463 151.034C74.4952 151.252 74.5868 151.447 74.5639 151.47C74.4379 151.607 72.7432 150.302 72.5256 149.901C72.4225 149.706 72.4683 149.683 73.0294 149.683C73.6478 149.683 73.6478 149.683 73.8654 150.164ZM76.4305 150.771C76.4305 152.008 76.3389 152.099 75.6174 151.573C75.1365 151.206 74.896 150.92 74.5296 150.221L74.2547 149.683H75.3426H76.4305V150.771ZM78.7894 150.221C78.423 150.92 78.1825 151.206 77.7016 151.573C76.9801 152.099 76.8885 152.008 76.8885 150.771V149.683H77.9764H79.0643L78.7894 150.221ZM80.7934 149.901C80.5758 150.302 78.881 151.607 78.7551 151.47C78.7322 151.447 78.8238 151.252 78.9727 151.034C79.1215 150.828 79.3391 150.428 79.4536 150.164C79.6712 149.683 79.6712 149.683 80.2895 149.683C80.8507 149.683 80.8965 149.706 80.7934 149.901Z" fill="#FBFDFF"/>
<path d="M75.6533 138.873C75.0006 139.205 74.6685 139.755 74.6227 140.591C74.5769 141.209 74.6112 141.393 74.8632 141.805C75.6419 143.145 77.6687 143.156 78.4474 141.828C78.9856 140.923 78.7223 139.606 77.8978 139.022C77.4054 138.667 76.2144 138.587 75.6533 138.873ZM77.3023 139.366C78.1497 139.755 78.0352 139.835 76.661 139.835C75.7564 139.835 75.4128 139.801 75.4701 139.709C75.5617 139.549 76.4206 139.148 76.661 139.148C76.7526 139.148 77.0504 139.251 77.3023 139.366ZM78.207 140.522C78.2413 140.648 78.2413 140.854 78.207 140.98C78.1382 141.198 78.0352 141.209 76.661 141.209C75.2869 141.209 75.1838 141.198 75.1151 140.98C75.0808 140.854 75.0808 140.648 75.1151 140.522C75.1838 140.305 75.2869 140.293 76.661 140.293C78.0352 140.293 78.1382 140.305 78.207 140.522ZM77.6344 141.896C77.3481 142.217 76.7526 142.355 76.2717 142.229C76.0656 142.171 75.8022 142.022 75.6877 141.896C75.4815 141.667 75.493 141.667 76.661 141.667C77.8291 141.667 77.8405 141.667 77.6344 141.896Z" fill="#FBFDFF"/>
<path d="M75.3984 148.08C75.3984 148.252 75.4786 148.309 75.6847 148.309C75.8908 148.309 75.971 148.252 75.971 148.08C75.971 147.908 75.8908 147.851 75.6847 147.851C75.4786 147.851 75.3984 147.908 75.3984 148.08Z" fill="#FBFDFF"/>
<path d="M76.3712 147.966C76.3254 148.046 76.3369 148.149 76.4056 148.218C76.5659 148.378 76.9438 148.286 76.9438 148.08C76.9438 147.874 76.4857 147.783 76.3712 147.966Z" fill="#FBFDFF"/>
<path d="M77.3477 148.08C77.3477 148.252 77.4278 148.309 77.6339 148.309C77.8401 148.309 77.9202 148.252 77.9202 148.08C77.9202 147.908 77.8401 147.851 77.6339 147.851C77.4278 147.851 77.3477 147.908 77.3477 148.08Z" fill="#FBFDFF"/>
</g>
<path opacity="0.7" d="M95.7631 145.566C95.7631 144.682 95.9624 143.889 96.3611 143.187C96.7598 142.476 97.3014 141.921 97.9861 141.523C98.6794 141.124 99.4464 140.925 100.287 140.925C101.275 140.925 102.137 141.163 102.874 141.64C103.611 142.116 104.148 142.792 104.486 143.668H103.069C102.818 143.122 102.454 142.701 101.977 142.407C101.509 142.112 100.946 141.965 100.287 141.965C99.6544 141.965 99.0868 142.112 98.5841 142.407C98.0814 142.701 97.6871 143.122 97.4011 143.668C97.1151 144.205 96.9721 144.838 96.9721 145.566C96.9721 146.285 97.1151 146.918 97.4011 147.464C97.6871 148.001 98.0814 148.417 98.5841 148.712C99.0868 149.006 99.6544 149.154 100.287 149.154C100.946 149.154 101.509 149.011 101.977 148.725C102.454 148.43 102.818 148.01 103.069 147.464H104.486C104.148 148.33 103.611 149.002 102.874 149.479C102.137 149.947 101.275 150.181 100.287 150.181C99.4464 150.181 98.6794 149.986 97.9861 149.596C97.3014 149.197 96.7598 148.647 96.3611 147.945C95.9624 147.243 95.7631 146.45 95.7631 145.566ZM109.354 150.22C108.687 150.22 108.08 150.068 107.534 149.765C106.997 149.461 106.572 149.032 106.26 148.478C105.957 147.914 105.805 147.264 105.805 146.528C105.805 145.8 105.961 145.158 106.273 144.604C106.594 144.04 107.027 143.611 107.573 143.317C108.119 143.013 108.73 142.862 109.406 142.862C110.082 142.862 110.693 143.013 111.239 143.317C111.785 143.611 112.214 144.036 112.526 144.591C112.847 145.145 113.007 145.791 113.007 146.528C113.007 147.264 112.842 147.914 112.513 148.478C112.192 149.032 111.755 149.461 111.2 149.765C110.645 150.068 110.03 150.22 109.354 150.22ZM109.354 149.18C109.779 149.18 110.177 149.08 110.55 148.881C110.923 148.681 111.222 148.382 111.447 147.984C111.681 147.585 111.798 147.1 111.798 146.528C111.798 145.956 111.685 145.47 111.46 145.072C111.235 144.673 110.94 144.378 110.576 144.188C110.212 143.988 109.818 143.889 109.393 143.889C108.96 143.889 108.561 143.988 108.197 144.188C107.842 144.378 107.556 144.673 107.339 145.072C107.122 145.47 107.014 145.956 107.014 146.528C107.014 147.108 107.118 147.598 107.326 147.997C107.543 148.395 107.829 148.694 108.184 148.894C108.539 149.084 108.929 149.18 109.354 149.18ZM120.881 142.979V150.103H119.698V149.05C119.472 149.414 119.156 149.7 118.749 149.908C118.35 150.107 117.908 150.207 117.423 150.207C116.868 150.207 116.37 150.094 115.928 149.869C115.486 149.635 115.135 149.288 114.875 148.829C114.623 148.369 114.498 147.81 114.498 147.152V142.979H115.668V146.996C115.668 147.698 115.845 148.239 116.201 148.621C116.556 148.993 117.041 149.18 117.657 149.18C118.289 149.18 118.788 148.985 119.152 148.595C119.516 148.205 119.698 147.637 119.698 146.892V142.979H120.881ZM126.349 142.849C127.216 142.849 127.918 143.113 128.455 143.642C128.992 144.162 129.261 144.916 129.261 145.904V150.103H128.091V146.073C128.091 145.362 127.913 144.82 127.558 144.448C127.203 144.066 126.717 143.876 126.102 143.876C125.478 143.876 124.98 144.071 124.607 144.461C124.243 144.851 124.061 145.418 124.061 146.164V150.103H122.878V142.979H124.061V143.993C124.295 143.629 124.611 143.347 125.01 143.148C125.417 142.948 125.864 142.849 126.349 142.849ZM132.636 143.954V148.153C132.636 148.499 132.71 148.746 132.857 148.894C133.005 149.032 133.26 149.102 133.624 149.102H134.495V150.103H133.429C132.771 150.103 132.277 149.951 131.947 149.648C131.618 149.344 131.453 148.846 131.453 148.153V143.954H130.53V142.979H131.453V141.185H132.636V142.979H134.495V143.954H132.636ZM137.112 144.136C137.32 143.728 137.614 143.412 137.996 143.187C138.386 142.961 138.858 142.849 139.413 142.849V144.071H139.101C137.775 144.071 137.112 144.79 137.112 146.229V150.103H135.929V142.979H137.112V144.136ZM146.914 142.979L142.624 153.457H141.402L142.806 150.025L139.933 142.979H141.246L143.482 148.751L145.692 142.979H146.914ZM151.127 145.566C151.127 144.682 151.327 143.889 151.725 143.187C152.124 142.476 152.666 141.921 153.35 141.523C154.044 141.124 154.811 140.925 155.651 140.925C156.639 140.925 157.502 141.163 158.238 141.64C158.975 142.116 159.512 142.792 159.85 143.668H158.433C158.182 143.122 157.818 142.701 157.341 142.407C156.873 142.112 156.31 141.965 155.651 141.965C155.019 141.965 154.451 142.112 153.948 142.407C153.446 142.701 153.051 143.122 152.765 143.668C152.479 144.205 152.336 144.838 152.336 145.566C152.336 146.285 152.479 146.918 152.765 147.464C153.051 148.001 153.446 148.417 153.948 148.712C154.451 149.006 155.019 149.154 155.651 149.154C156.31 149.154 156.873 149.011 157.341 148.725C157.818 148.43 158.182 148.01 158.433 147.464H159.85C159.512 148.33 158.975 149.002 158.238 149.479C157.502 149.947 156.639 150.181 155.651 150.181C154.811 150.181 154.044 149.986 153.35 149.596C152.666 149.197 152.124 148.647 151.725 147.945C151.327 147.243 151.127 146.45 151.127 145.566ZM164.718 150.22C164.051 150.22 163.444 150.068 162.898 149.765C162.361 149.461 161.936 149.032 161.624 148.478C161.321 147.914 161.169 147.264 161.169 146.528C161.169 145.8 161.325 145.158 161.637 144.604C161.958 144.04 162.391 143.611 162.937 143.317C163.483 143.013 164.094 142.862 164.77 142.862C165.446 142.862 166.057 143.013 166.603 143.317C167.149 143.611 167.578 144.036 167.89 144.591C168.211 145.145 168.371 145.791 168.371 146.528C168.371 147.264 168.207 147.914 167.877 148.478C167.557 149.032 167.119 149.461 166.564 149.765C166.01 150.068 165.394 150.22 164.718 150.22ZM164.718 149.18C165.143 149.18 165.542 149.08 165.914 148.881C166.287 148.681 166.586 148.382 166.811 147.984C167.045 147.585 167.162 147.1 167.162 146.528C167.162 145.956 167.05 145.47 166.824 145.072C166.599 144.673 166.304 144.378 165.94 144.188C165.576 143.988 165.182 143.889 164.757 143.889C164.324 143.889 163.925 143.988 163.561 144.188C163.206 144.378 162.92 144.673 162.703 145.072C162.487 145.47 162.378 145.956 162.378 146.528C162.378 147.108 162.482 147.598 162.69 147.997C162.907 148.395 163.193 148.694 163.548 148.894C163.904 149.084 164.294 149.18 164.718 149.18ZM169.485 146.515C169.485 145.787 169.632 145.15 169.927 144.604C170.221 144.049 170.624 143.62 171.136 143.317C171.656 143.013 172.236 142.862 172.878 142.862C173.432 142.862 173.948 142.992 174.425 143.252C174.901 143.503 175.265 143.837 175.517 144.253V140.483H176.713V150.103H175.517V148.764C175.283 149.188 174.936 149.539 174.477 149.817C174.017 150.085 173.48 150.22 172.865 150.22C172.232 150.22 171.656 150.064 171.136 149.752C170.624 149.44 170.221 149.002 169.927 148.439C169.632 147.875 169.485 147.234 169.485 146.515ZM175.517 146.528C175.517 145.99 175.408 145.522 175.192 145.124C174.975 144.725 174.68 144.422 174.308 144.214C173.944 143.997 173.541 143.889 173.099 143.889C172.657 143.889 172.254 143.993 171.89 144.201C171.526 144.409 171.235 144.712 171.019 145.111C170.802 145.509 170.694 145.977 170.694 146.515C170.694 147.061 170.802 147.537 171.019 147.945C171.235 148.343 171.526 148.651 171.89 148.868C172.254 149.076 172.657 149.18 173.099 149.18C173.541 149.18 173.944 149.076 174.308 148.868C174.68 148.651 174.975 148.343 175.192 147.945C175.408 147.537 175.517 147.065 175.517 146.528ZM185.212 146.268C185.212 146.493 185.199 146.731 185.173 146.983H179.479C179.522 147.685 179.761 148.235 180.194 148.634C180.636 149.024 181.169 149.219 181.793 149.219C182.304 149.219 182.729 149.102 183.067 148.868C183.414 148.625 183.656 148.304 183.795 147.906H185.069C184.878 148.59 184.497 149.149 183.925 149.583C183.353 150.007 182.642 150.22 181.793 150.22C181.117 150.22 180.51 150.068 179.973 149.765C179.444 149.461 179.028 149.032 178.725 148.478C178.422 147.914 178.27 147.264 178.27 146.528C178.27 145.791 178.417 145.145 178.712 144.591C179.007 144.036 179.418 143.611 179.947 143.317C180.484 143.013 181.1 142.862 181.793 142.862C182.469 142.862 183.067 143.009 183.587 143.304C184.107 143.598 184.506 144.006 184.783 144.526C185.069 145.037 185.212 145.618 185.212 146.268ZM183.99 146.021C183.99 145.57 183.89 145.184 183.691 144.864C183.492 144.534 183.219 144.287 182.872 144.123C182.534 143.949 182.157 143.863 181.741 143.863C181.143 143.863 180.632 144.053 180.207 144.435C179.791 144.816 179.553 145.345 179.492 146.021H183.99Z" fill="#FBFDFF"/>
<path d="M47.1654 181.603L53.0404 175.728L51.8737 174.561L47.1654 179.269L44.7904 176.894L43.6237 178.061L47.1654 181.603ZM42.4987 185.603C42.0404 185.603 41.6479 185.439 41.3212 185.113C40.9951 184.787 40.832 184.394 40.832 183.936V172.269C40.832 171.811 40.9951 171.418 41.3212 171.092C41.6479 170.766 42.0404 170.603 42.4987 170.603H54.1654C54.6237 170.603 55.0162 170.766 55.3429 171.092C55.669 171.418 55.832 171.811 55.832 172.269V183.936C55.832 184.394 55.669 184.787 55.3429 185.113C55.0162 185.439 54.6237 185.603 54.1654 185.603H42.4987Z" fill="#0389FF"/>
<g opacity="0.7">
<path d="M73.3378 176.178C72.8568 176.307 72.4675 176.627 72.2499 177.068C72.0781 177.415 72.0781 177.409 72.0781 179.968C72.0781 182.556 72.0781 182.533 72.2642 182.903C72.4503 183.272 72.7452 183.541 73.1517 183.707L73.3521 183.79L77.3285 183.799C81.7172 183.807 81.4453 183.816 81.8375 183.624C82.098 183.498 82.3986 183.195 82.5331 182.923C82.7335 182.525 82.7307 182.582 82.7221 179.882C82.7135 177.466 82.7135 177.463 82.6505 177.274C82.5675 177.034 82.3929 176.765 82.1953 176.573C82.0178 176.404 81.6543 176.212 81.4166 176.164C81.3107 176.141 80.0625 176.132 77.3801 176.135C74.0477 176.135 73.4723 176.141 73.3378 176.178ZM81.1733 176.647C81.4338 176.682 81.6858 176.805 81.8747 176.994C82.0522 177.171 82.1896 177.455 82.1953 177.655L82.1982 177.798L79.8822 178.797C78.6082 179.347 77.5432 179.796 77.5203 179.796C77.4946 179.796 76.3752 179.376 75.0354 178.86L72.5934 177.921V177.787C72.5934 177.495 72.7824 177.103 73.0171 176.914C73.1889 176.776 73.4151 176.673 73.6069 176.65C73.8588 176.616 80.9214 176.616 81.1733 176.647ZM82.2068 180.389L82.1982 182.416L82.1295 182.565C82.0923 182.648 82.0551 182.717 82.0436 182.714C82.035 182.714 81.6085 182.216 81.096 181.609C80.5836 181.002 79.9881 180.295 79.7734 180.04L79.384 179.576L80.7754 178.972C81.5426 178.64 82.1782 178.368 82.1925 178.368C82.2039 178.365 82.2096 179.275 82.2068 180.389ZM74.1594 179.075C74.9667 179.384 75.628 179.648 75.628 179.662C75.628 179.673 74.9868 180.38 74.2052 181.234L72.7824 182.785L72.6936 182.602L72.6077 182.416L72.5992 180.443C72.5906 178.563 72.5934 178.474 72.6421 178.491C72.6707 178.502 73.3549 178.766 74.1594 179.075ZM80.2801 181.443C81.0445 182.347 81.6686 183.1 81.6686 183.114C81.6686 183.149 81.4195 183.255 81.2477 183.289C81.1561 183.309 79.8421 183.318 77.3171 183.312L73.5238 183.303L73.3521 183.232C73.2576 183.192 73.1803 183.152 73.1803 183.14C73.1803 183.129 73.8559 182.384 74.6804 181.486C75.8198 180.243 76.1891 179.854 76.2264 179.868C76.2521 179.879 76.5212 179.983 76.8218 180.1C77.5547 180.383 77.5089 180.383 78.2618 180.057C78.5853 179.917 78.8573 179.802 78.8687 179.799C78.8802 179.796 79.5129 180.538 80.2801 181.443Z" fill="#FBFDFF"/>
<path d="M71.3713 177.363C71.0822 177.423 70.8131 177.638 70.6871 177.916L70.6041 178.093L70.5955 181.028C70.5898 183.066 70.5984 184.019 70.6184 184.148C70.7157 184.718 71.1738 185.216 71.7378 185.365C71.9754 185.431 80.7614 185.428 80.9732 185.365C81.4313 185.23 81.7777 184.847 81.8693 184.386C81.9151 184.162 81.8893 184.025 81.792 183.948C81.6202 183.813 81.3826 183.933 81.3826 184.16C81.3826 184.417 81.1736 184.723 80.9188 184.838L80.7671 184.907H76.3583H71.9496L71.7922 184.844C71.5689 184.752 71.4114 184.629 71.294 184.452C71.0993 184.157 71.1051 184.277 71.1051 181.102C71.1051 178.265 71.1051 178.239 71.1652 178.119C71.1967 178.05 71.2654 177.97 71.3141 177.939C71.3971 177.887 71.4429 177.873 71.6404 177.833C71.7435 177.813 71.8208 177.71 71.8208 177.592C71.8208 177.4 71.6404 177.306 71.3713 177.363Z" fill="#FBFDFF"/>
</g>
<path opacity="0.7" d="M97.4711 175.004V178.033H100.773V179.008H97.4711V182.128H101.163V183.103H96.2881V174.029H101.163V175.004H97.4711ZM107.893 177.838V178.839H102.706V177.838H107.893ZM118.68 175.849C119.235 175.849 119.729 175.966 120.162 176.2C120.596 176.425 120.938 176.767 121.189 177.227C121.441 177.686 121.566 178.245 121.566 178.904V183.103H120.396V179.073C120.396 178.362 120.219 177.82 119.863 177.448C119.517 177.066 119.044 176.876 118.446 176.876C117.831 176.876 117.341 177.075 116.977 177.474C116.613 177.864 116.431 178.431 116.431 179.177V183.103H115.261V179.073C115.261 178.362 115.084 177.82 114.728 177.448C114.382 177.066 113.909 176.876 113.311 176.876C112.696 176.876 112.206 177.075 111.842 177.474C111.478 177.864 111.296 178.431 111.296 179.177V183.103H110.113V175.979H111.296V177.006C111.53 176.633 111.842 176.347 112.232 176.148C112.631 175.948 113.069 175.849 113.545 175.849C114.143 175.849 114.672 175.983 115.131 176.252C115.591 176.52 115.933 176.915 116.158 177.435C116.358 176.932 116.687 176.542 117.146 176.265C117.606 175.987 118.117 175.849 118.68 175.849ZM123.065 179.515C123.065 178.787 123.212 178.15 123.507 177.604C123.802 177.049 124.205 176.62 124.716 176.317C125.236 176.013 125.812 175.862 126.445 175.862C127.069 175.862 127.611 175.996 128.07 176.265C128.529 176.533 128.872 176.871 129.097 177.279V175.979H130.293V183.103H129.097V181.777C128.863 182.193 128.512 182.539 128.044 182.817C127.585 183.085 127.047 183.22 126.432 183.22C125.799 183.22 125.227 183.064 124.716 182.752C124.205 182.44 123.802 182.002 123.507 181.439C123.212 180.875 123.065 180.234 123.065 179.515ZM129.097 179.528C129.097 178.99 128.989 178.522 128.772 178.124C128.555 177.725 128.261 177.422 127.888 177.214C127.524 176.997 127.121 176.889 126.679 176.889C126.237 176.889 125.834 176.993 125.47 177.201C125.106 177.409 124.816 177.712 124.599 178.111C124.382 178.509 124.274 178.977 124.274 179.515C124.274 180.061 124.382 180.537 124.599 180.945C124.816 181.343 125.106 181.651 125.47 181.868C125.834 182.076 126.237 182.18 126.679 182.18C127.121 182.18 127.524 182.076 127.888 181.868C128.261 181.651 128.555 181.343 128.772 180.945C128.989 180.537 129.097 180.065 129.097 179.528ZM132.903 174.822C132.678 174.822 132.487 174.744 132.331 174.588C132.175 174.432 132.097 174.241 132.097 174.016C132.097 173.79 132.175 173.6 132.331 173.444C132.487 173.288 132.678 173.21 132.903 173.21C133.12 173.21 133.302 173.288 133.449 173.444C133.605 173.6 133.683 173.79 133.683 174.016C133.683 174.241 133.605 174.432 133.449 174.588C133.302 174.744 133.12 174.822 132.903 174.822ZM133.475 175.979V183.103H132.292V175.979H133.475ZM136.674 173.483V183.103H135.491V173.483H136.674Z" fill="#FBFDFF"/>
<rect x="21.4805" y="23.8975" width="188.36" height="184.41" rx="21.5" stroke="white" stroke-opacity="0.1"/>
</g>
</g>
<defs>
<filter id="filter0_b_16479_1538" x="-3.5" y="-3.67578" width="239" height="236.682" filterUnits="userSpaceOnUse" color-interpolation-filters="sRGB">
<feFlood flood-opacity="0" result="BackgroundImageFix"/>
<feGaussianBlur in="BackgroundImageFix" stdDeviation="2"/>
<feComposite in2="SourceAlpha" operator="in" result="effect1_backgroundBlur_16479_1538"/>
<feBlend mode="normal" in="SourceGraphic" in2="effect1_backgroundBlur_16479_1538" result="shape"/>
</filter>
<filter id="filter1_b_16479_1538" x="-42.0195" y="-39.6025" width="315.359" height="311.41" filterUnits="userSpaceOnUse" color-interpolation-filters="sRGB">
<feFlood flood-opacity="0" result="BackgroundImageFix"/>
<feGaussianBlur in="BackgroundImageFix" stdDeviation="31.5"/>
<feComposite in2="SourceAlpha" operator="in" result="effect1_backgroundBlur_16479_1538"/>
<feBlend mode="normal" in="SourceGraphic" in2="effect1_backgroundBlur_16479_1538" result="shape"/>
</filter>
<clipPath id="clip0_16479_1538">
<rect width="14.6576" height="14.6576" fill="white" transform="translate(69.332 137.774)"/>
</clipPath>
</defs>
</svg>
