<svg width="16" height="16" viewBox="0 0 16 16" fill="none" xmlns="http://www.w3.org/2000/svg">
<path d="M7.16536 11.6025L13.0404 5.72754L11.8737 4.56087L7.16536 9.26921L4.79036 6.89421L3.6237 8.06087L7.16536 11.6025ZM2.4987 15.6025C2.04036 15.6025 1.64786 15.4395 1.3212 15.1134C0.995087 14.7867 0.832031 14.3942 0.832031 13.9359V2.26921C0.832031 1.81087 0.995087 1.41837 1.3212 1.09171C1.64786 0.765595 2.04036 0.602539 2.4987 0.602539H14.1654C14.6237 0.602539 15.0162 0.765595 15.3429 1.09171C15.669 1.41837 15.832 1.81087 15.832 2.26921V13.9359C15.832 14.3942 15.669 14.7867 15.3429 15.1134C15.0162 15.4395 14.6237 15.6025 14.1654 15.6025H2.4987Z" fill="#0389FF"/>
</svg>
