<svg width="13" height="16" viewBox="0 0 13 16" fill="none" xmlns="http://www.w3.org/2000/svg">
<path d="M5.3426 1.04872C4.65552 1.36936 4.23182 1.80451 3.92264 2.49158C3.6249 3.15576 3.61345 4.27798 3.89973 5.11393C4.11731 5.7323 4.11731 5.74375 3.87683 6.23615C3.63635 6.72856 3.63635 6.72856 3.02944 6.72856C2.45687 6.72856 2.42252 6.71711 2.53703 6.49953C2.60574 6.38502 2.88057 6.08729 3.1554 5.85826C3.59055 5.49182 3.64781 5.41166 3.53329 5.22844C3.35007 4.93071 3.29282 4.95361 2.74315 5.43456C0.441447 7.5187 0.304031 11.3892 2.45687 13.7024C4.26618 15.6377 7.56414 16.0155 9.82005 14.5269C11.5148 13.4276 12.3851 11.7786 12.3851 9.70589C12.3851 8.02255 11.7324 6.47663 10.5758 5.43456C10.0262 4.94216 9.96891 4.93071 9.78569 5.22844C9.65973 5.42311 9.69408 5.49182 10.0376 5.74375C10.2437 5.90407 10.53 6.19035 10.6674 6.38502L10.9079 6.72856H10.301C9.68263 6.72856 9.68263 6.72856 9.44215 6.23615C9.20168 5.74375 9.20168 5.7323 9.41925 5.11393C9.86585 3.80848 9.59102 2.33127 8.76653 1.55258C7.90768 0.750989 6.43047 0.533415 5.3426 1.04872ZM7.72446 1.52968C9.70553 2.53739 9.53376 4.9078 7.30077 7.25532L6.65949 7.93094L5.97242 7.19806C4.38069 5.50327 3.84248 3.90009 4.46085 2.66335C5.05631 1.43807 6.53353 0.934209 7.72446 1.52968ZM4.68987 6.59114C4.71277 6.6713 4.63262 6.72856 4.4952 6.72856C4.33488 6.72856 4.27763 6.6713 4.33488 6.55679C4.40359 6.36212 4.62116 6.38502 4.68987 6.59114ZM8.99555 6.55679C9.04136 6.6713 8.9841 6.72856 8.83524 6.72856C8.60621 6.72856 8.5375 6.60259 8.68637 6.46518C8.80088 6.33921 8.9154 6.37357 8.99555 6.55679ZM3.40733 7.49579C3.37298 7.67901 3.30427 8.19432 3.26991 8.64092L3.18975 9.47687H2.30801H1.42626L1.52932 8.82414C1.58658 8.4577 1.72399 7.94239 1.84995 7.67901L2.06753 7.18661H2.77751H3.47604L3.40733 7.49579ZM5.77774 7.85078C6.36176 8.44625 6.43047 8.56076 6.43047 8.99591V9.47687H5.05631C3.68216 9.47687 3.68216 9.47687 3.72796 9.21349C3.76232 9.07607 3.80812 8.68673 3.85393 8.35464C3.96844 7.32402 4.06005 7.18661 4.63262 7.18661C5.07922 7.18661 5.18228 7.24387 5.77774 7.85078ZM9.362 7.75917C9.4307 8.04545 9.51086 8.54931 9.54522 8.86995L9.60247 9.47687H8.25122H6.88852V8.99591C6.88852 8.56076 6.95723 8.44625 7.55269 7.83933C8.17106 7.20951 8.22832 7.17516 8.72072 7.20951C9.22458 7.24387 9.23603 7.25532 9.362 7.75917ZM11.469 7.71337C11.595 7.99965 11.7439 8.51496 11.7897 8.8585L11.8927 9.47687H11.011H10.1292L10.0491 8.64092C10.0147 8.19432 9.94601 7.67901 9.91166 7.49579L9.84295 7.18661H10.5415H11.2515L11.469 7.71337ZM3.26991 10.7594C3.30427 11.2175 3.37298 11.7328 3.40733 11.9045L3.47604 12.2252H2.77751C2.13624 12.2252 2.06753 12.2023 1.91866 11.9045C1.75834 11.5954 1.58658 10.9884 1.46061 10.3014L1.40335 9.93492H2.29655H3.18975L3.26991 10.7594ZM6.43047 10.2212C6.43047 10.4273 6.48772 10.5075 6.65949 10.5075C6.83126 10.5075 6.88852 10.4273 6.88852 10.2212V9.93492H8.25122H9.62537L9.56812 10.3586C9.53376 10.5991 9.45361 11.1144 9.3849 11.5037L9.27039 12.2252H8.07945C6.96868 12.2252 6.88852 12.2137 6.88852 11.9961C6.88852 11.8473 6.80836 11.7671 6.65949 11.7671C6.51063 11.7671 6.43047 11.8473 6.43047 11.9961C6.43047 12.2137 6.35031 12.2252 5.23953 12.2252H4.0486L3.93409 11.5037C3.86538 11.1144 3.78522 10.5991 3.75087 10.3586L3.69361 9.93492H5.06776H6.43047V10.2212ZM11.8584 10.3014C11.7324 10.9884 11.5606 11.5954 11.4003 11.9045C11.2515 12.2023 11.1827 12.2252 10.5415 12.2252H9.84295L9.91166 11.9045C9.94601 11.7328 10.0147 11.2175 10.0491 10.7594L10.1292 9.93492H11.0224H11.9271L11.8584 10.3014ZM3.86538 13.1642C3.97989 13.4276 4.19747 13.8284 4.34633 14.0345C4.4952 14.2521 4.58681 14.4467 4.56391 14.4696C4.43794 14.607 2.74315 13.3016 2.52558 12.9008C2.42252 12.7061 2.46832 12.6832 3.02944 12.6832C3.64781 12.6832 3.64781 12.6832 3.86538 13.1642ZM6.43047 13.7711C6.43047 15.0078 6.33886 15.0994 5.61743 14.5727C5.13647 14.2062 4.896 13.92 4.52955 13.2214L4.25472 12.6832H5.3426H6.43047V13.7711ZM8.78943 13.2214C8.42299 13.92 8.18251 14.2062 7.70156 14.5727C6.98013 15.0994 6.88852 15.0078 6.88852 13.7711V12.6832H7.97639H9.06426L8.78943 13.2214ZM10.7934 12.9008C10.5758 13.3016 8.88104 14.607 8.75508 14.4696C8.73218 14.4467 8.82379 14.2521 8.97265 14.0345C9.12152 13.8284 9.33909 13.4276 9.45361 13.1642C9.67118 12.6832 9.67118 12.6832 10.2895 12.6832C10.8507 12.6832 10.8965 12.7061 10.7934 12.9008Z" fill="#FBFDFF"/>
<path d="M5.65332 1.87332C5.00059 2.2054 4.6685 2.75507 4.6227 3.59101C4.57689 4.20938 4.61125 4.3926 4.86318 4.80485C5.64186 6.14465 7.66874 6.1561 8.44743 4.82775C8.98564 3.9231 8.72226 2.6062 7.89777 2.02218C7.40536 1.66719 6.21443 1.58704 5.65332 1.87332ZM7.3023 2.36572C8.14969 2.75507 8.03518 2.83523 6.66103 2.83523C5.75638 2.83523 5.41284 2.80087 5.47009 2.70926C5.5617 2.54894 6.42055 2.14815 6.66103 2.14815C6.75264 2.14815 7.05037 2.25121 7.3023 2.36572ZM8.20695 3.5223C8.2413 3.64827 8.2413 3.85439 8.20695 3.98035C8.13824 4.19793 8.03518 4.20938 6.66103 4.20938C5.28687 4.20938 5.18381 4.19793 5.1151 3.98035C5.08075 3.85439 5.08075 3.64827 5.1151 3.5223C5.18381 3.30473 5.28687 3.29328 6.66103 3.29328C8.03518 3.29328 8.13824 3.30473 8.20695 3.5223ZM7.63439 4.89646C7.3481 5.21709 6.75264 5.35451 6.27168 5.22854C6.06556 5.17129 5.80218 5.02242 5.68767 4.89646C5.48155 4.66743 5.493 4.66743 6.66103 4.66743C7.82906 4.66743 7.84051 4.66743 7.63439 4.89646Z" fill="#FBFDFF"/>
<path d="M5.39844 11.0801C5.39844 11.2518 5.4786 11.3091 5.68472 11.3091C5.89084 11.3091 5.971 11.2518 5.971 11.0801C5.971 10.9083 5.89084 10.851 5.68472 10.851C5.4786 10.851 5.39844 10.9083 5.39844 11.0801Z" fill="#FBFDFF"/>
<path d="M6.37123 10.9657C6.32543 11.0459 6.33688 11.149 6.40559 11.2177C6.5659 11.378 6.9438 11.2864 6.9438 11.0803C6.9438 10.8741 6.48575 10.7825 6.37123 10.9657Z" fill="#FBFDFF"/>
<path d="M7.34766 11.0801C7.34766 11.2518 7.42782 11.3091 7.63394 11.3091C7.84006 11.3091 7.92022 11.2518 7.92022 11.0801C7.92022 10.9083 7.84006 10.851 7.63394 10.851C7.42782 10.851 7.34766 10.9083 7.34766 11.0801Z" fill="#FBFDFF"/>
</svg>
