<svg width="13" height="10" viewBox="0 0 13 10" fill="none" xmlns="http://www.w3.org/2000/svg">
<path d="M3.33777 0.177861C2.85681 0.306688 2.46747 0.627324 2.24989 1.0682C2.07812 1.4146 2.07812 1.40887 2.07812 3.96824C2.07812 6.55623 2.07812 6.53332 2.26421 6.90263C2.45029 7.27193 2.74516 7.54104 3.15168 7.70708L3.35208 7.7901L7.32854 7.79869C11.7172 7.80728 11.4453 7.81587 11.8375 7.62406C12.098 7.49809 12.3986 7.19463 12.5331 6.92267C12.7335 6.52473 12.7307 6.58199 12.7221 3.88235C12.7135 1.46613 12.7135 1.46327 12.6505 1.27432C12.5675 1.03384 12.3929 0.76474 12.1953 0.572931C12.0178 0.404024 11.6543 0.212215 11.4166 0.163548C11.3107 0.140645 10.0625 0.132056 7.38007 0.134919C4.04775 0.134919 3.47232 0.140645 3.33777 0.177861ZM11.1733 0.647364C11.4338 0.681718 11.6858 0.804819 11.8747 0.993765C12.0522 1.17126 12.1896 1.45468 12.1953 1.65508L12.1982 1.79822L9.88217 2.79734C8.60822 3.347 7.54325 3.79647 7.52035 3.79647C7.49458 3.79647 6.37522 3.37563 5.03542 2.86032L2.59343 1.92132V1.78677C2.59343 1.49476 2.78238 1.10255 3.01713 0.913606C3.1889 0.776191 3.41506 0.67313 3.60687 0.650227C3.8588 0.615873 10.9214 0.615873 11.1733 0.647364ZM12.2068 4.38907L12.1982 6.41595L12.1295 6.56481C12.0923 6.64784 12.0551 6.71654 12.0436 6.71368C12.035 6.71368 11.6085 6.21555 11.096 5.60863C10.5836 5.00171 9.9881 4.2946 9.77339 4.03981L9.38404 3.57603L10.7754 2.97197C11.5426 2.63989 12.1782 2.36792 12.1925 2.36792C12.2039 2.36506 12.2096 3.27543 12.2068 4.38907ZM4.1594 3.07504C4.96671 3.38422 5.62802 3.6476 5.62802 3.66191C5.62802 3.67337 4.98675 4.38048 4.2052 5.2336L2.78238 6.78525L2.69363 6.60203L2.60775 6.41595L2.59916 4.44346C2.59057 2.56259 2.59343 2.47384 2.6421 2.49102C2.67073 2.50247 3.35494 2.76585 4.1594 3.07504ZM10.2801 5.44259C11.0445 6.34724 11.6686 7.10016 11.6686 7.11448C11.6686 7.14883 11.4195 7.25475 11.2477 7.28911C11.1561 7.30915 9.84209 7.31774 7.31709 7.31201L3.52385 7.30342L3.35208 7.23185C3.25761 7.19177 3.18031 7.15169 3.18031 7.14024C3.18031 7.12879 3.85594 6.38446 4.68043 5.48553C5.81983 4.24307 6.18914 3.85372 6.22635 3.86804C6.25212 3.87949 6.52122 3.98255 6.82182 4.09993C7.5547 4.38335 7.5089 4.38335 8.26182 4.05698C8.58532 3.91671 8.85728 3.80219 8.86873 3.79933C8.88019 3.79647 9.51287 4.53794 10.2801 5.44259Z" fill="#FBFDFF"/>
<path d="M1.37132 1.36319C1.08217 1.42331 0.813066 1.63802 0.687102 1.91571L0.60408 2.0932L0.595491 5.0276C0.589766 7.06592 0.598354 8.01924 0.618394 8.14807C0.71573 8.71777 1.17378 9.2159 1.73776 9.36477C1.97537 9.43061 10.7614 9.42775 10.9732 9.36477C11.4313 9.23022 11.7777 8.8466 11.8693 8.38569C11.9151 8.16239 11.8893 8.02497 11.792 7.94767C11.6202 7.81312 11.3826 7.93336 11.3826 8.15952C11.3826 8.41718 11.1736 8.7235 10.9188 8.83801L10.7671 8.90672H6.35835H1.94961L1.79215 8.84374C1.56885 8.75213 1.4114 8.62902 1.29402 8.45153C1.09935 8.15666 1.10507 8.2769 1.10507 5.10203C1.10507 2.26497 1.10507 2.23921 1.16519 2.11897C1.19668 2.05026 1.26539 1.9701 1.31406 1.93861C1.39708 1.88708 1.44289 1.87277 1.64042 1.83269C1.74348 1.81265 1.82078 1.70959 1.82078 1.59221C1.82078 1.4004 1.64042 1.30593 1.37132 1.36319Z" fill="#FBFDFF"/>
</svg>
