<svg width="774" height="774" viewBox="0 0 774 774" fill="none" xmlns="http://www.w3.org/2000/svg">
<g filter="url(#filter0_f_16479_1379)">
<circle cx="386.884" cy="387.248" r="86.4976" fill="#0389FF"/>
</g>
<g filter="url(#filter1_b_16479_1379)">
<rect x="133.383" y="219.623" width="507" height="335.249" rx="22" fill="black" fill-opacity="0.33"/>
<g filter="url(#filter2_b_16479_1379)">
<rect x="155.574" y="240.497" width="267.806" height="24.8447" rx="6" fill="white" fill-opacity="0.08"/>
</g>
<g filter="url(#filter3_b_16479_1379)">
<rect x="155.574" y="279.599" width="153.5" height="15.2505" rx="6" fill="white" fill-opacity="0.08"/>
</g>
<g filter="url(#filter4_b_16479_1379)">
<rect x="155.574" y="317.429" width="109.536" height="13.5181" rx="5" fill="white" fill-opacity="0.24"/>
</g>
<g filter="url(#filter5_b_16479_1379)">
<rect x="155.574" y="397.377" width="216.61" height="13.5181" rx="5" fill="white" fill-opacity="0.08"/>
</g>
<g filter="url(#filter6_b_16479_1379)">
<rect x="155.574" y="497.639" width="66.671" height="13.5181" rx="5" fill="white" fill-opacity="0.08"/>
</g>
<g filter="url(#filter7_b_16479_1379)">
<rect x="335.199" y="497.639" width="66.671" height="13.5181" rx="5" fill="white" fill-opacity="0.08"/>
</g>
<g filter="url(#filter8_b_16479_1379)">
<rect x="524.648" y="497.639" width="66.671" height="13.5181" rx="5" fill="white" fill-opacity="0.08"/>
</g>
<g filter="url(#filter9_b_16479_1379)">
<rect x="155.574" y="335" width="461.247" height="7.08374" rx="3.54187" fill="white" fill-opacity="0.08"/>
</g>
<g filter="url(#filter10_b_16479_1379)">
<rect x="155.574" y="414.948" width="461.247" height="7.08374" rx="3.54187" fill="white" fill-opacity="0.08"/>
</g>
<g filter="url(#filter11_b_16479_1379)">
<rect x="155.574" y="515.21" width="92.1697" height="7.08374" rx="3.54187" fill="white" fill-opacity="0.24"/>
</g>
<g filter="url(#filter12_b_16479_1379)">
<rect x="155.574" y="526.293" width="92.1697" height="7.08374" rx="3.54187" fill="white" fill-opacity="0.08"/>
</g>
<g filter="url(#filter13_b_16479_1379)">
<rect x="335.199" y="515.21" width="92.1697" height="7.08374" rx="3.54187" fill="white" fill-opacity="0.24"/>
</g>
<g filter="url(#filter14_b_16479_1379)">
<rect x="335.199" y="526.293" width="92.1697" height="7.08374" rx="3.54187" fill="white" fill-opacity="0.08"/>
</g>
<g filter="url(#filter15_b_16479_1379)">
<rect x="524.648" y="515.21" width="92.1697" height="7.08374" rx="3.54187" fill="white" fill-opacity="0.08"/>
</g>
<g filter="url(#filter16_b_16479_1379)">
<rect x="155.574" y="346.136" width="461.247" height="7.08374" rx="3.54187" fill="white" fill-opacity="0.08"/>
</g>
<g filter="url(#filter17_b_16479_1379)">
<rect x="155.574" y="426.084" width="461.247" height="7.08374" rx="3.54187" fill="white" fill-opacity="0.08"/>
</g>
<g filter="url(#filter18_b_16479_1379)">
<rect x="155.574" y="357.273" width="461.247" height="7.08374" rx="3.54187" fill="white" fill-opacity="0.08"/>
</g>
<g filter="url(#filter19_b_16479_1379)">
<rect x="155.574" y="368.41" width="368.629" height="7.08374" rx="3.54187" fill="white" fill-opacity="0.08"/>
</g>
<g filter="url(#filter20_b_16479_1379)">
<rect x="155.574" y="437.221" width="461.247" height="7.08374" rx="3.54187" fill="white" fill-opacity="0.08"/>
</g>
<g filter="url(#filter21_b_16479_1379)">
<rect x="155.574" y="448.305" width="461.247" height="7.08374" rx="3.54187" fill="white" fill-opacity="0.08"/>
</g>
<g filter="url(#filter22_b_16479_1379)">
<rect x="155.574" y="459.389" width="461.247" height="7.08374" rx="3.54187" fill="white" fill-opacity="0.08"/>
</g>
<g filter="url(#filter23_b_16479_1379)">
<rect x="155.574" y="470.472" width="359.25" height="7.08374" rx="3.54187" fill="white" fill-opacity="0.08"/>
</g>
<rect x="153.125" y="316.297" width="114.433" height="15.782" rx="2" fill="#0389FF"/>
<rect x="210.812" y="436.515" width="72.699" height="8.44287" rx="2" fill="#0389FF"/>
<rect x="153.172" y="514.504" width="94.5719" height="8.44287" rx="3" fill="#0389FF"/>
<rect x="335.199" y="514.504" width="94.5719" height="8.44287" rx="3" fill="#0389FF"/>
<g filter="url(#filter24_bd_16479_1379)">
<g clip-path="url(#clip0_16479_1379)">
<rect x="372.746" y="163.748" width="268.2" height="447" rx="21.9971" fill="black" fill-opacity="0.5" shape-rendering="crispEdges"/>
<line opacity="0.3" x1="395.758" y1="251.945" x2="395.758" y2="537.517" stroke="#0389FF" stroke-width="0.999866" stroke-linecap="round" stroke-dasharray="4 4"/>
<rect x="382.758" y="243.056" width="24.9967" height="24.9967" rx="8.39095" fill="white" fill-opacity="0.08"/>
<path d="M395.059 251.51C394.965 251.524 394.823 251.556 394.741 251.582C394.658 251.609 394.52 251.67 394.432 251.719C394.314 251.786 394.224 251.857 394.085 251.995C393.956 252.124 393.874 252.225 393.819 252.322C393.776 252.399 393.718 252.524 393.692 252.599C393.666 252.671 393.632 252.811 393.615 252.905C393.595 253.028 393.589 253.127 393.598 253.247C393.604 253.338 393.625 253.478 393.643 253.555C393.662 253.631 393.707 253.758 393.743 253.835C393.778 253.912 393.84 254.026 393.881 254.087C393.924 254.149 394.016 254.257 394.087 254.328C394.158 254.399 394.263 254.489 394.319 254.526C394.375 254.565 394.463 254.616 394.516 254.642C394.566 254.668 394.664 254.707 394.731 254.728C394.799 254.748 394.904 254.777 394.965 254.79C395.027 254.801 395.158 254.81 395.256 254.81C395.353 254.81 395.484 254.801 395.546 254.79C395.608 254.777 395.712 254.748 395.78 254.728C395.847 254.707 395.943 254.668 395.995 254.642C396.046 254.616 396.136 254.565 396.192 254.526C396.248 254.489 396.353 254.399 396.424 254.328C396.495 254.257 396.587 254.149 396.63 254.087C396.671 254.026 396.733 253.912 396.769 253.835C396.804 253.758 396.849 253.631 396.868 253.555C396.886 253.478 396.907 253.338 396.913 253.247C396.922 253.127 396.916 253.028 396.896 252.905C396.879 252.811 396.845 252.671 396.819 252.599C396.793 252.524 396.735 252.399 396.692 252.322C396.637 252.225 396.555 252.124 396.426 251.995C396.287 251.857 396.197 251.786 396.079 251.719C395.991 251.67 395.853 251.609 395.77 251.582C395.688 251.556 395.538 251.523 395.439 251.508C395.338 251.493 395.25 251.481 395.242 251.483C395.235 251.485 395.151 251.496 395.059 251.51ZM394.123 255.189C394.061 255.202 393.973 255.229 393.926 255.245C393.879 255.262 393.787 255.305 393.72 255.342C393.647 255.384 393.535 255.475 393.437 255.57C393.334 255.673 393.25 255.778 393.205 255.862C393.164 255.933 393.11 256.056 393.083 256.133L393.037 256.273L393.025 259.411C393.093 259.512 393.149 259.56 393.196 259.585L393.28 259.626H397.231C397.362 259.56 397.418 259.512 397.443 259.476L397.486 259.411L397.474 256.273C397.401 256.056 397.347 255.933 397.306 255.862C397.261 255.778 397.177 255.673 397.074 255.57C396.971 255.468 396.866 255.384 396.782 255.339C396.709 255.298 396.587 255.243 396.51 255.219L396.37 255.171C394.458 255.165 394.211 255.169 394.123 255.189ZM391.66 255.892C391.593 255.901 391.484 255.925 391.417 255.948C391.349 255.97 391.248 256.013 391.192 256.045C391.136 256.075 391.041 256.14 390.979 256.187C390.919 256.233 390.829 256.323 390.778 256.385C390.728 256.446 390.659 256.551 390.623 256.618C390.587 256.686 390.541 256.798 390.516 256.87C390.475 256.999 390.473 257.02 390.468 257.954C390.462 258.867 390.462 258.91 390.499 259.019C390.52 259.08 390.559 259.168 390.589 259.215C390.617 259.261 390.679 259.334 390.726 259.379C390.771 259.424 390.859 259.484 390.921 259.514C390.982 259.545 391.097 259.583 391.173 259.598C391.286 259.62 391.434 259.626 391.913 259.622C392.299 259.618 392.51 259.609 392.509 259.598C392.507 259.586 392.497 259.525 392.486 259.458C392.473 259.379 392.466 258.832 392.466 257.917C392.466 257.113 392.473 256.428 392.484 256.338C392.494 256.25 392.516 256.129 392.533 256.067C392.55 256.006 392.567 255.936 392.57 255.912L392.578 255.871C391.962 255.875 391.728 255.882 391.66 255.892ZM397.937 255.912C397.943 255.936 397.961 256.006 397.978 256.067C397.995 256.129 398.017 256.25 398.027 256.338C398.038 256.428 398.046 257.113 398.046 257.917C398.046 258.832 398.038 259.379 398.025 259.458C398.014 259.525 398.004 259.586 398.002 259.598C398.001 259.609 398.212 259.618 398.598 259.622C399.077 259.626 399.225 259.62 399.338 259.598C399.414 259.583 399.529 259.545 399.59 259.514C399.652 259.484 399.74 259.424 399.785 259.379C399.832 259.334 399.894 259.261 399.922 259.215C399.952 259.168 399.993 259.076 400.014 259.009C400.047 258.895 400.049 258.834 400.049 257.991C400.049 257.149 400.047 257.085 400.012 256.945C399.989 256.863 399.944 256.736 399.911 256.665C399.877 256.592 399.808 256.48 399.757 256.415C399.706 256.347 399.611 256.25 399.544 256.198C399.476 256.144 399.384 256.078 399.338 256.052C399.291 256.024 399.19 255.981 399.113 255.955C399.036 255.929 398.905 255.899 398.823 255.89C398.74 255.879 398.504 255.871 398.3 255.871H397.928L397.937 255.912ZM392.016 253.088C391.939 253.108 391.818 253.157 391.746 253.194C391.675 253.234 391.561 253.314 391.496 253.376C391.428 253.437 391.342 253.534 391.305 253.59C391.267 253.648 391.213 253.749 391.187 253.815C391.158 253.882 391.127 253.979 391.115 254.029C391.104 254.082 391.095 254.199 391.095 254.291C391.095 254.386 391.108 254.513 391.127 254.58C391.144 254.648 391.185 254.762 391.22 254.833C391.256 254.905 391.321 255.01 391.37 255.066C391.417 255.124 391.499 255.206 391.554 255.249C391.606 255.294 391.709 255.359 391.782 255.395C391.853 255.43 391.967 255.473 392.035 255.49C392.106 255.507 392.23 255.52 392.334 255.52C392.439 255.52 392.563 255.507 392.634 255.488C392.701 255.47 392.818 255.425 392.892 255.387C392.971 255.348 393.085 255.268 393.162 255.197C393.235 255.131 393.325 255.031 393.364 254.973C393.402 254.917 393.454 254.816 393.482 254.748C393.508 254.683 393.54 254.582 393.55 254.524C393.561 254.468 393.57 254.354 393.57 254.272C393.57 254.183 393.555 254.065 393.531 253.973C393.51 253.891 393.462 253.766 393.424 253.693C393.379 253.607 393.304 253.514 393.205 253.413C393.106 253.314 393.01 253.241 392.924 253.194C392.851 253.157 392.726 253.108 392.643 253.088C392.542 253.062 392.437 253.049 392.325 253.051C392.22 253.051 392.102 253.065 392.016 253.088ZM397.858 253.088C397.782 253.108 397.658 253.157 397.587 253.194C397.499 253.241 397.405 253.314 397.306 253.413C397.205 253.514 397.132 253.607 397.087 253.693C397.048 253.766 396.999 253.891 396.978 253.973C396.956 254.065 396.941 254.183 396.941 254.272C396.941 254.354 396.948 254.468 396.96 254.524C396.971 254.582 397.001 254.683 397.029 254.748C397.055 254.816 397.107 254.917 397.147 254.973C397.184 255.031 397.276 255.131 397.349 255.197C397.424 255.268 397.54 255.348 397.619 255.387C397.694 255.425 397.81 255.47 397.877 255.488C397.948 255.507 398.072 255.52 398.177 255.52C398.281 255.52 398.403 255.507 398.476 255.49C398.544 255.473 398.656 255.43 398.729 255.395C398.8 255.359 398.903 255.294 398.957 255.249C399.012 255.206 399.094 255.124 399.141 255.066C399.188 255.01 399.255 254.905 399.291 254.833C399.324 254.762 399.368 254.648 399.384 254.58C399.401 254.513 399.414 254.386 399.414 254.291C399.414 254.199 399.405 254.082 399.394 254.029C399.383 253.979 399.353 253.882 399.324 253.815C399.296 253.749 399.244 253.648 399.205 253.59C399.167 253.534 399.083 253.437 399.016 253.376C398.948 253.314 398.836 253.234 398.765 253.194C398.693 253.157 398.568 253.108 398.486 253.088C398.384 253.062 398.28 253.049 398.167 253.051C398.062 253.051 397.944 253.065 397.858 253.088Z" fill="#0389FF"/>
<path opacity="0.8" d="M418.81 260.554V251.615H421.881C422.465 251.615 422.977 251.731 423.417 251.963C423.857 252.187 424.197 252.507 424.437 252.923C424.685 253.331 424.809 253.807 424.809 254.351C424.809 254.895 424.685 255.371 424.437 255.779C424.197 256.187 423.857 256.507 423.417 256.739C422.985 256.963 422.473 257.075 421.881 257.075H419.77V260.554H418.81ZM419.77 256.175H421.929C422.313 256.175 422.649 256.103 422.937 255.959C423.225 255.807 423.449 255.595 423.609 255.323C423.769 255.043 423.849 254.715 423.849 254.339C423.849 253.963 423.769 253.639 423.609 253.367C423.449 253.095 423.225 252.887 422.937 252.743C422.649 252.591 422.313 252.515 421.929 252.515H419.77V256.175ZM429.081 260.698C428.481 260.698 427.937 260.554 427.449 260.266C426.969 259.97 426.589 259.566 426.309 259.054C426.029 258.542 425.889 257.963 425.889 257.315C425.889 256.667 426.025 256.095 426.297 255.599C426.569 255.095 426.937 254.699 427.401 254.411C427.873 254.123 428.401 253.979 428.985 253.979C429.449 253.979 429.861 254.067 430.221 254.243C430.589 254.411 430.901 254.643 431.157 254.939C431.413 255.227 431.609 255.555 431.745 255.923C431.881 256.283 431.949 256.655 431.949 257.039C431.949 257.119 431.945 257.211 431.937 257.315C431.929 257.411 431.917 257.511 431.901 257.615H426.465V256.775H431.385L430.953 257.135C431.025 256.695 430.973 256.303 430.797 255.959C430.629 255.607 430.385 255.331 430.065 255.131C429.745 254.923 429.385 254.819 428.985 254.819C428.585 254.819 428.213 254.923 427.869 255.131C427.533 255.339 427.269 255.631 427.077 256.007C426.885 256.375 426.809 256.815 426.849 257.327C426.809 257.839 426.889 258.287 427.089 258.67C427.297 259.046 427.577 259.338 427.929 259.546C428.289 259.754 428.673 259.858 429.081 259.858C429.553 259.858 429.949 259.746 430.269 259.522C430.589 259.298 430.849 259.018 431.049 258.682L431.817 259.09C431.689 259.378 431.493 259.646 431.229 259.894C430.965 260.134 430.649 260.33 430.281 260.482C429.921 260.626 429.521 260.698 429.081 260.698ZM433.535 260.554V254.123H434.435V255.179L434.315 255.023C434.467 254.719 434.695 254.479 434.999 254.303C435.311 254.127 435.687 254.039 436.127 254.039H436.535V254.939H435.971C435.507 254.939 435.135 255.083 434.855 255.371C434.575 255.659 434.435 256.067 434.435 256.595V260.554H433.535ZM439.821 260.698C439.205 260.698 438.665 260.542 438.201 260.23C437.737 259.918 437.401 259.494 437.193 258.958L437.949 258.598C438.133 258.99 438.389 259.302 438.717 259.534C439.053 259.766 439.421 259.882 439.821 259.882C440.205 259.882 440.529 259.79 440.793 259.606C441.057 259.414 441.189 259.166 441.189 258.862C441.189 258.638 441.125 258.462 440.997 258.334C440.869 258.199 440.721 258.095 440.553 258.023C440.385 257.951 440.237 257.899 440.109 257.867L439.185 257.603C438.593 257.435 438.165 257.199 437.901 256.895C437.637 256.591 437.505 256.239 437.505 255.839C437.505 255.463 437.601 255.135 437.793 254.855C437.985 254.575 438.245 254.359 438.573 254.207C438.901 254.055 439.265 253.979 439.665 253.979C440.209 253.979 440.701 254.123 441.141 254.411C441.589 254.691 441.905 255.083 442.089 255.587L441.321 255.947C441.161 255.587 440.929 255.307 440.625 255.107C440.329 254.899 439.997 254.795 439.629 254.795C439.269 254.795 438.981 254.887 438.765 255.071C438.549 255.255 438.441 255.487 438.441 255.767C438.441 255.983 438.497 256.155 438.609 256.283C438.721 256.411 438.849 256.507 438.993 256.571C439.145 256.635 439.277 256.683 439.389 256.715L440.457 257.027C440.977 257.179 441.381 257.415 441.669 257.735C441.965 258.055 442.113 258.43 442.113 258.862C442.113 259.214 442.013 259.53 441.813 259.81C441.621 260.09 441.353 260.31 441.009 260.47C440.665 260.622 440.269 260.698 439.821 260.698ZM446.706 260.698C446.098 260.698 445.546 260.554 445.05 260.266C444.554 259.97 444.158 259.57 443.862 259.066C443.574 258.554 443.43 257.975 443.43 257.327C443.43 256.687 443.574 256.115 443.862 255.611C444.15 255.107 444.538 254.711 445.026 254.423C445.522 254.127 446.082 253.979 446.706 253.979C447.329 253.979 447.885 254.123 448.373 254.411C448.869 254.699 449.257 255.095 449.537 255.599C449.825 256.103 449.969 256.679 449.969 257.327C449.969 257.983 449.821 258.566 449.525 259.078C449.229 259.582 448.833 259.978 448.337 260.266C447.849 260.554 447.305 260.698 446.706 260.698ZM446.706 259.798C447.138 259.798 447.525 259.69 447.869 259.474C448.221 259.258 448.497 258.962 448.697 258.586C448.905 258.211 449.009 257.791 449.009 257.327C449.009 256.863 448.905 256.447 448.697 256.079C448.497 255.711 448.221 255.419 447.869 255.203C447.525 254.987 447.138 254.879 446.706 254.879C446.274 254.879 445.882 254.987 445.53 255.203C445.186 255.419 444.91 255.711 444.702 256.079C444.494 256.447 444.39 256.863 444.39 257.327C444.39 257.791 444.494 258.211 444.702 258.586C444.91 258.962 445.186 259.258 445.53 259.474C445.882 259.69 446.274 259.798 446.706 259.798ZM451.556 260.554V254.123H452.456V255.371L452.252 255.323C452.412 254.907 452.672 254.579 453.032 254.339C453.4 254.099 453.824 253.979 454.304 253.979C454.76 253.979 455.168 254.083 455.528 254.291C455.896 254.499 456.184 254.787 456.392 255.155C456.608 255.515 456.716 255.923 456.716 256.379V260.554H455.816V256.727C455.816 256.335 455.744 256.003 455.6 255.731C455.464 255.459 455.268 255.251 455.012 255.107C454.764 254.955 454.476 254.879 454.148 254.879C453.82 254.879 453.528 254.955 453.272 255.107C453.016 255.251 452.816 255.463 452.672 255.743C452.528 256.015 452.456 256.343 452.456 256.727V260.554H451.556ZM460.473 260.554V254.123H461.373V255.371L461.169 255.323C461.329 254.907 461.589 254.579 461.949 254.339C462.317 254.099 462.741 253.979 463.221 253.979C463.677 253.979 464.085 254.083 464.444 254.291C464.812 254.499 465.1 254.787 465.308 255.155C465.524 255.515 465.632 255.923 465.632 256.379V260.554H464.732V256.727C464.732 256.335 464.66 256.003 464.516 255.731C464.38 255.459 464.184 255.251 463.929 255.107C463.681 254.955 463.393 254.879 463.065 254.879C462.737 254.879 462.445 254.955 462.189 255.107C461.933 255.251 461.733 255.463 461.589 255.743C461.445 256.015 461.373 256.343 461.373 256.727V260.554H460.473ZM469.211 260.698C468.803 260.698 468.439 260.622 468.119 260.47C467.799 260.31 467.547 260.094 467.363 259.822C467.179 259.55 467.087 259.238 467.087 258.886C467.087 258.55 467.159 258.247 467.303 257.975C467.447 257.695 467.671 257.459 467.975 257.267C468.279 257.075 468.667 256.939 469.139 256.859L471.658 256.439V257.255L469.355 257.639C468.891 257.719 468.555 257.867 468.347 258.083C468.147 258.299 468.047 258.554 468.047 258.85C468.047 259.138 468.159 259.382 468.383 259.582C468.615 259.782 468.911 259.882 469.271 259.882C469.711 259.882 470.095 259.79 470.423 259.606C470.751 259.414 471.006 259.158 471.19 258.838C471.374 258.518 471.466 258.163 471.466 257.771V256.139C471.466 255.755 471.326 255.443 471.046 255.203C470.767 254.963 470.403 254.843 469.955 254.843C469.563 254.843 469.219 254.943 468.923 255.143C468.627 255.335 468.407 255.587 468.263 255.899L467.447 255.455C467.567 255.183 467.755 254.935 468.011 254.711C468.275 254.487 468.575 254.311 468.911 254.183C469.247 254.047 469.595 253.979 469.955 253.979C470.427 253.979 470.843 254.071 471.202 254.255C471.57 254.439 471.854 254.695 472.054 255.023C472.262 255.343 472.366 255.715 472.366 256.139V260.554H471.466V259.27L471.598 259.402C471.486 259.642 471.31 259.862 471.07 260.062C470.839 260.254 470.563 260.41 470.243 260.53C469.931 260.642 469.587 260.698 469.211 260.698ZM474.217 260.554V254.123H475.117V255.347L474.973 255.167C475.149 254.791 475.409 254.499 475.753 254.291C476.105 254.083 476.489 253.979 476.905 253.979C477.401 253.979 477.849 254.119 478.249 254.399C478.649 254.679 478.933 255.043 479.101 255.491L478.849 255.503C479.009 255.007 479.285 254.631 479.677 254.375C480.076 254.111 480.516 253.979 480.996 253.979C481.428 253.979 481.824 254.083 482.184 254.291C482.552 254.499 482.844 254.787 483.06 255.155C483.284 255.515 483.396 255.923 483.396 256.379V260.554H482.496V256.727C482.496 256.335 482.424 256.003 482.28 255.731C482.144 255.459 481.956 255.251 481.716 255.107C481.476 254.955 481.2 254.879 480.888 254.879C480.584 254.879 480.308 254.955 480.06 255.107C479.812 255.251 479.617 255.463 479.473 255.743C479.329 256.015 479.257 256.343 479.257 256.727V260.554H478.357V256.727C478.357 256.335 478.285 256.003 478.141 255.731C478.005 255.459 477.817 255.251 477.577 255.107C477.337 254.955 477.061 254.879 476.749 254.879C476.437 254.879 476.157 254.955 475.909 255.107C475.669 255.251 475.477 255.463 475.333 255.743C475.189 256.015 475.117 256.343 475.117 256.727V260.554H474.217ZM488.042 260.698C487.442 260.698 486.898 260.554 486.41 260.266C485.93 259.97 485.55 259.566 485.27 259.054C484.99 258.542 484.85 257.963 484.85 257.315C484.85 256.667 484.986 256.095 485.258 255.599C485.53 255.095 485.898 254.699 486.362 254.411C486.834 254.123 487.362 253.979 487.946 253.979C488.41 253.979 488.822 254.067 489.182 254.243C489.55 254.411 489.862 254.643 490.118 254.939C490.374 255.227 490.569 255.555 490.705 255.923C490.841 256.283 490.909 256.655 490.909 257.039C490.909 257.119 490.905 257.211 490.897 257.315C490.889 257.411 490.877 257.511 490.861 257.615H485.426V256.775H490.346L489.914 257.135C489.986 256.695 489.934 256.303 489.758 255.959C489.59 255.607 489.346 255.331 489.026 255.131C488.706 254.923 488.346 254.819 487.946 254.819C487.546 254.819 487.174 254.923 486.83 255.131C486.494 255.339 486.23 255.631 486.038 256.007C485.846 256.375 485.77 256.815 485.81 257.327C485.77 257.839 485.85 258.287 486.05 258.67C486.258 259.046 486.538 259.338 486.89 259.546C487.25 259.754 487.634 259.858 488.042 259.858C488.514 259.858 488.91 259.746 489.23 259.522C489.55 259.298 489.81 259.018 490.01 258.682L490.777 259.09C490.649 259.378 490.454 259.646 490.19 259.894C489.926 260.134 489.61 260.33 489.242 260.482C488.882 260.626 488.482 260.698 488.042 260.698Z" fill="#0389FF"/>
<rect x="382.758" y="333.044" width="24.9967" height="24.9967" rx="8.39095" fill="white" fill-opacity="0.08"/>
<path d="M395.029 341.358C394.013 341.435 393.105 342.048 392.648 342.963C392.335 343.584 392.262 344.291 392.436 344.989C392.649 345.834 393.274 347.034 394.17 348.315C394.535 348.837 395.237 349.745 395.264 349.734C395.282 349.727 395.69 349.207 395.823 349.02C395.875 348.947 395.991 348.788 396.08 348.668C396.284 348.39 396.589 347.938 396.809 347.591C397.548 346.423 397.981 345.478 398.14 344.694C398.176 344.513 398.182 344.036 398.147 343.837C398.044 343.221 397.796 342.709 397.384 342.268C397.061 341.924 396.654 341.66 396.198 341.501C395.863 341.383 395.415 341.329 395.029 341.358ZM395.537 343.045C395.772 343.093 396.045 343.259 396.198 343.446C396.394 343.687 396.486 343.945 396.486 344.244C396.486 344.446 396.446 344.605 396.352 344.797C396.244 345.016 396.038 345.227 395.841 345.325C395.559 345.461 395.319 345.503 395.069 345.457C394.538 345.359 394.156 344.986 394.049 344.462C393.971 344.075 394.097 343.678 394.392 343.382C394.713 343.059 395.081 342.95 395.537 343.045Z" fill="#02C6F1"/>
<path opacity="0.8" d="M417.886 350.542L421.149 341.603H422.181L425.445 350.542H424.437L423.669 348.359H419.674L418.894 350.542H417.886ZM419.986 347.459H423.333L421.521 342.323H421.809L419.986 347.459ZM429.174 350.686C428.574 350.686 428.034 350.542 427.554 350.254C427.074 349.958 426.694 349.558 426.414 349.054C426.143 348.543 426.007 347.967 426.007 347.327C426.007 346.679 426.143 346.103 426.414 345.599C426.694 345.095 427.07 344.699 427.542 344.411C428.022 344.115 428.566 343.967 429.174 343.967C429.726 343.967 430.218 344.087 430.65 344.327C431.082 344.567 431.422 344.891 431.67 345.299L431.526 345.551V341.459H432.426V350.542H431.526V349.102L431.67 349.234C431.446 349.698 431.11 350.058 430.662 350.314C430.222 350.562 429.726 350.686 429.174 350.686ZM429.222 349.786C429.654 349.786 430.042 349.678 430.386 349.462C430.738 349.246 431.014 348.954 431.214 348.586C431.422 348.211 431.526 347.791 431.526 347.327C431.526 346.863 431.422 346.447 431.214 346.079C431.014 345.703 430.738 345.407 430.386 345.191C430.042 344.975 429.654 344.867 429.222 344.867C428.798 344.867 428.414 344.975 428.07 345.191C427.726 345.407 427.454 345.699 427.254 346.067C427.062 346.435 426.966 346.855 426.966 347.327C426.966 347.791 427.062 348.211 427.254 348.586C427.454 348.954 427.722 349.246 428.058 349.462C428.402 349.678 428.79 349.786 429.222 349.786ZM437.177 350.686C436.577 350.686 436.037 350.542 435.557 350.254C435.077 349.958 434.697 349.558 434.417 349.054C434.145 348.543 434.009 347.967 434.009 347.327C434.009 346.679 434.145 346.103 434.417 345.599C434.697 345.095 435.073 344.699 435.545 344.411C436.025 344.115 436.569 343.967 437.177 343.967C437.729 343.967 438.221 344.087 438.653 344.327C439.085 344.567 439.425 344.891 439.673 345.299L439.529 345.551V341.459H440.429V350.542H439.529V349.102L439.673 349.234C439.449 349.698 439.113 350.058 438.665 350.314C438.225 350.562 437.729 350.686 437.177 350.686ZM437.225 349.786C437.657 349.786 438.045 349.678 438.389 349.462C438.741 349.246 439.017 348.954 439.217 348.586C439.425 348.211 439.529 347.791 439.529 347.327C439.529 346.863 439.425 346.447 439.217 346.079C439.017 345.703 438.741 345.407 438.389 345.191C438.045 344.975 437.657 344.867 437.225 344.867C436.801 344.867 436.417 344.975 436.073 345.191C435.729 345.407 435.457 345.699 435.257 346.067C435.065 346.435 434.969 346.855 434.969 347.327C434.969 347.791 435.065 348.211 435.257 348.586C435.457 348.954 435.725 349.246 436.061 349.462C436.405 349.678 436.793 349.786 437.225 349.786ZM442.276 350.542V344.111H443.176V345.167L443.056 345.011C443.208 344.707 443.436 344.467 443.74 344.291C444.052 344.115 444.428 344.027 444.868 344.027H445.276V344.927H444.712C444.248 344.927 443.876 345.071 443.596 345.359C443.316 345.647 443.176 346.055 443.176 346.583V350.542H442.276ZM449.258 350.686C448.658 350.686 448.114 350.542 447.626 350.254C447.146 349.958 446.766 349.554 446.486 349.042C446.206 348.531 446.066 347.951 446.066 347.303C446.066 346.655 446.202 346.083 446.474 345.587C446.746 345.083 447.114 344.687 447.578 344.399C448.05 344.111 448.578 343.967 449.162 343.967C449.626 343.967 450.038 344.055 450.398 344.231C450.766 344.399 451.078 344.631 451.334 344.927C451.59 345.215 451.786 345.543 451.922 345.911C452.058 346.271 452.126 346.643 452.126 347.027C452.126 347.107 452.122 347.199 452.114 347.303C452.106 347.399 452.094 347.499 452.078 347.603H446.642V346.763H451.562L451.13 347.123C451.202 346.683 451.15 346.291 450.974 345.947C450.806 345.595 450.562 345.319 450.242 345.119C449.922 344.911 449.562 344.807 449.162 344.807C448.762 344.807 448.39 344.911 448.046 345.119C447.71 345.327 447.446 345.619 447.254 345.995C447.062 346.363 446.986 346.803 447.026 347.315C446.986 347.827 447.066 348.275 447.266 348.658C447.474 349.034 447.754 349.326 448.106 349.534C448.466 349.742 448.85 349.846 449.258 349.846C449.73 349.846 450.126 349.734 450.446 349.51C450.766 349.286 451.026 349.006 451.226 348.67L451.994 349.078C451.866 349.366 451.67 349.634 451.406 349.882C451.142 350.122 450.826 350.318 450.458 350.47C450.098 350.614 449.698 350.686 449.258 350.686ZM455.944 350.686C455.328 350.686 454.788 350.53 454.324 350.218C453.86 349.906 453.524 349.482 453.316 348.946L454.072 348.586C454.256 348.978 454.512 349.29 454.84 349.522C455.176 349.754 455.544 349.87 455.944 349.87C456.328 349.87 456.652 349.778 456.916 349.594C457.18 349.402 457.312 349.154 457.312 348.85C457.312 348.626 457.248 348.451 457.12 348.323C456.992 348.187 456.844 348.083 456.676 348.011C456.508 347.939 456.36 347.887 456.232 347.855L455.308 347.591C454.716 347.423 454.288 347.187 454.024 346.883C453.76 346.579 453.628 346.227 453.628 345.827C453.628 345.451 453.724 345.123 453.916 344.843C454.108 344.563 454.368 344.347 454.696 344.195C455.024 344.043 455.388 343.967 455.788 343.967C456.332 343.967 456.824 344.111 457.264 344.399C457.712 344.679 458.028 345.071 458.212 345.575L457.444 345.935C457.284 345.575 457.052 345.295 456.748 345.095C456.452 344.887 456.12 344.783 455.752 344.783C455.392 344.783 455.104 344.875 454.888 345.059C454.672 345.243 454.564 345.475 454.564 345.755C454.564 345.971 454.62 346.143 454.732 346.271C454.844 346.399 454.972 346.495 455.116 346.559C455.268 346.623 455.4 346.671 455.512 346.703L456.58 347.015C457.1 347.167 457.504 347.403 457.792 347.723C458.088 348.043 458.236 348.419 458.236 348.85C458.236 349.202 458.136 349.518 457.936 349.798C457.744 350.078 457.476 350.298 457.132 350.458C456.788 350.61 456.392 350.686 455.944 350.686ZM462.049 350.686C461.433 350.686 460.893 350.53 460.429 350.218C459.965 349.906 459.629 349.482 459.421 348.946L460.177 348.586C460.361 348.978 460.617 349.29 460.945 349.522C461.281 349.754 461.649 349.87 462.049 349.87C462.432 349.87 462.756 349.778 463.02 349.594C463.284 349.402 463.416 349.154 463.416 348.85C463.416 348.626 463.352 348.451 463.224 348.323C463.096 348.187 462.948 348.083 462.78 348.011C462.612 347.939 462.464 347.887 462.336 347.855L461.413 347.591C460.821 347.423 460.393 347.187 460.129 346.883C459.865 346.579 459.733 346.227 459.733 345.827C459.733 345.451 459.829 345.123 460.021 344.843C460.213 344.563 460.473 344.347 460.801 344.195C461.129 344.043 461.493 343.967 461.893 343.967C462.436 343.967 462.928 344.111 463.368 344.399C463.816 344.679 464.132 345.071 464.316 345.575L463.548 345.935C463.388 345.575 463.156 345.295 462.852 345.095C462.556 344.887 462.224 344.783 461.857 344.783C461.497 344.783 461.209 344.875 460.993 345.059C460.777 345.243 460.669 345.475 460.669 345.755C460.669 345.971 460.725 346.143 460.837 346.271C460.949 346.399 461.077 346.495 461.221 346.559C461.373 346.623 461.505 346.671 461.617 346.703L462.684 347.015C463.204 347.167 463.608 347.403 463.896 347.723C464.192 348.043 464.34 348.419 464.34 348.85C464.34 349.202 464.24 349.518 464.04 349.798C463.848 350.078 463.58 350.298 463.236 350.458C462.892 350.61 462.496 350.686 462.049 350.686Z" fill="#0389FF"/>
<rect x="382.758" y="423.032" width="24.9967" height="24.9967" rx="8.39095" fill="white" fill-opacity="0.08"/>
<path d="M394.521 431.586C394.324 431.632 394.143 431.691 394.04 431.743C393.988 431.769 393.923 431.8 393.894 431.814C393.829 431.845 393.568 432.033 393.498 432.1C393.31 432.278 393.135 432.541 393.046 432.777C392.96 433.004 392.943 433.083 392.933 433.316C392.921 433.561 392.945 433.731 393.02 433.929C393.044 433.993 393.071 434.068 393.078 434.094C393.085 434.119 393.104 434.158 393.119 434.179C393.133 434.2 393.167 434.256 393.195 434.302C393.26 434.417 393.339 434.515 393.479 434.652C393.603 434.773 393.899 434.986 393.942 434.986C393.957 434.986 393.975 434.993 393.98 435.001C393.999 435.028 394.187 435.107 394.317 435.141C394.628 435.223 394.638 435.225 394.965 435.226C395.282 435.226 395.282 435.226 395.509 435.167C395.711 435.114 395.793 435.085 396.009 434.978C396.107 434.931 396.335 434.765 396.432 434.672C396.607 434.506 396.782 434.259 396.856 434.077C396.972 433.78 396.976 433.766 396.984 433.456C396.989 433.263 396.984 433.123 396.97 433.052C396.948 432.935 396.859 432.698 396.79 432.57C396.551 432.126 396.134 431.797 395.616 431.642C395.353 431.562 395.286 431.553 394.952 431.555C394.708 431.555 394.622 431.561 394.521 431.586Z" fill="#00C852"/>
<path d="M393.753 435.826C393.655 435.837 393.585 435.852 393.286 435.925C393.163 435.956 392.82 436.107 392.741 436.166C392.707 436.192 392.673 436.213 392.666 436.213C392.659 436.213 392.616 436.244 392.572 436.283C392.527 436.32 392.484 436.352 392.479 436.352C392.464 436.352 392.172 436.658 392.172 436.674C392.172 436.682 392.15 436.711 392.123 436.741C392.076 436.792 391.958 436.975 391.907 437.075C391.782 437.32 391.753 437.381 391.725 437.455C391.708 437.502 391.67 437.6 391.641 437.671C391.612 437.743 391.578 437.843 391.566 437.896C391.552 437.948 391.518 438.073 391.489 438.174C391.458 438.277 391.427 438.406 391.418 438.462C391.41 438.519 391.388 438.64 391.369 438.73C391.317 438.979 391.281 439.249 391.281 439.384V439.505H393.934L396.586 439.504L396.483 439.451C396.426 439.422 396.354 439.387 396.323 439.373C396.253 439.342 396.066 439.213 395.953 439.119C395.864 439.041 395.634 438.8 395.634 438.782C395.634 438.775 395.605 438.729 395.568 438.676C395.532 438.623 395.496 438.564 395.489 438.542C395.482 438.521 395.461 438.476 395.444 438.441C395.355 438.264 395.292 437.976 395.292 437.736C395.292 437.553 395.334 437.291 395.388 437.16C395.461 436.974 395.533 436.828 395.574 436.778C395.598 436.75 395.624 436.711 395.633 436.691C395.641 436.671 395.667 436.634 395.691 436.609C395.715 436.582 395.77 436.525 395.813 436.478C395.855 436.432 395.939 436.354 395.999 436.307C396.178 436.165 396.25 436.123 396.575 435.972C396.616 435.953 396.642 435.933 396.635 435.928C396.627 435.924 396.567 435.905 396.5 435.888C396.239 435.815 396.128 435.809 394.957 435.81C394.354 435.812 393.813 435.818 393.753 435.826Z" fill="#00C852"/>
<path d="M396.954 436.102C396.893 436.116 396.791 436.147 396.73 436.171C396.668 436.194 396.61 436.213 396.601 436.213C396.591 436.213 396.534 436.242 396.473 436.278C396.411 436.315 396.339 436.355 396.313 436.368C396.26 436.393 395.926 436.685 395.926 436.707C395.926 436.714 395.905 436.741 395.881 436.766C395.857 436.79 395.792 436.894 395.737 436.997C395.523 437.393 395.494 437.826 395.647 438.281C395.681 438.381 395.833 438.65 395.885 438.699C395.907 438.721 395.926 438.744 395.926 438.754C395.928 438.785 396.291 439.101 396.327 439.101C396.336 439.101 396.36 439.114 396.378 439.131C396.414 439.159 396.517 439.21 396.665 439.271C396.913 439.373 397.139 439.406 397.511 439.39C397.784 439.379 397.876 439.362 398.114 439.272C398.342 439.185 398.57 439.044 398.725 438.893C398.805 438.816 398.942 438.657 398.942 438.643C398.942 438.639 398.965 438.604 398.99 438.569C399.016 438.533 399.052 438.472 399.069 438.434C399.086 438.395 399.112 438.339 399.124 438.309C399.198 438.143 399.22 438.034 399.228 437.798C399.235 437.638 399.23 437.52 399.216 437.449C399.191 437.32 399.081 437.026 399.03 436.955C399.011 436.927 398.978 436.876 398.958 436.842C398.894 436.736 398.719 436.556 398.589 436.458C398.452 436.355 398.21 436.213 398.176 436.213C398.164 436.213 398.121 436.199 398.08 436.182C397.871 436.093 397.806 436.084 397.426 436.079C397.124 436.074 397.047 436.079 396.954 436.102ZM398.497 437.218C398.497 437.228 398.462 437.272 398.421 437.312C398.305 437.427 398.226 437.508 397.998 437.75C397.881 437.874 397.77 437.991 397.751 438.01C397.732 438.028 397.686 438.076 397.648 438.117C397.498 438.277 397.412 438.367 397.347 438.426C397.311 438.46 397.28 438.494 397.28 438.5C397.28 438.508 397.254 438.536 397.223 438.563C397.194 438.59 397.143 438.642 397.11 438.677L397.054 438.744L396.971 438.646C396.927 438.594 396.879 438.541 396.863 438.528C396.846 438.517 396.834 438.499 396.834 438.49C396.834 438.479 396.814 438.454 396.79 438.432C396.766 438.412 396.73 438.371 396.711 438.34C396.69 438.311 396.666 438.278 396.656 438.271C396.644 438.261 396.593 438.202 396.538 438.137C396.485 438.072 396.428 438.01 396.414 437.999C396.401 437.988 396.389 437.972 396.389 437.963C396.389 437.954 396.373 437.93 396.353 437.912L396.317 437.878L396.426 437.775C396.485 437.719 396.548 437.655 396.565 437.634C396.605 437.584 396.637 437.584 396.675 437.637C396.69 437.662 396.731 437.71 396.766 437.746C396.798 437.781 396.857 437.847 396.894 437.89C396.932 437.935 396.983 437.993 397.007 438.019L397.052 438.066L397.239 437.929C397.342 437.854 397.436 437.78 397.448 437.763C397.46 437.747 397.479 437.735 397.489 437.735C397.499 437.735 397.544 437.705 397.588 437.668C397.635 437.632 397.739 437.553 397.821 437.494C397.905 437.433 397.991 437.37 398.013 437.35C398.034 437.331 398.058 437.315 398.067 437.315C398.073 437.315 398.114 437.284 398.157 437.245C398.2 437.207 398.243 437.176 398.252 437.176C398.26 437.176 398.289 437.154 398.317 437.129L398.366 437.082L398.432 437.14C398.468 437.171 398.497 437.207 398.497 437.218Z" fill="#00C852"/>
<path opacity="0.8" d="M418.81 440.53V431.591H421.881C422.465 431.591 422.977 431.707 423.417 431.939C423.857 432.163 424.197 432.483 424.437 432.899C424.685 433.307 424.809 433.783 424.809 434.327C424.809 434.871 424.685 435.347 424.437 435.755C424.197 436.163 423.857 436.483 423.417 436.715C422.985 436.939 422.473 437.05 421.881 437.05H419.77V440.53H418.81ZM419.77 436.151H421.929C422.313 436.151 422.649 436.079 422.937 435.935C423.225 435.783 423.449 435.571 423.609 435.299C423.769 435.019 423.849 434.691 423.849 434.315C423.849 433.939 423.769 433.615 423.609 433.343C423.449 433.071 423.225 432.863 422.937 432.719C422.649 432.567 422.313 432.491 421.929 432.491H419.77V436.151ZM429.081 440.674C428.481 440.674 427.937 440.53 427.449 440.242C426.969 439.946 426.589 439.542 426.309 439.03C426.029 438.518 425.889 437.938 425.889 437.29C425.889 436.643 426.025 436.071 426.297 435.575C426.569 435.071 426.937 434.675 427.401 434.387C427.873 434.099 428.401 433.955 428.985 433.955C429.449 433.955 429.861 434.043 430.221 434.219C430.589 434.387 430.901 434.619 431.157 434.915C431.413 435.203 431.609 435.531 431.745 435.899C431.881 436.259 431.949 436.631 431.949 437.014C431.949 437.094 431.945 437.186 431.937 437.29C431.929 437.386 431.917 437.486 431.901 437.59H426.465V436.751H431.385L430.953 437.11C431.025 436.671 430.973 436.279 430.797 435.935C430.629 435.583 430.385 435.307 430.065 435.107C429.745 434.899 429.385 434.795 428.985 434.795C428.585 434.795 428.213 434.899 427.869 435.107C427.533 435.315 427.269 435.607 427.077 435.983C426.885 436.351 426.809 436.791 426.849 437.302C426.809 437.814 426.889 438.262 427.089 438.646C427.297 439.022 427.577 439.314 427.929 439.522C428.289 439.73 428.673 439.834 429.081 439.834C429.553 439.834 429.949 439.722 430.269 439.498C430.589 439.274 430.849 438.994 431.049 438.658L431.817 439.066C431.689 439.354 431.493 439.622 431.229 439.87C430.965 440.11 430.649 440.306 430.281 440.458C429.921 440.602 429.521 440.674 429.081 440.674ZM433.535 440.53V434.099H434.435V435.155L434.315 434.999C434.467 434.695 434.695 434.455 434.999 434.279C435.311 434.103 435.687 434.015 436.127 434.015H436.535V434.915H435.971C435.507 434.915 435.135 435.059 434.855 435.347C434.575 435.635 434.435 436.043 434.435 436.571V440.53H433.535ZM439.821 440.674C439.205 440.674 438.665 440.518 438.201 440.206C437.737 439.894 437.401 439.47 437.193 438.934L437.949 438.574C438.133 438.966 438.389 439.278 438.717 439.51C439.053 439.742 439.421 439.858 439.821 439.858C440.205 439.858 440.529 439.766 440.793 439.582C441.057 439.39 441.189 439.142 441.189 438.838C441.189 438.614 441.125 438.438 440.997 438.31C440.869 438.174 440.721 438.07 440.553 437.998C440.385 437.926 440.237 437.874 440.109 437.842L439.185 437.578C438.593 437.41 438.165 437.174 437.901 436.871C437.637 436.567 437.505 436.215 437.505 435.815C437.505 435.439 437.601 435.111 437.793 434.831C437.985 434.551 438.245 434.335 438.573 434.183C438.901 434.031 439.265 433.955 439.665 433.955C440.209 433.955 440.701 434.099 441.141 434.387C441.589 434.667 441.905 435.059 442.089 435.563L441.321 435.923C441.161 435.563 440.929 435.283 440.625 435.083C440.329 434.875 439.997 434.771 439.629 434.771C439.269 434.771 438.981 434.863 438.765 435.047C438.549 435.231 438.441 435.463 438.441 435.743C438.441 435.959 438.497 436.131 438.609 436.259C438.721 436.387 438.849 436.483 438.993 436.547C439.145 436.611 439.277 436.659 439.389 436.691L440.457 437.003C440.977 437.154 441.381 437.39 441.669 437.71C441.965 438.03 442.113 438.406 442.113 438.838C442.113 439.19 442.013 439.506 441.813 439.786C441.621 440.066 441.353 440.286 441.009 440.446C440.665 440.598 440.269 440.674 439.821 440.674ZM446.706 440.674C446.098 440.674 445.546 440.53 445.05 440.242C444.554 439.946 444.158 439.546 443.862 439.042C443.574 438.53 443.43 437.95 443.43 437.302C443.43 436.663 443.574 436.091 443.862 435.587C444.15 435.083 444.538 434.687 445.026 434.399C445.522 434.103 446.082 433.955 446.706 433.955C447.329 433.955 447.885 434.099 448.373 434.387C448.869 434.675 449.257 435.071 449.537 435.575C449.825 436.079 449.969 436.655 449.969 437.302C449.969 437.958 449.821 438.542 449.525 439.054C449.229 439.558 448.833 439.954 448.337 440.242C447.849 440.53 447.305 440.674 446.706 440.674ZM446.706 439.774C447.138 439.774 447.525 439.666 447.869 439.45C448.221 439.234 448.497 438.938 448.697 438.562C448.905 438.186 449.009 437.766 449.009 437.302C449.009 436.839 448.905 436.423 448.697 436.055C448.497 435.687 448.221 435.395 447.869 435.179C447.525 434.963 447.138 434.855 446.706 434.855C446.274 434.855 445.882 434.963 445.53 435.179C445.186 435.395 444.91 435.687 444.702 436.055C444.494 436.423 444.39 436.839 444.39 437.302C444.39 437.766 444.494 438.186 444.702 438.562C444.91 438.938 445.186 439.234 445.53 439.45C445.882 439.666 446.274 439.774 446.706 439.774ZM451.556 440.53V434.099H452.456V435.347L452.252 435.299C452.412 434.883 452.672 434.555 453.032 434.315C453.4 434.075 453.824 433.955 454.304 433.955C454.76 433.955 455.168 434.059 455.528 434.267C455.896 434.475 456.184 434.763 456.392 435.131C456.608 435.491 456.716 435.899 456.716 436.355V440.53H455.816V436.703C455.816 436.311 455.744 435.979 455.6 435.707C455.464 435.435 455.268 435.227 455.012 435.083C454.764 434.931 454.476 434.855 454.148 434.855C453.82 434.855 453.528 434.931 453.272 435.083C453.016 435.227 452.816 435.439 452.672 435.719C452.528 435.991 452.456 436.319 452.456 436.703V440.53H451.556ZM460.473 440.53V434.099H461.373V435.155L461.253 434.999C461.405 434.695 461.633 434.455 461.937 434.279C462.249 434.103 462.625 434.015 463.065 434.015H463.473V434.915H462.909C462.445 434.915 462.073 435.059 461.793 435.347C461.513 435.635 461.373 436.043 461.373 436.571V440.53H460.473ZM467.539 440.674C466.931 440.674 466.379 440.53 465.883 440.242C465.387 439.946 464.991 439.546 464.695 439.042C464.407 438.53 464.263 437.95 464.263 437.302C464.263 436.663 464.407 436.091 464.695 435.587C464.983 435.083 465.371 434.687 465.859 434.399C466.355 434.103 466.915 433.955 467.539 433.955C468.163 433.955 468.719 434.099 469.207 434.387C469.702 434.675 470.09 435.071 470.37 435.575C470.658 436.079 470.802 436.655 470.802 437.302C470.802 437.958 470.654 438.542 470.358 439.054C470.062 439.558 469.666 439.954 469.171 440.242C468.683 440.53 468.139 440.674 467.539 440.674ZM467.539 439.774C467.971 439.774 468.359 439.666 468.703 439.45C469.055 439.234 469.33 438.938 469.53 438.562C469.738 438.186 469.842 437.766 469.842 437.302C469.842 436.839 469.738 436.423 469.53 436.055C469.33 435.687 469.055 435.395 468.703 435.179C468.359 434.963 467.971 434.855 467.539 434.855C467.107 434.855 466.715 434.963 466.363 435.179C466.019 435.395 465.743 435.687 465.535 436.055C465.327 436.423 465.223 436.839 465.223 437.302C465.223 437.766 465.327 438.186 465.535 438.562C465.743 438.938 466.019 439.234 466.363 439.45C466.715 439.666 467.107 439.774 467.539 439.774ZM472.389 440.53V431.447H473.289V440.53H472.389ZM478.059 440.674C477.459 440.674 476.915 440.53 476.427 440.242C475.947 439.946 475.567 439.542 475.287 439.03C475.007 438.518 474.867 437.938 474.867 437.29C474.867 436.643 475.003 436.071 475.275 435.575C475.547 435.071 475.915 434.675 476.379 434.387C476.851 434.099 477.379 433.955 477.963 433.955C478.427 433.955 478.839 434.043 479.199 434.219C479.567 434.387 479.879 434.619 480.135 434.915C480.39 435.203 480.586 435.531 480.722 435.899C480.858 436.259 480.926 436.631 480.926 437.014C480.926 437.094 480.922 437.186 480.914 437.29C480.906 437.386 480.894 437.486 480.878 437.59H475.443V436.751H480.362L479.931 437.11C480.003 436.671 479.951 436.279 479.775 435.935C479.607 435.583 479.363 435.307 479.043 435.107C478.723 434.899 478.363 434.795 477.963 434.795C477.563 434.795 477.191 434.899 476.847 435.107C476.511 435.315 476.247 435.607 476.055 435.983C475.863 436.351 475.787 436.791 475.827 437.302C475.787 437.814 475.867 438.262 476.067 438.646C476.275 439.022 476.555 439.314 476.907 439.522C477.267 439.73 477.651 439.834 478.059 439.834C478.531 439.834 478.927 439.722 479.247 439.498C479.567 439.274 479.827 438.994 480.027 438.658L480.794 439.066C480.666 439.354 480.47 439.622 480.207 439.87C479.943 440.11 479.627 440.306 479.259 440.458C478.899 440.602 478.499 440.674 478.059 440.674Z" fill="#0389FF"/>
<rect x="382.758" y="513.02" width="24.9967" height="24.9967" rx="8.39095" fill="white" fill-opacity="0.08"/>
<path d="M394.203 521.964C393.837 522.074 393.242 522.353 393.242 522.413C393.242 522.431 393.21 522.45 393.173 522.45C393.081 522.45 392.189 523.342 392.189 523.434C392.189 523.47 392.17 523.502 392.152 523.502C392.088 523.502 391.791 524.152 391.69 524.514C391.612 524.793 391.594 524.985 391.594 525.548C391.594 526.157 391.607 526.276 391.713 526.606C391.777 526.812 391.846 526.99 391.873 527.004C391.896 527.022 391.914 527.059 391.914 527.096C391.914 527.132 391.992 527.288 392.084 527.448C392.262 527.755 393.058 528.583 393.173 528.583C393.21 528.583 393.242 528.601 393.242 528.62C393.242 528.679 393.823 528.954 394.198 529.068C394.5 529.164 394.642 529.178 395.26 529.178C396.125 529.178 396.299 529.137 397.064 528.757C397.178 528.698 397.27 528.638 397.27 528.62C397.27 528.597 397.302 528.583 397.343 528.583C397.439 528.583 398.322 527.7 398.322 527.604C398.322 527.562 398.336 527.53 398.359 527.53C398.377 527.53 398.437 527.439 398.496 527.324C398.876 526.56 398.917 526.386 398.917 525.521C398.917 524.903 398.904 524.761 398.808 524.459C398.693 524.084 398.419 523.502 398.359 523.502C398.341 523.502 398.322 523.47 398.322 523.434C398.322 523.319 397.494 522.523 397.187 522.344C397.027 522.253 396.871 522.175 396.835 522.175C396.798 522.175 396.762 522.157 396.743 522.134C396.729 522.106 396.551 522.038 396.345 521.974C396.011 521.868 395.901 521.855 395.26 521.859C394.656 521.859 394.491 521.877 394.203 521.964ZM394.235 523.603C394.331 523.727 394.752 524.551 394.752 524.619C394.752 524.66 394.683 524.77 394.596 524.866L394.436 525.04L394.528 525.237C394.642 525.493 395.278 526.13 395.535 526.244L395.732 526.336L395.928 526.153C396.034 526.057 396.153 525.974 396.185 525.974C396.221 525.974 396.464 526.102 396.725 526.258C397.352 526.638 397.352 526.656 396.858 527.137L396.491 527.494L396.203 527.475C395.626 527.43 394.986 527.068 394.345 526.427C393.704 525.786 393.342 525.146 393.297 524.569L393.278 524.281L393.635 523.914C393.988 523.548 394.134 523.475 394.235 523.603Z" fill="#FFB804"/>
<path opacity="0.8" d="M418.81 530.518V521.579H421.881C422.465 521.579 422.977 521.695 423.417 521.927C423.857 522.151 424.197 522.471 424.437 522.887C424.685 523.295 424.809 523.771 424.809 524.315C424.809 524.859 424.685 525.335 424.437 525.743C424.197 526.151 423.857 526.471 423.417 526.703C422.985 526.927 422.473 527.039 421.881 527.039H419.77V530.518H418.81ZM419.77 526.139H421.929C422.313 526.139 422.649 526.067 422.937 525.923C423.225 525.771 423.449 525.559 423.609 525.287C423.769 525.007 423.849 524.679 423.849 524.303C423.849 523.927 423.769 523.603 423.609 523.331C423.449 523.059 423.225 522.851 422.937 522.707C422.649 522.555 422.313 522.479 421.929 522.479H419.77V526.139ZM426.388 530.518V521.435H427.288V525.335L427.084 525.287C427.244 524.871 427.504 524.543 427.863 524.303C428.231 524.063 428.655 523.943 429.135 523.943C429.591 523.943 429.999 524.047 430.359 524.255C430.727 524.463 431.015 524.751 431.223 525.119C431.439 525.479 431.547 525.887 431.547 526.343V530.518H430.647V526.691C430.647 526.299 430.575 525.967 430.431 525.695C430.287 525.423 430.087 525.215 429.831 525.071C429.583 524.919 429.299 524.843 428.979 524.843C428.659 524.843 428.371 524.919 428.115 525.071C427.859 525.215 427.656 525.427 427.504 525.707C427.36 525.979 427.288 526.307 427.288 526.691V530.518H426.388ZM436.277 530.662C435.669 530.662 435.117 530.518 434.621 530.23C434.126 529.934 433.73 529.534 433.434 529.03C433.146 528.518 433.002 527.938 433.002 527.29C433.002 526.651 433.146 526.079 433.434 525.575C433.722 525.071 434.11 524.675 434.598 524.387C435.093 524.091 435.653 523.943 436.277 523.943C436.901 523.943 437.457 524.087 437.945 524.375C438.441 524.663 438.829 525.059 439.109 525.563C439.397 526.067 439.541 526.643 439.541 527.29C439.541 527.946 439.393 528.53 439.097 529.042C438.801 529.546 438.405 529.942 437.909 530.23C437.421 530.518 436.877 530.662 436.277 530.662ZM436.277 529.762C436.709 529.762 437.097 529.654 437.441 529.438C437.793 529.222 438.069 528.926 438.269 528.55C438.477 528.174 438.581 527.754 438.581 527.29C438.581 526.827 438.477 526.411 438.269 526.043C438.069 525.675 437.793 525.383 437.441 525.167C437.097 524.951 436.709 524.843 436.277 524.843C435.845 524.843 435.453 524.951 435.101 525.167C434.757 525.383 434.482 525.675 434.274 526.043C434.066 526.411 433.962 526.827 433.962 527.29C433.962 527.754 434.066 528.174 434.274 528.55C434.482 528.926 434.757 529.222 435.101 529.438C435.453 529.654 435.845 529.762 436.277 529.762ZM441.128 530.518V524.087H442.028V525.335L441.824 525.287C441.984 524.871 442.244 524.543 442.604 524.303C442.972 524.063 443.396 523.943 443.876 523.943C444.331 523.943 444.739 524.047 445.099 524.255C445.467 524.463 445.755 524.751 445.963 525.119C446.179 525.479 446.287 525.887 446.287 526.343V530.518H445.387V526.691C445.387 526.299 445.315 525.967 445.171 525.695C445.035 525.423 444.839 525.215 444.583 525.071C444.335 524.919 444.048 524.843 443.72 524.843C443.392 524.843 443.1 524.919 442.844 525.071C442.588 525.215 442.388 525.427 442.244 525.707C442.1 525.979 442.028 526.307 442.028 526.691V530.518H441.128ZM450.934 530.662C450.334 530.662 449.79 530.518 449.302 530.23C448.822 529.934 448.442 529.53 448.162 529.018C447.882 528.506 447.742 527.926 447.742 527.278C447.742 526.631 447.878 526.059 448.15 525.563C448.422 525.059 448.79 524.663 449.254 524.375C449.726 524.087 450.254 523.943 450.838 523.943C451.301 523.943 451.713 524.031 452.073 524.207C452.441 524.375 452.753 524.607 453.009 524.903C453.265 525.191 453.461 525.519 453.597 525.887C453.733 526.247 453.801 526.619 453.801 527.003C453.801 527.083 453.797 527.175 453.789 527.278C453.781 527.374 453.769 527.474 453.753 527.578H448.318V526.739H453.237L452.805 527.099C452.877 526.659 452.825 526.267 452.649 525.923C452.481 525.571 452.237 525.295 451.917 525.095C451.597 524.887 451.237 524.783 450.838 524.783C450.438 524.783 450.066 524.887 449.722 525.095C449.386 525.303 449.122 525.595 448.93 525.971C448.738 526.339 448.662 526.779 448.702 527.29C448.662 527.802 448.742 528.25 448.942 528.634C449.15 529.01 449.43 529.302 449.782 529.51C450.142 529.718 450.526 529.822 450.934 529.822C451.405 529.822 451.801 529.71 452.121 529.486C452.441 529.262 452.701 528.982 452.901 528.646L453.669 529.054C453.541 529.342 453.345 529.61 453.081 529.858C452.817 530.098 452.501 530.294 452.133 530.446C451.773 530.59 451.373 530.662 450.934 530.662ZM457.427 530.518V524.087H458.326V525.335L458.122 525.287C458.282 524.871 458.542 524.543 458.902 524.303C459.27 524.063 459.694 523.943 460.174 523.943C460.63 523.943 461.038 524.047 461.398 524.255C461.766 524.463 462.054 524.751 462.262 525.119C462.478 525.479 462.586 525.887 462.586 526.343V530.518H461.686V526.691C461.686 526.299 461.614 525.967 461.47 525.695C461.334 525.423 461.138 525.215 460.882 525.071C460.634 524.919 460.346 524.843 460.018 524.843C459.69 524.843 459.398 524.919 459.142 525.071C458.886 525.215 458.686 525.427 458.542 525.707C458.398 525.979 458.326 526.307 458.326 526.691V530.518H457.427ZM466.584 530.662C466.136 530.662 465.728 530.558 465.36 530.35C464.992 530.134 464.7 529.838 464.484 529.462C464.277 529.078 464.173 528.638 464.173 528.142V524.087H465.072V528.034C465.072 528.378 465.14 528.682 465.276 528.946C465.42 529.202 465.616 529.402 465.864 529.546C466.12 529.69 466.412 529.762 466.74 529.762C467.068 529.762 467.36 529.69 467.616 529.546C467.872 529.394 468.072 529.182 468.216 528.91C468.36 528.63 468.432 528.298 468.432 527.914V524.087H469.332V530.518H468.432V529.27L468.636 529.318C468.484 529.734 468.224 530.062 467.856 530.302C467.488 530.542 467.064 530.662 466.584 530.662ZM471.182 530.518V524.087H472.082V525.311L471.938 525.131C472.114 524.755 472.374 524.463 472.718 524.255C473.07 524.047 473.454 523.943 473.87 523.943C474.366 523.943 474.814 524.083 475.214 524.363C475.614 524.643 475.898 525.007 476.066 525.455L475.814 525.467C475.974 524.971 476.25 524.595 476.642 524.339C477.042 524.075 477.482 523.943 477.962 523.943C478.394 523.943 478.789 524.047 479.149 524.255C479.517 524.463 479.809 524.751 480.025 525.119C480.249 525.479 480.361 525.887 480.361 526.343V530.518H479.461V526.691C479.461 526.299 479.389 525.967 479.245 525.695C479.109 525.423 478.921 525.215 478.681 525.071C478.442 524.919 478.166 524.843 477.854 524.843C477.55 524.843 477.274 524.919 477.026 525.071C476.778 525.215 476.582 525.427 476.438 525.707C476.294 525.979 476.222 526.307 476.222 526.691V530.518H475.322V526.691C475.322 526.299 475.25 525.967 475.106 525.695C474.97 525.423 474.782 525.215 474.542 525.071C474.302 524.919 474.026 524.843 473.714 524.843C473.402 524.843 473.122 524.919 472.874 525.071C472.634 525.215 472.442 525.427 472.298 525.707C472.154 525.979 472.082 526.307 472.082 526.691V530.518H471.182ZM485.331 530.662C484.779 530.662 484.279 530.538 483.831 530.29C483.391 530.034 483.059 529.674 482.835 529.21L482.979 529.078V530.518H482.079V521.435H482.979V525.527L482.835 525.275C483.091 524.867 483.431 524.543 483.855 524.303C484.287 524.063 484.779 523.943 485.331 523.943C485.939 523.943 486.479 524.091 486.951 524.387C487.431 524.675 487.807 525.071 488.079 525.575C488.359 526.079 488.499 526.655 488.499 527.302C488.499 527.942 488.359 528.518 488.079 529.03C487.807 529.534 487.431 529.934 486.951 530.23C486.479 530.518 485.939 530.662 485.331 530.662ZM485.283 529.762C485.715 529.762 486.099 529.654 486.435 529.438C486.779 529.222 487.047 528.93 487.239 528.562C487.439 528.186 487.539 527.766 487.539 527.302C487.539 526.831 487.439 526.411 487.239 526.043C487.047 525.675 486.779 525.383 486.435 525.167C486.099 524.951 485.715 524.843 485.283 524.843C484.851 524.843 484.459 524.951 484.107 525.167C483.763 525.383 483.487 525.679 483.279 526.055C483.079 526.423 482.979 526.839 482.979 527.302C482.979 527.766 483.079 528.186 483.279 528.562C483.487 528.93 483.763 529.222 484.107 529.438C484.459 529.654 484.851 529.762 485.283 529.762ZM493.01 530.662C492.41 530.662 491.866 530.518 491.378 530.23C490.898 529.934 490.518 529.53 490.238 529.018C489.958 528.506 489.818 527.926 489.818 527.278C489.818 526.631 489.954 526.059 490.226 525.563C490.498 525.059 490.866 524.663 491.33 524.375C491.802 524.087 492.33 523.943 492.914 523.943C493.378 523.943 493.79 524.031 494.15 524.207C494.518 524.375 494.83 524.607 495.086 524.903C495.342 525.191 495.538 525.519 495.674 525.887C495.81 526.247 495.878 526.619 495.878 527.003C495.878 527.083 495.874 527.175 495.866 527.278C495.858 527.374 495.846 527.474 495.83 527.578H490.394V526.739H495.314L494.882 527.099C494.954 526.659 494.902 526.267 494.726 525.923C494.558 525.571 494.314 525.295 493.994 525.095C493.674 524.887 493.314 524.783 492.914 524.783C492.514 524.783 492.142 524.887 491.798 525.095C491.462 525.303 491.198 525.595 491.006 525.971C490.814 526.339 490.738 526.779 490.778 527.29C490.738 527.802 490.818 528.25 491.018 528.634C491.226 529.01 491.506 529.302 491.858 529.51C492.218 529.718 492.602 529.822 493.01 529.822C493.482 529.822 493.878 529.71 494.198 529.486C494.518 529.262 494.778 528.982 494.978 528.646L495.746 529.054C495.618 529.342 495.422 529.61 495.158 529.858C494.894 530.098 494.578 530.294 494.21 530.446C493.85 530.59 493.45 530.662 493.01 530.662ZM497.464 530.518V524.087H498.364V525.143L498.244 524.987C498.396 524.683 498.624 524.443 498.928 524.267C499.24 524.091 499.616 524.003 500.056 524.003H500.464V524.903H499.9C499.436 524.903 499.064 525.047 498.784 525.335C498.504 525.623 498.364 526.031 498.364 526.559V530.518H497.464Z" fill="#0389FF"/>
<g filter="url(#filter25_b_16479_1379)">
<rect x="417.754" y="278.051" width="194.71" height="7.08279" rx="3.5414" fill="white" fill-opacity="0.08"/>
</g>
<g filter="url(#filter26_b_16479_1379)">
<rect x="417.754" y="289.134" width="194.71" height="7.08279" rx="3.5414" fill="white" fill-opacity="0.08"/>
</g>
<g filter="url(#filter27_b_16479_1379)">
<rect x="417.754" y="300.216" width="194.71" height="7.08279" rx="3.5414" fill="white" fill-opacity="0.08"/>
</g>
<g filter="url(#filter28_b_16479_1379)">
<rect x="417.754" y="311.298" width="194.71" height="7.08279" rx="3.5414" fill="white" fill-opacity="0.08"/>
</g>
<g filter="url(#filter29_b_16479_1379)">
<rect x="417.754" y="322.38" width="151.653" height="7.08279" rx="3.5414" fill="white" fill-opacity="0.08"/>
</g>
<g filter="url(#filter30_b_16479_1379)">
<rect x="417.754" y="368.039" width="194.71" height="7.08279" rx="3.5414" fill="white" fill-opacity="0.08"/>
</g>
<g filter="url(#filter31_b_16479_1379)">
<rect x="417.754" y="379.122" width="194.71" height="7.08279" rx="3.5414" fill="white" fill-opacity="0.08"/>
</g>
<g filter="url(#filter32_b_16479_1379)">
<rect x="417.754" y="390.204" width="194.71" height="7.08279" rx="3.5414" fill="white" fill-opacity="0.08"/>
</g>
<g filter="url(#filter33_b_16479_1379)">
<rect x="417.754" y="401.286" width="151.653" height="7.08279" rx="3.5414" fill="white" fill-opacity="0.08"/>
</g>
<g filter="url(#filter34_b_16479_1379)">
<rect x="417.754" y="458.027" width="194.71" height="7.08279" rx="3.5414" fill="white" fill-opacity="0.08"/>
</g>
<g filter="url(#filter35_b_16479_1379)">
<rect x="417.754" y="469.109" width="194.71" height="7.08279" rx="3.5414" fill="white" fill-opacity="0.08"/>
</g>
<g filter="url(#filter36_b_16479_1379)">
<rect x="417.754" y="480.192" width="194.71" height="7.08279" rx="3.5414" fill="white" fill-opacity="0.08"/>
</g>
<g filter="url(#filter37_b_16479_1379)">
<rect x="417.754" y="491.274" width="151.653" height="7.08279" rx="3.5414" fill="white" fill-opacity="0.08"/>
</g>
<g filter="url(#filter38_b_16479_1379)">
<rect x="417.754" y="548.015" width="194.71" height="7.08279" rx="3.5414" fill="white" fill-opacity="0.08"/>
</g>
<g filter="url(#filter39_b_16479_1379)">
<rect x="417.754" y="559.097" width="194.71" height="7.08279" rx="3.5414" fill="white" fill-opacity="0.08"/>
</g>
<g filter="url(#filter40_b_16479_1379)">
<rect x="417.754" y="570.18" width="194.71" height="7.08279" rx="3.5414" fill="white" fill-opacity="0.08"/>
</g>
<g filter="url(#filter41_b_16479_1379)">
<rect x="417.754" y="581.262" width="151.653" height="7.08279" rx="3.5414" fill="white" fill-opacity="0.08"/>
</g>
<rect width="268.2" height="52.2468" transform="translate(372.746 163.748)" fill="white" fill-opacity="0.12"/>
<path opacity="0.8" d="M404.185 196.871V184.951H408.281C409.06 184.951 409.743 185.106 410.329 185.415C410.916 185.714 411.369 186.14 411.689 186.695C412.02 187.239 412.185 187.874 412.185 188.599C412.185 189.442 411.961 190.162 411.513 190.759C411.076 191.356 410.479 191.778 409.721 192.023L412.505 196.871H411.001L408.089 191.735L408.953 192.231H405.465V196.871H404.185ZM405.465 191.031H408.345C408.857 191.031 409.305 190.935 409.689 190.743C410.073 190.54 410.372 190.258 410.585 189.895C410.799 189.522 410.905 189.084 410.905 188.583C410.905 188.082 410.799 187.65 410.585 187.287C410.372 186.924 410.073 186.647 409.689 186.455C409.305 186.252 408.857 186.151 408.345 186.151H405.465V191.031ZM417.679 197.063C416.879 197.063 416.154 196.871 415.503 196.487C414.863 196.092 414.356 195.554 413.983 194.871C413.61 194.188 413.423 193.415 413.423 192.551C413.423 191.687 413.604 190.924 413.967 190.263C414.33 189.591 414.82 189.063 415.439 188.679C416.068 188.295 416.772 188.103 417.551 188.103C418.17 188.103 418.719 188.22 419.199 188.455C419.69 188.679 420.106 188.988 420.447 189.383C420.788 189.767 421.05 190.204 421.231 190.695C421.412 191.175 421.503 191.671 421.503 192.183C421.503 192.29 421.498 192.412 421.487 192.551C421.476 192.679 421.46 192.812 421.439 192.951H414.191V191.831H420.751L420.175 192.311C420.271 191.724 420.202 191.202 419.967 190.743C419.743 190.274 419.418 189.906 418.991 189.639C418.564 189.362 418.084 189.223 417.551 189.223C417.018 189.223 416.522 189.362 416.063 189.639C415.615 189.916 415.263 190.306 415.007 190.807C414.751 191.298 414.65 191.884 414.703 192.567C414.65 193.25 414.756 193.847 415.023 194.359C415.3 194.86 415.674 195.25 416.143 195.527C416.623 195.804 417.135 195.943 417.679 195.943C418.308 195.943 418.836 195.794 419.263 195.495C419.69 195.196 420.036 194.823 420.303 194.375L421.327 194.919C421.156 195.303 420.895 195.66 420.543 195.991C420.191 196.311 419.77 196.572 419.279 196.775C418.799 196.967 418.266 197.063 417.679 197.063ZM427.491 197.063C426.691 197.063 425.971 196.871 425.331 196.487C424.691 196.092 424.184 195.559 423.811 194.887C423.448 194.204 423.267 193.436 423.267 192.583C423.267 191.719 423.448 190.951 423.811 190.279C424.184 189.607 424.685 189.079 425.315 188.695C425.955 188.3 426.68 188.103 427.491 188.103C428.227 188.103 428.883 188.263 429.459 188.583C430.035 188.903 430.488 189.335 430.819 189.879L430.627 190.215V184.759H431.827V196.871H430.627V194.951L430.819 195.127C430.52 195.746 430.072 196.226 429.475 196.567C428.888 196.898 428.227 197.063 427.491 197.063ZM427.555 195.863C428.131 195.863 428.648 195.719 429.107 195.431C429.576 195.143 429.944 194.754 430.211 194.263C430.488 193.762 430.627 193.202 430.627 192.583C430.627 191.964 430.488 191.41 430.211 190.919C429.944 190.418 429.576 190.023 429.107 189.735C428.648 189.447 428.131 189.303 427.555 189.303C426.989 189.303 426.477 189.447 426.019 189.735C425.56 190.023 425.197 190.412 424.931 190.903C424.675 191.394 424.547 191.954 424.547 192.583C424.547 193.202 424.675 193.762 424.931 194.263C425.197 194.754 425.555 195.143 426.003 195.431C426.461 195.719 426.979 195.863 427.555 195.863ZM436.771 197.063C436.227 197.063 435.741 196.962 435.315 196.759C434.888 196.546 434.552 196.258 434.307 195.895C434.061 195.532 433.939 195.116 433.939 194.647C433.939 194.199 434.035 193.794 434.227 193.431C434.419 193.058 434.717 192.743 435.123 192.487C435.528 192.231 436.045 192.05 436.675 191.943L440.035 191.383V192.471L436.963 192.983C436.344 193.09 435.896 193.287 435.619 193.575C435.352 193.863 435.219 194.204 435.219 194.599C435.219 194.983 435.368 195.308 435.667 195.575C435.976 195.842 436.371 195.975 436.851 195.975C437.437 195.975 437.949 195.852 438.387 195.607C438.824 195.351 439.165 195.01 439.411 194.583C439.656 194.156 439.779 193.682 439.779 193.159V190.983C439.779 190.471 439.592 190.055 439.219 189.735C438.845 189.415 438.36 189.255 437.763 189.255C437.24 189.255 436.781 189.388 436.387 189.655C435.992 189.911 435.699 190.247 435.507 190.663L434.419 190.071C434.579 189.708 434.829 189.378 435.171 189.079C435.523 188.78 435.923 188.546 436.371 188.375C436.819 188.194 437.283 188.103 437.763 188.103C438.392 188.103 438.947 188.226 439.427 188.471C439.917 188.716 440.296 189.058 440.563 189.495C440.84 189.922 440.979 190.418 440.979 190.983V196.871H439.779V195.159L439.955 195.335C439.805 195.655 439.571 195.948 439.251 196.215C438.941 196.471 438.573 196.679 438.147 196.839C437.731 196.988 437.272 197.063 436.771 197.063ZM447.367 197.063C446.524 197.063 445.783 196.866 445.143 196.471C444.503 196.076 444.002 195.543 443.639 194.871C443.276 194.188 443.095 193.42 443.095 192.567C443.095 191.714 443.276 190.951 443.639 190.279C444.002 189.607 444.503 189.079 445.143 188.695C445.783 188.3 446.524 188.103 447.367 188.103C447.9 188.103 448.402 188.199 448.871 188.391C449.34 188.583 449.756 188.844 450.119 189.175C450.482 189.495 450.754 189.868 450.935 190.295L449.847 190.855C449.634 190.396 449.308 190.023 448.871 189.735C448.434 189.447 447.932 189.303 447.367 189.303C446.802 189.303 446.29 189.447 445.831 189.735C445.383 190.012 445.026 190.402 444.759 190.903C444.503 191.394 444.375 191.954 444.375 192.583C444.375 193.202 444.503 193.762 444.759 194.263C445.026 194.754 445.383 195.143 445.831 195.431C446.29 195.719 446.802 195.863 447.367 195.863C447.932 195.863 448.428 195.719 448.855 195.431C449.292 195.143 449.623 194.759 449.847 194.279L450.935 194.871C450.754 195.287 450.482 195.66 450.119 195.991C449.756 196.322 449.34 196.583 448.871 196.775C448.402 196.967 447.9 197.063 447.367 197.063ZM456.321 196.967C455.553 196.967 454.961 196.743 454.545 196.295C454.129 195.847 453.921 195.207 453.921 194.375V189.495H452.337V188.295H452.737C453.099 188.295 453.387 188.178 453.601 187.943C453.814 187.698 453.921 187.394 453.921 187.031V186.311H455.121V188.295H457.009V189.495H455.121V194.375C455.121 194.663 455.163 194.919 455.249 195.143C455.334 195.356 455.478 195.527 455.681 195.655C455.894 195.783 456.177 195.847 456.529 195.847C456.614 195.847 456.715 195.842 456.833 195.831C456.95 195.82 457.051 195.81 457.137 195.799V196.871C457.009 196.903 456.865 196.924 456.705 196.935C456.545 196.956 456.417 196.967 456.321 196.967ZM464.938 197.063C464.117 197.063 463.397 196.855 462.778 196.439C462.16 196.023 461.712 195.458 461.434 194.743L462.442 194.263C462.688 194.786 463.029 195.202 463.466 195.511C463.914 195.82 464.405 195.975 464.938 195.975C465.45 195.975 465.882 195.852 466.234 195.607C466.586 195.351 466.762 195.02 466.762 194.615C466.762 194.316 466.677 194.082 466.506 193.911C466.336 193.73 466.138 193.591 465.914 193.495C465.69 193.399 465.493 193.33 465.322 193.287L464.09 192.935C463.301 192.711 462.73 192.396 462.378 191.991C462.026 191.586 461.85 191.116 461.85 190.583C461.85 190.082 461.978 189.644 462.234 189.271C462.49 188.898 462.837 188.61 463.274 188.407C463.712 188.204 464.197 188.103 464.73 188.103C465.456 188.103 466.112 188.295 466.698 188.679C467.296 189.052 467.717 189.575 467.962 190.247L466.938 190.727C466.725 190.247 466.416 189.874 466.01 189.607C465.616 189.33 465.173 189.191 464.682 189.191C464.202 189.191 463.818 189.314 463.53 189.559C463.242 189.804 463.098 190.114 463.098 190.487C463.098 190.775 463.173 191.004 463.322 191.175C463.472 191.346 463.642 191.474 463.834 191.559C464.037 191.644 464.213 191.708 464.362 191.751L465.786 192.167C466.48 192.37 467.018 192.684 467.402 193.111C467.797 193.538 467.994 194.039 467.994 194.615C467.994 195.084 467.861 195.506 467.594 195.879C467.338 196.252 466.981 196.546 466.522 196.759C466.064 196.962 465.536 197.063 464.938 197.063ZM473.143 197.063C472.546 197.063 472.002 196.924 471.511 196.647C471.02 196.359 470.631 195.964 470.343 195.463C470.066 194.951 469.927 194.364 469.927 193.703V188.295H471.127V193.559C471.127 194.018 471.218 194.423 471.399 194.775C471.591 195.116 471.852 195.383 472.183 195.575C472.524 195.767 472.914 195.863 473.351 195.863C473.788 195.863 474.178 195.767 474.519 195.575C474.86 195.372 475.127 195.09 475.319 194.727C475.511 194.354 475.607 193.911 475.607 193.399V188.295H476.807V196.871H475.607V195.207L475.879 195.271C475.676 195.826 475.33 196.263 474.839 196.583C474.348 196.903 473.783 197.063 473.143 197.063ZM479.275 196.871V188.295H480.475V189.927L480.283 189.687C480.518 189.186 480.864 188.796 481.323 188.519C481.792 188.242 482.304 188.103 482.859 188.103C483.52 188.103 484.118 188.29 484.651 188.663C485.184 189.036 485.563 189.522 485.787 190.119L485.451 190.135C485.664 189.474 486.032 188.972 486.555 188.631C487.088 188.279 487.675 188.103 488.315 188.103C488.891 188.103 489.419 188.242 489.899 188.519C490.39 188.796 490.779 189.18 491.067 189.671C491.366 190.151 491.515 190.695 491.515 191.303V196.871H490.315V191.767C490.315 191.244 490.219 190.802 490.027 190.439C489.846 190.076 489.595 189.799 489.275 189.607C488.955 189.404 488.587 189.303 488.171 189.303C487.766 189.303 487.398 189.404 487.067 189.607C486.736 189.799 486.475 190.082 486.283 190.455C486.091 190.818 485.995 191.255 485.995 191.767V196.871H484.795V191.767C484.795 191.244 484.699 190.802 484.507 190.439C484.326 190.076 484.075 189.799 483.755 189.607C483.435 189.404 483.067 189.303 482.651 189.303C482.235 189.303 481.862 189.404 481.531 189.607C481.211 189.799 480.955 190.082 480.763 190.455C480.571 190.818 480.475 191.255 480.475 191.767V196.871H479.275ZM493.806 196.871V188.295H495.006V189.927L494.814 189.687C495.049 189.186 495.396 188.796 495.854 188.519C496.324 188.242 496.836 188.103 497.39 188.103C498.052 188.103 498.649 188.29 499.182 188.663C499.716 189.036 500.094 189.522 500.318 190.119L499.982 190.135C500.196 189.474 500.564 188.972 501.086 188.631C501.62 188.279 502.206 188.103 502.846 188.103C503.422 188.103 503.95 188.242 504.43 188.519C504.921 188.796 505.31 189.18 505.598 189.671C505.897 190.151 506.046 190.695 506.046 191.303V196.871H504.846V191.767C504.846 191.244 504.75 190.802 504.558 190.439C504.377 190.076 504.126 189.799 503.806 189.607C503.486 189.404 503.118 189.303 502.702 189.303C502.297 189.303 501.929 189.404 501.598 189.607C501.268 189.799 501.006 190.082 500.814 190.455C500.622 190.818 500.526 191.255 500.526 191.767V196.871H499.326V191.767C499.326 191.244 499.23 190.802 499.038 190.439C498.857 190.076 498.606 189.799 498.286 189.607C497.966 189.404 497.598 189.303 497.182 189.303C496.766 189.303 496.393 189.404 496.062 189.607C495.742 189.799 495.486 190.082 495.294 190.455C495.102 190.818 495.006 191.255 495.006 191.767V196.871H493.806ZM510.817 197.063C510.273 197.063 509.788 196.962 509.361 196.759C508.935 196.546 508.599 196.258 508.353 195.895C508.108 195.532 507.985 195.116 507.985 194.647C507.985 194.199 508.081 193.794 508.273 193.431C508.465 193.058 508.764 192.743 509.169 192.487C509.575 192.231 510.092 192.05 510.721 191.943L514.081 191.383V192.471L511.009 192.983C510.391 193.09 509.943 193.287 509.665 193.575C509.399 193.863 509.265 194.204 509.265 194.599C509.265 194.983 509.415 195.308 509.713 195.575C510.023 195.842 510.417 195.975 510.897 195.975C511.484 195.975 511.996 195.852 512.433 195.607C512.871 195.351 513.212 195.01 513.457 194.583C513.703 194.156 513.825 193.682 513.825 193.159V190.983C513.825 190.471 513.639 190.055 513.265 189.735C512.892 189.415 512.407 189.255 511.809 189.255C511.287 189.255 510.828 189.388 510.433 189.655C510.039 189.911 509.745 190.247 509.553 190.663L508.465 190.071C508.625 189.708 508.876 189.378 509.217 189.079C509.569 188.78 509.969 188.546 510.417 188.375C510.865 188.194 511.329 188.103 511.809 188.103C512.439 188.103 512.993 188.226 513.473 188.471C513.964 188.716 514.343 189.058 514.609 189.495C514.887 189.922 515.025 190.418 515.025 190.983V196.871H513.825V195.159L514.001 195.335C513.852 195.655 513.617 195.948 513.297 196.215C512.988 196.471 512.62 196.679 512.193 196.839C511.777 196.988 511.319 197.063 510.817 197.063ZM517.494 196.871V188.295H518.694V189.703L518.534 189.495C518.736 189.09 519.04 188.77 519.446 188.535C519.862 188.3 520.363 188.183 520.95 188.183H521.494V189.383H520.742C520.123 189.383 519.627 189.575 519.254 189.959C518.88 190.343 518.694 190.887 518.694 191.591V196.871H517.494ZM523.076 200.391C522.905 200.391 522.729 200.375 522.548 200.343C522.377 200.322 522.207 200.279 522.036 200.215V199.095C522.143 199.106 522.276 199.122 522.436 199.143C522.607 199.175 522.777 199.191 522.948 199.191C523.471 199.191 523.871 199.079 524.148 198.855C524.425 198.642 524.697 198.226 524.964 197.607L525.508 196.327L525.476 197.383L521.844 188.295H523.14L526.116 195.799H525.78L528.74 188.295H530.068L526.148 197.959C525.977 198.375 525.759 198.77 525.492 199.143C525.236 199.516 524.911 199.815 524.516 200.039C524.121 200.274 523.641 200.391 523.076 200.391Z" fill="#FBFDFF"/>
</g>
<rect x="373.246" y="164.247" width="267.2" height="446" rx="21.4971" stroke="white" stroke-opacity="0.1" stroke-width="0.999866" shape-rendering="crispEdges"/>
</g>
<rect x="133.883" y="220.123" width="506" height="334.249" rx="21.5" stroke="white" stroke-opacity="0.1"/>
</g>
<g filter="url(#filter42_b_16479_1379)">
<path d="M649.59 581.044C649.59 605.094 633.75 627.584 612.465 633.044C591.18 627.584 575.34 605.094 575.34 581.044V555.044L612.465 537.71L649.59 555.044V581.044Z" fill="#0389FF" fill-opacity="0.1"/>
</g>
<path d="M649.59 581.044C649.59 605.094 633.75 627.584 612.465 633.044C591.18 627.584 575.34 605.094 575.34 581.044V555.044L612.465 537.71L649.59 555.044V581.044ZM612.465 624.377C627.934 620.044 641.34 600.717 641.34 581.997V560.677L612.465 547.157L583.59 560.677V581.997C583.59 600.717 596.996 620.044 612.465 624.377Z" fill="#0389FF"/>
<path d="M606.003 560.04C604.534 560.071 604.45 560.092 604.272 560.454C604.1 560.807 600.149 580.004 598.797 587.05C598.506 588.574 598.506 588.605 598.856 589.024L599.059 589.263L603.207 589.268C607.597 589.273 611.108 589.32 611.163 589.382C611.202 589.423 611.153 589.631 609.229 597.061C607.449 603.931 606.704 606.838 606.275 608.595C605.929 610.03 605.924 610.092 606.206 610.429C606.482 610.755 607.044 610.864 607.286 610.636C607.626 610.31 615.182 598.569 621.777 588.112C625.964 581.47 626.181 581.107 626.324 580.563C626.398 580.273 626.369 580.159 626.132 579.848L625.94 579.589L618.773 579.553C614.827 579.537 611.32 579.506 610.97 579.485C610.364 579.454 610.344 579.449 610.373 579.346C610.388 579.283 611.779 576.32 613.461 572.76C616.578 566.164 618.152 562.796 618.65 561.656C618.96 560.936 618.99 560.724 618.813 560.454C618.615 560.138 618.467 560.086 617.634 560.04C616.81 559.988 608.1 559.988 606.003 560.04Z" fill="white"/>
<defs>
<filter id="filter0_f_16479_1379" x="0.386719" y="0.75" width="772.996" height="772.995" filterUnits="userSpaceOnUse" color-interpolation-filters="sRGB">
<feFlood flood-opacity="0" result="BackgroundImageFix"/>
<feBlend mode="normal" in="SourceGraphic" in2="BackgroundImageFix" result="shape"/>
<feGaussianBlur stdDeviation="150" result="effect1_foregroundBlur_16479_1379"/>
</filter>
<filter id="filter1_b_16479_1379" x="70.3828" y="100.748" width="633.562" height="573" filterUnits="userSpaceOnUse" color-interpolation-filters="sRGB">
<feFlood flood-opacity="0" result="BackgroundImageFix"/>
<feGaussianBlur in="BackgroundImageFix" stdDeviation="31.5"/>
<feComposite in2="SourceAlpha" operator="in" result="effect1_backgroundBlur_16479_1379"/>
<feBlend mode="normal" in="SourceGraphic" in2="effect1_backgroundBlur_16479_1379" result="shape"/>
</filter>
<filter id="filter2_b_16479_1379" x="142.574" y="227.497" width="293.805" height="50.8447" filterUnits="userSpaceOnUse" color-interpolation-filters="sRGB">
<feFlood flood-opacity="0" result="BackgroundImageFix"/>
<feGaussianBlur in="BackgroundImageFix" stdDeviation="6.5"/>
<feComposite in2="SourceAlpha" operator="in" result="effect1_backgroundBlur_16479_1379"/>
<feBlend mode="normal" in="SourceGraphic" in2="effect1_backgroundBlur_16479_1379" result="shape"/>
</filter>
<filter id="filter3_b_16479_1379" x="142.574" y="266.599" width="179.5" height="41.2505" filterUnits="userSpaceOnUse" color-interpolation-filters="sRGB">
<feFlood flood-opacity="0" result="BackgroundImageFix"/>
<feGaussianBlur in="BackgroundImageFix" stdDeviation="6.5"/>
<feComposite in2="SourceAlpha" operator="in" result="effect1_backgroundBlur_16479_1379"/>
<feBlend mode="normal" in="SourceGraphic" in2="effect1_backgroundBlur_16479_1379" result="shape"/>
</filter>
<filter id="filter4_b_16479_1379" x="142.574" y="304.429" width="135.535" height="39.5181" filterUnits="userSpaceOnUse" color-interpolation-filters="sRGB">
<feFlood flood-opacity="0" result="BackgroundImageFix"/>
<feGaussianBlur in="BackgroundImageFix" stdDeviation="6.5"/>
<feComposite in2="SourceAlpha" operator="in" result="effect1_backgroundBlur_16479_1379"/>
<feBlend mode="normal" in="SourceGraphic" in2="effect1_backgroundBlur_16479_1379" result="shape"/>
</filter>
<filter id="filter5_b_16479_1379" x="142.574" y="384.377" width="242.609" height="39.5181" filterUnits="userSpaceOnUse" color-interpolation-filters="sRGB">
<feFlood flood-opacity="0" result="BackgroundImageFix"/>
<feGaussianBlur in="BackgroundImageFix" stdDeviation="6.5"/>
<feComposite in2="SourceAlpha" operator="in" result="effect1_backgroundBlur_16479_1379"/>
<feBlend mode="normal" in="SourceGraphic" in2="effect1_backgroundBlur_16479_1379" result="shape"/>
</filter>
<filter id="filter6_b_16479_1379" x="142.574" y="484.639" width="92.6719" height="39.5181" filterUnits="userSpaceOnUse" color-interpolation-filters="sRGB">
<feFlood flood-opacity="0" result="BackgroundImageFix"/>
<feGaussianBlur in="BackgroundImageFix" stdDeviation="6.5"/>
<feComposite in2="SourceAlpha" operator="in" result="effect1_backgroundBlur_16479_1379"/>
<feBlend mode="normal" in="SourceGraphic" in2="effect1_backgroundBlur_16479_1379" result="shape"/>
</filter>
<filter id="filter7_b_16479_1379" x="322.199" y="484.639" width="92.6719" height="39.5181" filterUnits="userSpaceOnUse" color-interpolation-filters="sRGB">
<feFlood flood-opacity="0" result="BackgroundImageFix"/>
<feGaussianBlur in="BackgroundImageFix" stdDeviation="6.5"/>
<feComposite in2="SourceAlpha" operator="in" result="effect1_backgroundBlur_16479_1379"/>
<feBlend mode="normal" in="SourceGraphic" in2="effect1_backgroundBlur_16479_1379" result="shape"/>
</filter>
<filter id="filter8_b_16479_1379" x="511.648" y="484.639" width="92.6719" height="39.5181" filterUnits="userSpaceOnUse" color-interpolation-filters="sRGB">
<feFlood flood-opacity="0" result="BackgroundImageFix"/>
<feGaussianBlur in="BackgroundImageFix" stdDeviation="6.5"/>
<feComposite in2="SourceAlpha" operator="in" result="effect1_backgroundBlur_16479_1379"/>
<feBlend mode="normal" in="SourceGraphic" in2="effect1_backgroundBlur_16479_1379" result="shape"/>
</filter>
<filter id="filter9_b_16479_1379" x="142.574" y="322" width="487.246" height="33.0837" filterUnits="userSpaceOnUse" color-interpolation-filters="sRGB">
<feFlood flood-opacity="0" result="BackgroundImageFix"/>
<feGaussianBlur in="BackgroundImageFix" stdDeviation="6.5"/>
<feComposite in2="SourceAlpha" operator="in" result="effect1_backgroundBlur_16479_1379"/>
<feBlend mode="normal" in="SourceGraphic" in2="effect1_backgroundBlur_16479_1379" result="shape"/>
</filter>
<filter id="filter10_b_16479_1379" x="142.574" y="401.948" width="487.246" height="33.0837" filterUnits="userSpaceOnUse" color-interpolation-filters="sRGB">
<feFlood flood-opacity="0" result="BackgroundImageFix"/>
<feGaussianBlur in="BackgroundImageFix" stdDeviation="6.5"/>
<feComposite in2="SourceAlpha" operator="in" result="effect1_backgroundBlur_16479_1379"/>
<feBlend mode="normal" in="SourceGraphic" in2="effect1_backgroundBlur_16479_1379" result="shape"/>
</filter>
<filter id="filter11_b_16479_1379" x="142.574" y="502.21" width="118.168" height="33.0837" filterUnits="userSpaceOnUse" color-interpolation-filters="sRGB">
<feFlood flood-opacity="0" result="BackgroundImageFix"/>
<feGaussianBlur in="BackgroundImageFix" stdDeviation="6.5"/>
<feComposite in2="SourceAlpha" operator="in" result="effect1_backgroundBlur_16479_1379"/>
<feBlend mode="normal" in="SourceGraphic" in2="effect1_backgroundBlur_16479_1379" result="shape"/>
</filter>
<filter id="filter12_b_16479_1379" x="142.574" y="513.293" width="118.168" height="33.0837" filterUnits="userSpaceOnUse" color-interpolation-filters="sRGB">
<feFlood flood-opacity="0" result="BackgroundImageFix"/>
<feGaussianBlur in="BackgroundImageFix" stdDeviation="6.5"/>
<feComposite in2="SourceAlpha" operator="in" result="effect1_backgroundBlur_16479_1379"/>
<feBlend mode="normal" in="SourceGraphic" in2="effect1_backgroundBlur_16479_1379" result="shape"/>
</filter>
<filter id="filter13_b_16479_1379" x="322.199" y="502.21" width="118.168" height="33.0837" filterUnits="userSpaceOnUse" color-interpolation-filters="sRGB">
<feFlood flood-opacity="0" result="BackgroundImageFix"/>
<feGaussianBlur in="BackgroundImageFix" stdDeviation="6.5"/>
<feComposite in2="SourceAlpha" operator="in" result="effect1_backgroundBlur_16479_1379"/>
<feBlend mode="normal" in="SourceGraphic" in2="effect1_backgroundBlur_16479_1379" result="shape"/>
</filter>
<filter id="filter14_b_16479_1379" x="322.199" y="513.293" width="118.168" height="33.0837" filterUnits="userSpaceOnUse" color-interpolation-filters="sRGB">
<feFlood flood-opacity="0" result="BackgroundImageFix"/>
<feGaussianBlur in="BackgroundImageFix" stdDeviation="6.5"/>
<feComposite in2="SourceAlpha" operator="in" result="effect1_backgroundBlur_16479_1379"/>
<feBlend mode="normal" in="SourceGraphic" in2="effect1_backgroundBlur_16479_1379" result="shape"/>
</filter>
<filter id="filter15_b_16479_1379" x="511.648" y="502.21" width="118.168" height="33.0837" filterUnits="userSpaceOnUse" color-interpolation-filters="sRGB">
<feFlood flood-opacity="0" result="BackgroundImageFix"/>
<feGaussianBlur in="BackgroundImageFix" stdDeviation="6.5"/>
<feComposite in2="SourceAlpha" operator="in" result="effect1_backgroundBlur_16479_1379"/>
<feBlend mode="normal" in="SourceGraphic" in2="effect1_backgroundBlur_16479_1379" result="shape"/>
</filter>
<filter id="filter16_b_16479_1379" x="142.574" y="333.136" width="487.246" height="33.0837" filterUnits="userSpaceOnUse" color-interpolation-filters="sRGB">
<feFlood flood-opacity="0" result="BackgroundImageFix"/>
<feGaussianBlur in="BackgroundImageFix" stdDeviation="6.5"/>
<feComposite in2="SourceAlpha" operator="in" result="effect1_backgroundBlur_16479_1379"/>
<feBlend mode="normal" in="SourceGraphic" in2="effect1_backgroundBlur_16479_1379" result="shape"/>
</filter>
<filter id="filter17_b_16479_1379" x="142.574" y="413.084" width="487.246" height="33.0837" filterUnits="userSpaceOnUse" color-interpolation-filters="sRGB">
<feFlood flood-opacity="0" result="BackgroundImageFix"/>
<feGaussianBlur in="BackgroundImageFix" stdDeviation="6.5"/>
<feComposite in2="SourceAlpha" operator="in" result="effect1_backgroundBlur_16479_1379"/>
<feBlend mode="normal" in="SourceGraphic" in2="effect1_backgroundBlur_16479_1379" result="shape"/>
</filter>
<filter id="filter18_b_16479_1379" x="142.574" y="344.273" width="487.246" height="33.0837" filterUnits="userSpaceOnUse" color-interpolation-filters="sRGB">
<feFlood flood-opacity="0" result="BackgroundImageFix"/>
<feGaussianBlur in="BackgroundImageFix" stdDeviation="6.5"/>
<feComposite in2="SourceAlpha" operator="in" result="effect1_backgroundBlur_16479_1379"/>
<feBlend mode="normal" in="SourceGraphic" in2="effect1_backgroundBlur_16479_1379" result="shape"/>
</filter>
<filter id="filter19_b_16479_1379" x="142.574" y="355.41" width="394.629" height="33.0837" filterUnits="userSpaceOnUse" color-interpolation-filters="sRGB">
<feFlood flood-opacity="0" result="BackgroundImageFix"/>
<feGaussianBlur in="BackgroundImageFix" stdDeviation="6.5"/>
<feComposite in2="SourceAlpha" operator="in" result="effect1_backgroundBlur_16479_1379"/>
<feBlend mode="normal" in="SourceGraphic" in2="effect1_backgroundBlur_16479_1379" result="shape"/>
</filter>
<filter id="filter20_b_16479_1379" x="142.574" y="424.221" width="487.246" height="33.0837" filterUnits="userSpaceOnUse" color-interpolation-filters="sRGB">
<feFlood flood-opacity="0" result="BackgroundImageFix"/>
<feGaussianBlur in="BackgroundImageFix" stdDeviation="6.5"/>
<feComposite in2="SourceAlpha" operator="in" result="effect1_backgroundBlur_16479_1379"/>
<feBlend mode="normal" in="SourceGraphic" in2="effect1_backgroundBlur_16479_1379" result="shape"/>
</filter>
<filter id="filter21_b_16479_1379" x="142.574" y="435.305" width="487.246" height="33.0837" filterUnits="userSpaceOnUse" color-interpolation-filters="sRGB">
<feFlood flood-opacity="0" result="BackgroundImageFix"/>
<feGaussianBlur in="BackgroundImageFix" stdDeviation="6.5"/>
<feComposite in2="SourceAlpha" operator="in" result="effect1_backgroundBlur_16479_1379"/>
<feBlend mode="normal" in="SourceGraphic" in2="effect1_backgroundBlur_16479_1379" result="shape"/>
</filter>
<filter id="filter22_b_16479_1379" x="142.574" y="446.389" width="487.246" height="33.0837" filterUnits="userSpaceOnUse" color-interpolation-filters="sRGB">
<feFlood flood-opacity="0" result="BackgroundImageFix"/>
<feGaussianBlur in="BackgroundImageFix" stdDeviation="6.5"/>
<feComposite in2="SourceAlpha" operator="in" result="effect1_backgroundBlur_16479_1379"/>
<feBlend mode="normal" in="SourceGraphic" in2="effect1_backgroundBlur_16479_1379" result="shape"/>
</filter>
<filter id="filter23_b_16479_1379" x="142.574" y="457.472" width="385.25" height="33.0837" filterUnits="userSpaceOnUse" color-interpolation-filters="sRGB">
<feFlood flood-opacity="0" result="BackgroundImageFix"/>
<feGaussianBlur in="BackgroundImageFix" stdDeviation="6.5"/>
<feComposite in2="SourceAlpha" operator="in" result="effect1_backgroundBlur_16479_1379"/>
<feBlend mode="normal" in="SourceGraphic" in2="effect1_backgroundBlur_16479_1379" result="shape"/>
</filter>
<filter id="filter24_bd_16479_1379" x="309.746" y="100.756" width="394.191" height="572.983" filterUnits="userSpaceOnUse" color-interpolation-filters="sRGB">
<feFlood flood-opacity="0" result="BackgroundImageFix"/>
<feGaussianBlur in="BackgroundImageFix" stdDeviation="31.4958"/>
<feComposite in2="SourceAlpha" operator="in" result="effect1_backgroundBlur_16479_1379"/>
<feColorMatrix in="SourceAlpha" type="matrix" values="0 0 0 0 0 0 0 0 0 0 0 0 0 0 0 0 0 0 127 0" result="hardAlpha"/>
<feOffset dx="-22" dy="20"/>
<feGaussianBlur stdDeviation="20.5"/>
<feComposite in2="hardAlpha" operator="out"/>
<feColorMatrix type="matrix" values="0 0 0 0 0 0 0 0 0 0 0 0 0 0 0 0 0 0 0.5 0"/>
<feBlend mode="normal" in2="effect1_backgroundBlur_16479_1379" result="effect2_dropShadow_16479_1379"/>
<feBlend mode="normal" in="SourceGraphic" in2="effect2_dropShadow_16479_1379" result="shape"/>
</filter>
<filter id="filter25_b_16479_1379" x="404.756" y="265.053" width="220.707" height="33.0793" filterUnits="userSpaceOnUse" color-interpolation-filters="sRGB">
<feFlood flood-opacity="0" result="BackgroundImageFix"/>
<feGaussianBlur in="BackgroundImageFix" stdDeviation="6.49913"/>
<feComposite in2="SourceAlpha" operator="in" result="effect1_backgroundBlur_16479_1379"/>
<feBlend mode="normal" in="SourceGraphic" in2="effect1_backgroundBlur_16479_1379" result="shape"/>
</filter>
<filter id="filter26_b_16479_1379" x="404.756" y="276.135" width="220.707" height="33.0793" filterUnits="userSpaceOnUse" color-interpolation-filters="sRGB">
<feFlood flood-opacity="0" result="BackgroundImageFix"/>
<feGaussianBlur in="BackgroundImageFix" stdDeviation="6.49913"/>
<feComposite in2="SourceAlpha" operator="in" result="effect1_backgroundBlur_16479_1379"/>
<feBlend mode="normal" in="SourceGraphic" in2="effect1_backgroundBlur_16479_1379" result="shape"/>
</filter>
<filter id="filter27_b_16479_1379" x="404.756" y="287.218" width="220.707" height="33.0793" filterUnits="userSpaceOnUse" color-interpolation-filters="sRGB">
<feFlood flood-opacity="0" result="BackgroundImageFix"/>
<feGaussianBlur in="BackgroundImageFix" stdDeviation="6.49913"/>
<feComposite in2="SourceAlpha" operator="in" result="effect1_backgroundBlur_16479_1379"/>
<feBlend mode="normal" in="SourceGraphic" in2="effect1_backgroundBlur_16479_1379" result="shape"/>
</filter>
<filter id="filter28_b_16479_1379" x="404.756" y="298.3" width="220.707" height="33.0793" filterUnits="userSpaceOnUse" color-interpolation-filters="sRGB">
<feFlood flood-opacity="0" result="BackgroundImageFix"/>
<feGaussianBlur in="BackgroundImageFix" stdDeviation="6.49913"/>
<feComposite in2="SourceAlpha" operator="in" result="effect1_backgroundBlur_16479_1379"/>
<feBlend mode="normal" in="SourceGraphic" in2="effect1_backgroundBlur_16479_1379" result="shape"/>
</filter>
<filter id="filter29_b_16479_1379" x="404.756" y="309.382" width="177.649" height="33.0793" filterUnits="userSpaceOnUse" color-interpolation-filters="sRGB">
<feFlood flood-opacity="0" result="BackgroundImageFix"/>
<feGaussianBlur in="BackgroundImageFix" stdDeviation="6.49913"/>
<feComposite in2="SourceAlpha" operator="in" result="effect1_backgroundBlur_16479_1379"/>
<feBlend mode="normal" in="SourceGraphic" in2="effect1_backgroundBlur_16479_1379" result="shape"/>
</filter>
<filter id="filter30_b_16479_1379" x="404.756" y="355.041" width="220.707" height="33.0793" filterUnits="userSpaceOnUse" color-interpolation-filters="sRGB">
<feFlood flood-opacity="0" result="BackgroundImageFix"/>
<feGaussianBlur in="BackgroundImageFix" stdDeviation="6.49913"/>
<feComposite in2="SourceAlpha" operator="in" result="effect1_backgroundBlur_16479_1379"/>
<feBlend mode="normal" in="SourceGraphic" in2="effect1_backgroundBlur_16479_1379" result="shape"/>
</filter>
<filter id="filter31_b_16479_1379" x="404.756" y="366.123" width="220.707" height="33.0793" filterUnits="userSpaceOnUse" color-interpolation-filters="sRGB">
<feFlood flood-opacity="0" result="BackgroundImageFix"/>
<feGaussianBlur in="BackgroundImageFix" stdDeviation="6.49913"/>
<feComposite in2="SourceAlpha" operator="in" result="effect1_backgroundBlur_16479_1379"/>
<feBlend mode="normal" in="SourceGraphic" in2="effect1_backgroundBlur_16479_1379" result="shape"/>
</filter>
<filter id="filter32_b_16479_1379" x="404.756" y="377.206" width="220.707" height="33.0793" filterUnits="userSpaceOnUse" color-interpolation-filters="sRGB">
<feFlood flood-opacity="0" result="BackgroundImageFix"/>
<feGaussianBlur in="BackgroundImageFix" stdDeviation="6.49913"/>
<feComposite in2="SourceAlpha" operator="in" result="effect1_backgroundBlur_16479_1379"/>
<feBlend mode="normal" in="SourceGraphic" in2="effect1_backgroundBlur_16479_1379" result="shape"/>
</filter>
<filter id="filter33_b_16479_1379" x="404.756" y="388.288" width="177.649" height="33.0793" filterUnits="userSpaceOnUse" color-interpolation-filters="sRGB">
<feFlood flood-opacity="0" result="BackgroundImageFix"/>
<feGaussianBlur in="BackgroundImageFix" stdDeviation="6.49913"/>
<feComposite in2="SourceAlpha" operator="in" result="effect1_backgroundBlur_16479_1379"/>
<feBlend mode="normal" in="SourceGraphic" in2="effect1_backgroundBlur_16479_1379" result="shape"/>
</filter>
<filter id="filter34_b_16479_1379" x="404.756" y="445.029" width="220.707" height="33.0793" filterUnits="userSpaceOnUse" color-interpolation-filters="sRGB">
<feFlood flood-opacity="0" result="BackgroundImageFix"/>
<feGaussianBlur in="BackgroundImageFix" stdDeviation="6.49913"/>
<feComposite in2="SourceAlpha" operator="in" result="effect1_backgroundBlur_16479_1379"/>
<feBlend mode="normal" in="SourceGraphic" in2="effect1_backgroundBlur_16479_1379" result="shape"/>
</filter>
<filter id="filter35_b_16479_1379" x="404.756" y="456.111" width="220.707" height="33.0793" filterUnits="userSpaceOnUse" color-interpolation-filters="sRGB">
<feFlood flood-opacity="0" result="BackgroundImageFix"/>
<feGaussianBlur in="BackgroundImageFix" stdDeviation="6.49913"/>
<feComposite in2="SourceAlpha" operator="in" result="effect1_backgroundBlur_16479_1379"/>
<feBlend mode="normal" in="SourceGraphic" in2="effect1_backgroundBlur_16479_1379" result="shape"/>
</filter>
<filter id="filter36_b_16479_1379" x="404.756" y="467.193" width="220.707" height="33.0793" filterUnits="userSpaceOnUse" color-interpolation-filters="sRGB">
<feFlood flood-opacity="0" result="BackgroundImageFix"/>
<feGaussianBlur in="BackgroundImageFix" stdDeviation="6.49913"/>
<feComposite in2="SourceAlpha" operator="in" result="effect1_backgroundBlur_16479_1379"/>
<feBlend mode="normal" in="SourceGraphic" in2="effect1_backgroundBlur_16479_1379" result="shape"/>
</filter>
<filter id="filter37_b_16479_1379" x="404.756" y="478.276" width="177.649" height="33.0793" filterUnits="userSpaceOnUse" color-interpolation-filters="sRGB">
<feFlood flood-opacity="0" result="BackgroundImageFix"/>
<feGaussianBlur in="BackgroundImageFix" stdDeviation="6.49913"/>
<feComposite in2="SourceAlpha" operator="in" result="effect1_backgroundBlur_16479_1379"/>
<feBlend mode="normal" in="SourceGraphic" in2="effect1_backgroundBlur_16479_1379" result="shape"/>
</filter>
<filter id="filter38_b_16479_1379" x="404.756" y="535.017" width="220.707" height="33.0793" filterUnits="userSpaceOnUse" color-interpolation-filters="sRGB">
<feFlood flood-opacity="0" result="BackgroundImageFix"/>
<feGaussianBlur in="BackgroundImageFix" stdDeviation="6.49913"/>
<feComposite in2="SourceAlpha" operator="in" result="effect1_backgroundBlur_16479_1379"/>
<feBlend mode="normal" in="SourceGraphic" in2="effect1_backgroundBlur_16479_1379" result="shape"/>
</filter>
<filter id="filter39_b_16479_1379" x="404.756" y="546.099" width="220.707" height="33.0793" filterUnits="userSpaceOnUse" color-interpolation-filters="sRGB">
<feFlood flood-opacity="0" result="BackgroundImageFix"/>
<feGaussianBlur in="BackgroundImageFix" stdDeviation="6.49913"/>
<feComposite in2="SourceAlpha" operator="in" result="effect1_backgroundBlur_16479_1379"/>
<feBlend mode="normal" in="SourceGraphic" in2="effect1_backgroundBlur_16479_1379" result="shape"/>
</filter>
<filter id="filter40_b_16479_1379" x="404.756" y="557.181" width="220.707" height="33.0793" filterUnits="userSpaceOnUse" color-interpolation-filters="sRGB">
<feFlood flood-opacity="0" result="BackgroundImageFix"/>
<feGaussianBlur in="BackgroundImageFix" stdDeviation="6.49913"/>
<feComposite in2="SourceAlpha" operator="in" result="effect1_backgroundBlur_16479_1379"/>
<feBlend mode="normal" in="SourceGraphic" in2="effect1_backgroundBlur_16479_1379" result="shape"/>
</filter>
<filter id="filter41_b_16479_1379" x="404.756" y="568.264" width="177.649" height="33.0793" filterUnits="userSpaceOnUse" color-interpolation-filters="sRGB">
<feFlood flood-opacity="0" result="BackgroundImageFix"/>
<feGaussianBlur in="BackgroundImageFix" stdDeviation="6.49913"/>
<feComposite in2="SourceAlpha" operator="in" result="effect1_backgroundBlur_16479_1379"/>
<feBlend mode="normal" in="SourceGraphic" in2="effect1_backgroundBlur_16479_1379" result="shape"/>
</filter>
<filter id="filter42_b_16479_1379" x="566.34" y="528.71" width="92.25" height="113.333" filterUnits="userSpaceOnUse" color-interpolation-filters="sRGB">
<feFlood flood-opacity="0" result="BackgroundImageFix"/>
<feGaussianBlur in="BackgroundImageFix" stdDeviation="4.5"/>
<feComposite in2="SourceAlpha" operator="in" result="effect1_backgroundBlur_16479_1379"/>
<feBlend mode="normal" in="SourceGraphic" in2="effect1_backgroundBlur_16479_1379" result="shape"/>
</filter>
<clipPath id="clip0_16479_1379">
<rect x="372.746" y="163.748" width="268.2" height="447" rx="21.9971" fill="white"/>
</clipPath>
</defs>
</svg>
